<?xml version="1.0" encoding="UTF-8"?>
<svg width="71px" height="36px" viewBox="0 0 71 36" version="1.1" xmlns="http://www.w3.org/2000/svg" xmlns:xlink="http://www.w3.org/1999/xlink">
    <title>logo-muted</title>
    <g id="Page-1" stroke="none" stroke-width="1" fill="none" fill-rule="evenodd">
        <g id="logo-muted" fill="#FFFFFF" fill-rule="nonzero">
            <path d="M8.175,24.2 C5.95832225,24.2 4.18334,23.7791709 2.85,22.9375 C1.51666,22.0958291 0.85,20.808342 0.85,19.075 C0.85,18.1583287 1.00833175,17.4583357 1.325,16.975 C1.64166825,16.4916642 2.10833025,16.25 2.725,16.25 C3.17500225,16.25 3.54166525,16.3666655 3.825,16.6 C4.10833475,16.8333345 4.25,17.1333315 4.25,17.5 C4.25,17.833335 4.22500025,18.1249987 4.175,18.375 L4.16562505,18.5124998 L4.16562505,18.5124998 L4.1375,18.725 C4.11249987,18.8916675 4.1,19.0666657 4.1,19.25 C4.1,20.0000037 4.47916287,20.5583315 5.2375,20.925 C5.99583712,21.2916685 7.0583265,21.475 8.425,21.475 C9.84167375,21.475 10.949996,21.2208359 11.75,20.7125 C12.550004,20.2041641 12.95,19.4916712 12.95,18.575 C12.95,18.0083305 12.7666685,17.5208354 12.4,17.1125 C12.0333315,16.7041646 11.5750027,16.3625014 11.025,16.0875 C10.5361087,15.8430543 9.86944785,15.5492297 9.02500123,15.206019 L8.7,15.075 C7.41666025,14.5749975 6.37083737,14.1000022 5.5625,13.65 C4.75416262,13.1999978 4.06250287,12.5875039 3.4875,11.8125 C2.91249712,11.0374961 2.625,10.0750057 2.625,8.925 C2.625,7.724994 2.94583012,6.658338 3.5875,5.725 C4.22916987,4.791662 5.15416062,4.06666925 6.3625,3.55 C7.57083937,3.03333075 8.9916585,2.775 10.625,2.775 C11.8416727,2.775 12.9583282,2.95416488 13.975,3.3125 C14.9916717,3.67083512 15.8041636,4.216663 16.4125,4.95 C17.0208364,5.683337 17.325,6.583328 17.325,7.65 C17.325,8.7000052 17.1666682,9.491664 16.85,10.025 C16.5333317,10.558336 16.0666697,10.825 15.45,10.825 C15.0166645,10.825 14.6541681,10.691668 14.3625,10.425 C14.0708319,10.158332 13.925,9.8416685 13.925,9.475 C13.925,9.1583318 13.9499997,8.866668 14,8.6 L14.0562501,7.9874993 C14.0687501,7.8291664 14.075,7.716667 14.075,7.65 C14.075,6.9499965 13.7333367,6.4166685 13.05,6.05 C12.3666632,5.6833315 11.5166717,5.5 10.5,5.5 C9.0666595,5.5 7.97083712,5.76249738 7.2125,6.2875 C6.45416287,6.8125026 6.075,7.5499953 6.075,8.5 C6.075,9.1333365 6.27083137,9.6749977 6.6625,10.125 C7.05416862,10.5750022 7.54166375,10.9499985 8.125,11.25 C8.70833625,11.5500015 9.52499475,11.9083312 10.575,12.325 C11.841673,12.8416693 12.8583295,13.3083313 13.625,13.725 C14.3916705,14.1416688 15.0458306,14.7083297 15.5875,15.425 C16.1291694,16.1416702 16.4,17.0249947 16.4,18.075 C16.4,20.0416765 15.6541741,21.5541614 14.1625,22.6125 C12.6708259,23.6708386 10.6750125,24.2 8.175,24.2 Z M32.4,18.425 C32.6166677,18.425 32.7874994,18.524999 32.9125,18.725 C33.0375006,18.925001 33.1,19.1999983 33.1,19.55 C33.1,20.21667 32.9416682,20.7333315 32.625,21.1 C31.8583295,21.9833378 31.0708374,22.7083305 30.2625,23.275 C29.4541626,23.8416695 28.5333385,24.125 27.5,24.125 C26.65,24.125 26.0083355,23.8791691 25.575,23.3875 C25.1416645,22.8958309 24.925,22.183338 24.925,21.25 C24.925,20.783331 25.0416655,19.950006 25.275,18.75 L25.3743059,18.2520816 C25.5247693,17.467358 25.6,16.908335 25.6,16.575 C25.6,16.308332 25.5083342,16.175 25.325,16.175 C25.1083322,16.175 24.800002,16.4541639 24.4,17.0125 C23.999998,17.5708361 23.600002,18.3083288 23.2,19.225 C22.866665,19.9888927 22.585417,20.7874977 22.3562503,21.6208319 L22.225,22.125 C21.9083317,23.45834 21.1250062,24.125 19.875,24.125 C19.3749975,24.125 19.0458341,23.9458351 18.8875,23.5875 C18.7435599,23.2617408 18.6650481,22.6983851 18.6519628,21.8974184 L18.65,21.65 C18.65,21.116664 18.6583332,20.6916682 18.675,20.375 L18.7,18.375 C18.7,15.8083205 18.9624974,13.1333472 19.4875,10.35 C20.0125026,7.5666528 20.7874949,5.22917613 21.8125,3.3375 C22.8375051,1.44582388 24.0666595,0.5 25.5,0.5 C26.2666705,0.5 26.8874976,0.82916337 27.3625,1.4875 C27.8375024,2.14583662 28.075,3 28.075,4.05 C28.075,5.73334175 27.5833382,7.4791576 26.6,9.2875 C25.6166617,11.0958424 24.0166777,13.2083212 21.8,15.625 C21.7499997,16.491671 21.725,17.3833288 21.725,18.3 C22.2750027,16.8833263 22.8874966,15.7291711 23.5625,14.8375 C24.2375034,13.9458289 24.9041634,13.3083352 25.5625,12.925 C26.2208366,12.5416647 26.8249972,12.35 27.375,12.35 C28.4583387,12.35 29,12.8916613 29,13.975 L28.9914063,14.24336 C28.9513025,14.9269538 28.7708349,16.0124926 28.45,17.5 L28.3317773,18.0537798 C28.0939247,19.1968197 27.975,19.9705535 27.975,20.375 C27.975,21.04167 28.2166642,21.375 28.7,21.375 C29.033335,21.375 29.4291644,21.1708354 29.8875,20.7625 C30.3458356,20.3541646 30.9583295,19.6916712 31.725,18.775 C31.925001,18.5416655 32.15,18.425 32.4,18.425 Z M24.975,2.975 C24.6749985,2.975 24.3416685,3.40416237 23.975,4.2625 C23.6083315,5.12083763 23.2541684,6.2791594 22.9125,7.7375 C22.5708316,9.1958406 22.2916677,10.7833247 22.075,12.5 C23.1083385,11.2833272 23.9624966,9.9583405 24.6375,8.525 C25.3125034,7.0916595 25.65,5.7916725 25.65,4.625 C25.65,4.091664 25.5916672,3.68333475 25.475,3.4 C25.3583327,3.11666525 25.1916677,2.975 24.975,2.975 Z M42.225,18.425 C42.4416677,18.425 42.6124994,18.524999 42.7375,18.725 C42.8625006,18.925001 42.925,19.1999983 42.925,19.55 C42.925,20.21667 42.7666682,20.7333315 42.45,21.1 C41.8333302,21.85 40.9625056,22.5416635 39.8375,23.175 C38.7124944,23.8083365 37.5083397,24.125 36.225,24.125 C34.4749912,24.125 33.1166715,23.6500048 32.15,22.7 C31.1833285,21.7499952 30.7,20.4500083 30.7,18.8 C30.7,17.6499942 30.9416642,16.5791716 31.425,15.5875 C31.9083357,14.5958284 32.5791624,13.8083363 33.4375,13.225 C34.2958376,12.6416637 35.2666612,12.35 36.35,12.35 C37.3166715,12.35 38.0916637,12.6374971 38.675,13.2125 C39.2583362,13.7875029 39.55,14.5666617 39.55,15.55 C39.55,16.7000057 39.1375041,17.6874959 38.3125,18.5125 C37.4874959,19.3375041 36.0916765,19.9916642 34.125,20.475 C34.5416687,21.2416705 35.3333275,21.625 36.5,21.625 C37.2500037,21.625 38.1041619,21.3625026 39.0625,20.8375 C40.0208381,20.3124974 40.8499965,19.6250042 41.55,18.775 C41.750001,18.5416655 41.9749987,18.425 42.225,18.425 Z M35.925,14.8 C35.3083302,14.8 34.7875021,15.1583298 34.3625,15.875 C33.9799981,16.5200032 33.7696246,17.2864965 33.7313749,18.1744989 L33.725,18.525 C34.7083382,18.2916655 35.4833305,17.941669 36.05,17.475 C36.6166695,17.008331 36.9,16.4666698 36.9,15.85 C36.9,15.5333318 36.8125009,15.2791676 36.6375,15.0875 C36.4624991,14.8958324 36.225,14.8 35.925,14.8 Z M52.05,18.425 C52.2666677,18.425 52.4374994,18.524999 52.5625,18.725 C52.6875006,18.925001 52.75,19.1999983 52.75,19.55 C52.75,20.21667 52.5916682,20.7333315 52.275,21.1 C51.6583302,21.85 50.7875056,22.5416635 49.6625,23.175 C48.5374944,23.8083365 47.3333397,24.125 46.05,24.125 C44.2999912,24.125 42.9416715,23.6500048 41.975,22.7 C41.0083285,21.7499952 40.525,20.4500083 40.525,18.8 C40.525,17.6499942 40.7666642,16.5791716 41.25,15.5875 C41.7333357,14.5958284 42.4041624,13.8083363 43.2625,13.225 C44.1208376,12.6416637 45.0916612,12.35 46.175,12.35 C47.1416715,12.35 47.9166637,12.6374971 48.5,13.2125 C49.0833362,13.7875029 49.375,14.5666617 49.375,15.55 C49.375,16.7000057 48.9625041,17.6874959 48.1375,18.5125 C47.3124959,19.3375041 45.9166765,19.9916642 43.95,20.475 C44.3666687,21.2416705 45.1583275,21.625 46.325,21.625 C47.0750037,21.625 47.9291619,21.3625026 48.8875,20.8375 C49.8458381,20.3124974 50.6749965,19.6250042 51.375,18.775 C51.575001,18.5416655 51.7999987,18.425 52.05,18.425 Z M45.75,14.8 C45.1333302,14.8 44.6125021,15.1583298 44.1875,15.875 C43.8049981,16.5200032 43.5946246,17.2864965 43.5563749,18.1744989 L43.55,18.525 C44.5333382,18.2916655 45.3083305,17.941669 45.875,17.475 C46.4416695,17.008331 46.725,16.4666698 46.725,15.85 C46.725,15.5333318 46.6375009,15.2791676 46.4625,15.0875 C46.2874991,14.8958324 46.05,14.8 45.75,14.8 Z M61.875,18.425 C62.0916677,18.425 62.2624994,18.524999 62.3875,18.725 C62.5125006,18.925001 62.575,19.1999982 62.575,19.55 C62.575,20.21667 62.4166682,20.7333315 62.1,21.1 C61.3833297,21.9833377 60.6000042,22.7083305 59.75,23.275 C58.8999957,23.8416695 57.9250055,24.125 56.825,24.125 C53.424983,24.125 51.725,21.7333572 51.725,16.95 C51.725,16.216663 51.7499997,15.4750037 51.8,14.725 L50.825,14.725 C50.3249975,14.725 49.9875009,14.6333342 49.8125,14.45 C49.6374991,14.2666657 49.55,13.975002 49.55,13.575 C49.55,12.641662 49.9249962,12.175 50.675,12.175 L52.1,12.175 C52.3833347,10.3416575 52.8166637,8.6666742 53.4,7.15 C53.9833362,5.63332575 54.6874959,4.4250045 55.5125,3.525 C56.3375041,2.6249955 57.2249952,2.175 58.175,2.175 C58.8750035,2.175 59.424998,2.48333025 59.825,3.1 C60.225002,3.71666975 60.425,4.491662 60.425,5.425 C60.425,8.0083463 59.3416775,10.2583237 57.175,12.175 L59.975,12.175 C60.241668,12.175 60.4333327,12.2333327 60.55,12.35 C60.6666672,12.4666673 60.725,12.6833318 60.725,13 C60.725,14.1500057 59.7833427,14.725 57.9,14.725 L54.85,14.725 L54.8195312,15.5851575 C54.8091145,15.9330736 54.8028646,16.2351555 54.8007812,16.4914058 L54.8,16.675 C54.8,18.408342 55.0041646,19.6249965 55.4125,20.325 C55.8208354,21.0250035 56.4666622,21.375 57.35,21.375 C58.0666702,21.375 58.6999972,21.1583355 59.25,20.725 C59.8000027,20.2916645 60.4499962,19.641671 61.2,18.775 C61.400001,18.5416655 61.6249987,18.425 61.875,18.425 Z M57.5,4.575 C57.2499987,4.575 56.9708349,4.88749687 56.6625,5.5125 C56.3541651,6.1375031 56.0625014,7.0041611 55.7875,8.1125 C55.5124986,9.2208389 55.2833342,10.4499932 55.1,11.8 C56.0833382,10.9499957 56.8208309,9.9958386 57.3125,8.9375 C57.8041691,7.8791614 58.05,6.916671 58.05,6.05 C58.05,5.06666175 57.8666685,4.575 57.5,4.575 Z M69.3,12.35 C69.6833352,12.35 69.9499993,12.3999995 70.1,12.5 C70.25,12.6000005 70.325,12.7666655 70.325,13 L70.3200851,13.1275994 C70.2856809,13.6555763 70.0706542,15.0380323 69.675,17.275 L69,21.45 C68.3833302,25.7333548 67.5333387,29.1249875 66.45,31.625 C65.3666612,34.1250125 63.925009,35.375 62.125,35.375 C61.2749957,35.375 60.583336,35.1125026 60.05,34.5875 C59.516664,34.0624974 59.25,33.3750043 59.25,32.525 C59.25,31.7416628 59.4291649,30.9416708 59.7875,30.125 C60.1458351,29.3083292 60.8124951,28.3708386 61.7875,27.3125 C62.7625049,26.2541614 64.1416577,25.0416735 65.925,23.675 L66,23.1 L66.0720002,22.6979994 C66.170667,22.1193332 66.28,21.3700046 66.4,20.45 C66.066665,21.650006 65.600003,22.5624969 65,23.1875 C64.399997,23.8125031 63.76667,24.125 63.1,24.125 C62.3499962,24.125 61.7375024,23.7791701 61.2625,23.0875 C60.7874976,22.3958299 60.55,21.5333385 60.55,20.5 C60.55,19.2499937 60.6333325,18.1041719 60.8,17.0625 C60.9666675,16.0208281 61.2416647,14.9166725 61.625,13.75 C61.7916675,13.2499975 62.0249985,12.8916677 62.325,12.675 C62.6250015,12.4583322 63.0999967,12.35 63.75,12.35 C64.1166685,12.35 64.3708326,12.4083327 64.5125,12.525 C64.6541674,12.6416672 64.725,12.8166655 64.725,13.05 L64.7173612,13.1430555 C64.6918984,13.342129 64.6027785,13.7611079 64.45,14.4 C64.2833325,15.0166697 64.1500005,15.5749975 64.05,16.075 C63.916666,16.7583367 63.8000005,17.4124969 63.7,18.0375 C63.5999995,18.6625031 63.55,19.174998 63.55,19.575 C63.55,20.2083365 63.7249982,20.525 64.075,20.525 C64.3250012,20.525 64.6374981,20.2750025 65.0125,19.775 C65.3875019,19.2749975 65.7874979,18.5166717 66.2125,17.5 C66.6375021,16.4833282 67.049998,15.2333407 67.45,13.75 C67.583334,13.2499975 67.7874986,12.8916677 68.0625,12.675 C68.3375014,12.4583322 68.75,12.35 69.3,12.35 Z M65.35,26.675 C64.0666602,27.7583388 63.1375029,28.7458289 62.5625,29.6375 C61.9874971,30.5291711 61.7,31.30833 61.7,31.975 C61.7,32.2583348 61.7541661,32.4916658 61.8625,32.675 C61.9708339,32.8583342 62.1499987,32.95 62.4,32.95 C62.8166687,32.95 63.2833307,32.4666715 63.8,31.5 C64.2558846,30.6470546 64.7117632,29.2945579 65.1676464,27.442477 L65.1676464,27.442477 L65.35,26.675 Z" id="Sheety"></path>
        </g>
    </g>
</svg>