<?xml version="1.0" encoding="UTF-8"?>
<svg width="662px" height="466px" viewBox="0 0 662 466" version="1.1" xmlns="http://www.w3.org/2000/svg" xmlns:xlink="http://www.w3.org/1999/xlink">
    <!-- Generator: Sketch 52.6 (67491) - http://www.bohemiancoding.com/sketch -->
    <title>pfp-portfolio-02-portfolio-columns</title>
    <desc>Created with Sketch.</desc>
    <defs>
        <path d="M185,0 C186.65625,0 188,1.34297282 188,2.99826489 C188,4.65702718 186.65625,6 185,6 C183.340278,6 182,4.65702718 182,2.99826489 C182,1.34297282 183.340278,0 185,0 Z M185,20 C186.65625,20 188,21.3429728 188,22.9982649 C188,24.6570272 186.65625,26 185,26 C183.340278,26 182,24.6570272 182,22.9982649 C182,21.3429728 183.340278,20 185,20 Z M124,0 C125.659722,0 127,1.34297282 127,2.99826489 C127,4.65702718 125.659722,6 124,6 C122.340278,6 121,4.65702718 121,2.99826489 C121,1.34297282 122.340278,0 124,0 Z M124,20 C125.659722,20 127,21.3429728 127,22.9982649 C127,24.6570272 125.659722,26 124,26 C122.340278,26 121,24.6570272 121,22.9982649 C121,21.3429728 122.340278,20 124,20 Z M165,20 C166.659722,20 168,21.3429728 168,22.9982649 C168,24.6570272 166.659722,26 165,26 C163.34375,26 162,24.6570272 162,22.9982649 C162,21.3429728 163.34375,20 165,20 Z M145,20 C146.659722,20 148,21.3429728 148,22.9982649 C148,24.6570272 146.659722,26 145,26 C143.340278,26 142,24.6570272 142,22.9982649 C142,21.3429728 143.340278,20 145,20 Z M165,0 C166.659722,0 168,1.34297282 168,2.99826489 C168,4.65702718 166.659722,6 165,6 C163.34375,6 162,4.65702718 162,2.99826489 C162,1.34297282 163.34375,0 165,0 Z M145,0 C146.659722,0 148,1.34297282 148,2.99826489 C148,4.65702718 146.659722,6 145,6 C143.340278,6 142,4.65702718 142,2.99826489 C142,1.34297282 143.340278,0 145,0 Z M63,0 C64.6597222,0 66,1.34297282 66,2.99826489 C66,4.65702718 64.6597222,6 63,6 C61.34375,6 60,4.65702718 60,2.99826489 C60,1.34297282 61.34375,0 63,0 Z M63,20 C64.6597222,20 66,21.3429728 66,22.9982649 C66,24.6570272 64.6597222,26 63,26 C61.34375,26 60,24.6570272 60,22.9982649 C60,21.3429728 61.34375,20 63,20 Z M103,20 C104.659722,20 106,21.3429728 106,22.9982649 C106,24.6570272 104.659722,26 103,26 C101.340278,26 100,24.6570272 100,22.9982649 C100,21.3429728 101.340278,20 103,20 Z M83,20 C84.65625,20 86,21.3429728 86,22.9982649 C86,24.6570272 84.65625,26 83,26 C81.3402778,26 80,24.6570272 80,22.9982649 C80,21.3429728 81.3402778,20 83,20 Z M103,0 C104.659722,0 106,1.34297282 106,2.99826489 C106,4.65702718 104.659722,6 103,6 C101.340278,6 100,4.65702718 100,2.99826489 C100,1.34297282 101.340278,0 103,0 Z M83,0 C84.65625,0 86,1.34297282 86,2.99826489 C86,4.65702718 84.65625,6 83,6 C81.3402778,6 80,4.65702718 80,2.99826489 C80,1.34297282 81.3402778,0 83,0 Z" id="path-1"></path>
        <path d="M567,385 L0,385 L0,8 C-5.41083001e-16,3.581722 3.581722,0 8,0 L559,0 C563.418278,0 567,3.581722 567,8 L567,385 Z" id="path-3"></path>
        <filter x="-2.3%" y="-2.9%" width="104.6%" height="106.8%" filterUnits="objectBoundingBox" id="filter-4">
            <feOffset dx="0" dy="2" in="SourceAlpha" result="shadowOffsetOuter1"></feOffset>
            <feGaussianBlur stdDeviation="4" in="shadowOffsetOuter1" result="shadowBlurOuter1"></feGaussianBlur>
            <feColorMatrix values="0 0 0 0 0.11372549   0 0 0 0 0.109803922   0 0 0 0 0.223529412  0 0 0 0.1 0" type="matrix" in="shadowBlurOuter1"></feColorMatrix>
        </filter>
        <path d="M46,294 L0,294 L0,6.10909091 C-4.38973863e-17,2.73513316 0.290580621,0 0.649029982,0 L45.35097,0 C45.7094194,0 46,2.73513316 46,6.10909091 L46,294 Z" id="path-5"></path>
        <rect id="path-7" x="0.23" y="0" width="264" height="418" rx="8"></rect>
        <filter x="-4.9%" y="-2.6%" width="109.8%" height="106.2%" filterUnits="objectBoundingBox" id="filter-8">
            <feOffset dx="0" dy="2" in="SourceAlpha" result="shadowOffsetOuter1"></feOffset>
            <feGaussianBlur stdDeviation="4" in="shadowOffsetOuter1" result="shadowBlurOuter1"></feGaussianBlur>
            <feColorMatrix values="0 0 0 0 0.11372549   0 0 0 0 0.109803922   0 0 0 0 0.223529412  0 0 0 0.1 0" type="matrix" in="shadowBlurOuter1"></feColorMatrix>
        </filter>
        <path d="M43.73,0.86 C19.7056134,0.86 0.23,20.3356134 0.23,44.36 C0.23,68.3843866 19.7056134,87.86 43.73,87.86 C67.7543866,87.86 87.23,68.3843866 87.23,44.36 C87.2326533,32.8222695 82.6504828,21.7563326 74.4920751,13.5979249 C66.3336674,5.43951725 55.2677305,0.857346733 43.73,0.86 Z M43.73,73.18 C32.0675344,73.1840446 21.5513692,66.1613233 17.0864683,55.3873835 C12.6215674,44.6134437 15.0875043,32.2107222 23.3341132,23.9641132 C31.5807222,15.7175043 43.9834437,13.2515674 54.7573835,17.7164683 C65.5313233,22.1813692 72.5540446,32.6975344 72.55,44.36 C72.55,60.2768465 59.6468465,73.18 43.73,73.18 Z" id="path-9"></path>
        <path d="M43.73,0.86 C19.7056134,0.86 0.23,20.3356134 0.23,44.36 C0.23,68.3843866 19.7056134,87.86 43.73,87.86 C67.7543866,87.86 87.23,68.3843866 87.23,44.36 C87.2326533,32.8222695 82.6504828,21.7563326 74.4920751,13.5979249 C66.3336674,5.43951725 55.2677305,0.857346733 43.73,0.86 Z M43.73,73.18 C32.0675344,73.1840446 21.5513692,66.1613233 17.0864683,55.3873835 C12.6215674,44.6134437 15.0875043,32.2107222 23.3341132,23.9641132 C31.5807222,15.7175043 43.9834437,13.2515674 54.7573835,17.7164683 C65.5313233,22.1813692 72.5540446,32.6975344 72.55,44.36 C72.55,60.2768465 59.6468465,73.18 43.73,73.18 Z" id="path-11"></path>
    </defs>
    <g id="Page-1" stroke="none" stroke-width="1" fill="none" fill-rule="evenodd">
        <g id="Product_feature_page_portfolio-02" transform="translate(-671.000000, -2343.000000)">
            <g id="Section-3" transform="translate(0.000000, 2033.000000)">
                <g id="Syrvey-your-projects-from-new-perspective" transform="translate(662.000000, 310.000000)">
                    <g id="GUI-Details" transform="translate(15.000000, 0.000000)">
                        <circle id="Oval-Copy-8" fill="#FFEAB6" cx="57.5" cy="400.142857" r="56.9642857"></circle>
                        <mask id="mask-2" fill="white">
                            <use xlink:href="#path-1"></use>
                        </mask>
                        <use id="Combined-Shape" fill="#E7EBF1" xlink:href="#path-1"></use>
                    </g>
                    <g id="Syrvey_your_projects_from_new_perspective" transform="translate(49.000000, 40.000000)">
                        <g id="background-2" transform="translate(0.000000, 1.000000)">
                            <g id="Path">
                                <use fill="black" fill-opacity="1" filter="url(#filter-4)" xlink:href="#path-3"></use>
                                <use fill="#FFFFFF" fill-rule="evenodd" xlink:href="#path-3"></use>
                            </g>
                        </g>
                        <g id="scroll" transform="translate(25.000000, 369.000000)">
                            <rect id="Rectangle" fill="#F8F9FB" x="0.36" y="0.83" width="515" height="4" rx="2"></rect>
                            <rect id="Rectangle" fill="#D6DDE7" x="0.34" y="0.83" width="272" height="4" rx="2"></rect>
                        </g>
                        <path d="M8,0.61 L559,0.61 C563.418278,0.61 567,4.191722 567,8.61 L567,27.61 L0,27.61 L0,8.61 C-5.41083001e-16,4.191722 3.581722,0.61 8,0.61 Z" id="Path" fill="#484E6A"></path>
                        <circle id="Oval" fill="#FFFFFF" cx="15.04" cy="14" r="3.5"></circle>
                        <circle id="Oval" fill="#FFFFFF" cx="30.32" cy="14" r="3.5"></circle>
                        <circle id="Oval" fill="#FFFFFF" cx="45.6" cy="14" r="3.5"></circle>
                        <rect id="Rectangle" fill="#CCD5E2" x="25.83" y="47.33" width="68" height="7" rx="3.5"></rect>
                        <path d="M505.19,43 C505.732787,42.9996674 506.252398,43.2199628 506.629549,43.6103147 C507.006701,44.0006665 507.208998,44.5275454 507.19,45.07 L507.19,57.94 C507.211784,58.4841536 507.010727,59.01366 506.633267,59.4062181 C506.255807,59.7987762 505.734589,60.0204359 505.19,60.02 L448.14,60.02 C447.595411,60.0204359 447.074193,59.7987762 446.696733,59.4062181 C446.319273,59.01366 446.118216,58.4841536 446.14,57.94 L446.14,45.09 C446.121002,44.5475454 446.323299,44.0206665 446.700451,43.6303147 C447.077602,43.2399628 447.597213,43.0196674 448.14,43.02 L505.19,43.02 L505.19,43 Z M505.19,41.02 L448.14,41.02 C447.066894,41.0198357 446.038724,41.4508584 445.286534,42.2162124 C444.534343,42.9815663 444.121221,44.017058 444.14,45.09 L444.14,57.94 C444.118503,59.0146585 444.53042,60.0527478 445.282909,60.8202857 C446.035397,61.5878237 447.065127,62.020215 448.14,62.02 L505.19,62.02 C506.264873,62.020215 507.294603,61.5878237 508.047091,60.8202857 C508.79958,60.0527478 509.211497,59.0146585 509.19,57.94 L509.19,45.09 C509.208779,44.017058 508.795657,42.9815663 508.043466,42.2162124 C507.291276,41.4508584 506.263106,41.0198357 505.19,41.02 Z" id="Shape" fill="#E1E6EE" fill-rule="nonzero"></path>
                        <path d="M537.71,43 C538.814569,43 539.71,43.8954305 539.71,45 L539.71,58 C539.71,59.1045695 538.814569,60 537.71,60 L524.71,60 C523.605431,60 522.71,59.1045695 522.71,58 L522.71,45 C522.71,43.8954305 523.605431,43 524.71,43 L537.71,43 Z M537.71,41 L524.71,41 C522.500861,41 520.71,42.790861 520.71,45 L520.71,58 C520.71,60.209139 522.500861,62 524.71,62 L537.71,62 C539.919139,62 541.71,60.209139 541.71,58 L541.71,45 C541.71,42.790861 539.919139,41 537.71,41 Z" id="Shape" fill="#E1E6EE" fill-rule="nonzero"></path>
                        <path d="M353.81,62 L429.52,62 C431.379446,62.132553 433.000716,60.7473472 433.16,58.89 L433.16,44.13 C433.011018,42.2646457 431.386622,40.8678437 429.52,41 L353.81,41 C351.946797,40.8617059 350.319244,42.2484704 350.16,44.11 L350.16,58.91 C350.334602,60.7608478 351.955716,62.1332423 353.81,62 Z" id="Path" fill="#79E2AA"></path>
                        <circle id="Oval" fill="#CCD5E2" cx="531.21" cy="51.55" r="1.36"></circle>
                        <circle id="Oval" fill="#CCD5E2" cx="531.21" cy="47.01" r="1.36"></circle>
                        <circle id="Oval" fill="#CCD5E2" cx="531.21" cy="56.1" r="1.36"></circle>
                        <g id="cut-column" transform="translate(521.000000, 71.000000)">
                            <mask id="mask-6" fill="white">
                                <use xlink:href="#path-5"></use>
                            </mask>
                            <g id="Path"></g>
                            <g mask="url(#mask-6)">
                                <g transform="translate(2.000000, 5.000000)">
                                    <rect id="Rectangle" fill="#F8F9FB" x="0.73" y="0" width="157" height="282" rx="9"></rect>
                                    <path d="M157.73,9.5 L0.73,9.5 L0.73,7.86 C0.7848767,3.75950905 4.13923645,0.472147166 8.24,0.5 L150.24,0.5 C154.342441,0.472096491 157.699683,3.75790759 157.76,7.86 L157.73,9.5 Z" id="Path" fill="#78E1AC"></path>
                                    <rect id="Rectangle" fill="#D6DDE7" x="13.23" y="20.5" width="80" height="5" rx="2.3"></rect>
                                    <g id="card1" stroke-width="1" fill="none" transform="translate(9.000000, 150.000000)">
                                        <path d="M128.19,115.5 L10.26,115.5 C4.73363865,115.461594 0.270842706,110.976484 0.26,105.45 L0.26,10.55 C0.270842706,5.02351583 4.73363865,0.538405911 10.26,0.5 L128.19,0.5 C133.716361,0.538405911 138.179157,5.02351583 138.19,10.55 L138.19,105.45 C138.179157,110.976484 133.716361,115.461594 128.19,115.5 Z" id="Path" fill="#FFFFFF"></path>
                                        <rect id="Rectangle" fill="#D6DDE7" x="10.23" y="14.5" width="110" height="5" rx="2.3"></rect>
                                        <rect id="Rectangle" fill="#E7EBF1" x="11.23" y="102.5" width="118" height="3" rx="1.5"></rect>
                                        <rect id="Rectangle" fill="#78E1AC" x="11.23" y="102.5" width="118" height="3" rx="1.5"></rect>
                                        <rect id="Rectangle" fill="#E7EBF1" x="10.23" y="27.5" width="110" height="5" rx="2.3"></rect>
                                        <rect id="Rectangle" fill="#E7EBF1" x="10.23" y="40.5" width="90" height="5" rx="2.3"></rect>
                                        <rect id="Rectangle" fill="#E7EBF1" x="39.23" y="79.5" width="46" height="5" rx="2.3"></rect>
                                        <rect id="Rectangle" fill="#BAF8DD" x="10.23" y="54.5" width="31" height="5" rx="2.3"></rect>
                                        <circle id="Oval" fill="#FCD56B" cx="19.23" cy="81" r="11"></circle>
                                        <g id="character" transform="translate(10.000000, 71.000000)">
                                            <path d="M15.31,13.1 C20.38,6.18 15.66,5.95 15.85,5.95 C16.4,4.09 15.35,3.13 13.53,3.41 C13.53,2.33 12.82,1.82 11.27,1.99 C10.5549449,2.02807598 9.85464399,2.20825047 9.21,2.52 C9.45,1.15 8.81,0.52 7.68,0.52 C3.41,0.37 2.68,5.69 2.68,5.69 C0.68,5.69 -0.76,9.84 2.48,13.14 L15.31,13.1 Z" id="Path" fill="#383753"></path>
                                            <path d="M11.83,6.39 C9.56,6.39 6.05,5.83 3.96,7 C3.34,7.34 3.27,8.15 2.96,8.8 C2.53,9.8 1.17,16.8 5.57,17.89 C6.38,18.09 11.48,18.15 13.08,17.4 C13.547639,17.1794028 13.9633867,16.8624803 14.3,16.47 C15.46,15.1 15.3,12.41 15.22,10.62 C15.02,6.8 13.94,6.39 11.8,6.39 L11.83,6.39 Z" id="Path" fill="#B16D60"></path>
                                            <path d="M5.06,6.12 C6.06126943,7.38892771 7.58860958,8.12931582 9.205,8.12931582 C10.8213904,8.12931582 12.3487306,7.38892771 13.35,6.12 L5.06,6.12 Z" id="Path" fill="#383753"></path>
                                            <path d="M6.58,12.51 C6.45771641,12.5192004 6.34517858,12.580173 6.27068745,12.6775845 C6.19619632,12.774996 6.16683964,12.8995777 6.19,13.02 C6.21581896,13.1212155 6.28116159,13.2078433 6.37138904,13.2604759 C6.46161649,13.3131086 6.56918652,13.3273466 6.67,13.3 C6.81093519,13.2583837 6.92350513,13.1519365 6.97293015,13.0135465 C7.02235518,12.8751564 7.00268614,12.721481 6.92,12.6 C6.8259428,12.5204446 6.70109895,12.4873977 6.58,12.51 Z" id="Path" fill="#813F31"></path>
                                            <path d="M11.77,12.5 C11.6457684,12.5412062 11.5456336,12.6344597 11.4957018,12.7554483 C11.4457699,12.876437 11.4509896,13.0131701 11.51,13.13 C11.6347599,13.3299366 11.8948985,13.3960736 12.1,13.28 C12.2223932,13.2081879 12.2975772,13.0769052 12.2975772,12.935 C12.2975772,12.7930948 12.2223932,12.6618121 12.1,12.59 C11.9985566,12.494177 11.8536461,12.4598561 11.72,12.5 L11.77,12.5 Z" id="Path" fill="#813F31"></path>
                                            <path d="M9.27,14.28 L9,14.28 C8.90058875,14.28 8.82,14.1994113 8.82,14.1 C8.82,14.0005887 8.90058875,13.92 9,13.92 C9.30205552,13.9630563 9.61013421,13.9215176 9.89,13.8 L9.51,11.39 C9.49343148,11.2905888 9.56058877,11.1965686 9.66000001,11.18 C9.75941125,11.1634315 9.85343144,11.2305888 9.87,11.33 L10.27,13.87 C10.2791021,13.9380369 10.2526766,14.0059882 10.2,14.05 C9.91665527,14.2097404 9.59513934,14.2892551 9.27,14.28 Z" id="Path" fill="#813F31" opacity="0.4"></path>
                                            <path d="M9.16,16 C8.66668271,16.0012161 8.18368709,15.8587497 7.77,15.59 C7.70141875,15.5169008 7.70141875,15.4030992 7.77,15.33 C7.83974188,15.2626911 7.95025812,15.2626911 8.02,15.33 C8.49011383,15.6347025 9.05985421,15.745784 9.61,15.64 C9.65782903,15.631344 9.70712574,15.6423991 9.74667806,15.6706507 C9.78623038,15.6989024 9.81267596,15.741949 9.82,15.79 C9.83183286,15.8366285 9.82335616,15.8860873 9.79667148,15.9261143 C9.76998681,15.9661413 9.72759279,15.9929886 9.68,16 C9.50710557,16.0174443 9.33289443,16.0174443 9.16,16 Z" id="Path" fill="#813F31"></path>
                                            <path d="M5.22,11.38 C5.11472736,11.3808042 5.01502016,11.3327971 4.95,11.25 C4.87909448,11.1820949 4.83899799,11.0881769 4.83899799,10.99 C4.83899799,10.8918231 4.87909448,10.7979051 4.95,10.73 C5.4444262,10.2906039 6.07020939,10.0269312 6.73,9.98 C6.93434536,9.98 7.1,10.1456546 7.1,10.35 C7.1,10.5543454 6.93434536,10.72 6.73,10.72 C6.23300183,10.7503817 5.76082689,10.9477085 5.39,11.28 C5.34409111,11.3289406 5.28508115,11.3636523 5.22,11.38 Z" id="Path" fill="#383753"></path>
                                            <path d="M13.37,11.38 C13.2796862,11.3809142 13.1929446,11.3447719 13.13,11.28 C12.7552667,10.9476479 12.2799539,10.7504811 11.78,10.72 C11.5756547,10.7034314 11.4234315,10.5243453 11.4400001,10.32 C11.4565686,10.1156547 11.6356547,9.96343149 11.84,9.98 C12.4997906,10.0269312 13.1255738,10.2906039 13.62,10.73 C13.7571625,10.8761984 13.7571625,11.1038016 13.62,11.25 C13.557075,11.3246112 13.467218,11.3713369 13.37,11.38 Z" id="Path" fill="#383753"></path>
                                        </g>
                                    </g>
                                    <g id="card1-2" stroke-width="1" fill="none" transform="translate(9.000000, 39.000000)">
                                        <path d="M128.19,102.5 L10.26,102.5 C4.73363865,102.461594 0.270842706,97.9764842 0.26,92.45 L0.26,10.55 C0.270842706,5.02351583 4.73363865,0.538405911 10.26,0.5 L128.19,0.5 C133.716361,0.538405911 138.179157,5.02351583 138.19,10.55 L138.19,92.45 C138.179157,97.9764842 133.716361,102.461594 128.19,102.5 Z" id="Path" fill="#FFFFFF"></path>
                                        <rect id="Rectangle" fill="#D6DDE7" x="10.23" y="14.5" width="110" height="5" rx="2.3"></rect>
                                        <rect id="Rectangle" fill="#E7EBF1" x="11.23" y="88.5" width="118" height="3" rx="1.5"></rect>
                                        <rect id="Rectangle" fill="#78E1AC" x="11.23" y="88.5" width="118" height="3" rx="1.5"></rect>
                                        <rect id="Rectangle" fill="#E7EBF1" x="10.23" y="27.5" width="110" height="5" rx="2.3"></rect>
                                        <rect id="Rectangle" fill="#E7EBF1" x="39.23" y="65.5" width="46" height="5" rx="2.3"></rect>
                                        <rect id="Rectangle" fill="#BAF8DD" x="10.23" y="40.5" width="31" height="5" rx="2.3"></rect>
                                        <circle id="Oval" fill="#FCD56B" cx="19.23" cy="67" r="11"></circle>
                                        <g id="character-2" transform="translate(10.000000, 57.000000)">
                                            <path d="M15.31,13.1 C20.38,6.18 15.66,5.95 15.85,5.95 C16.4,4.09 15.35,3.13 13.53,3.41 C13.53,2.33 12.82,1.82 11.27,1.99 C10.5549449,2.02807598 9.85464399,2.20825047 9.21,2.52 C9.45,1.15 8.81,0.52 7.68,0.52 C3.41,0.37 2.68,5.69 2.68,5.69 C0.68,5.69 -0.76,9.84 2.48,13.14 L15.31,13.1 Z" id="Path" fill="#383753"></path>
                                            <path d="M11.83,6.39 C9.56,6.39 6.05,5.83 3.96,7 C3.34,7.34 3.27,8.15 2.96,8.8 C2.53,9.8 1.17,16.8 5.57,17.89 C6.38,18.09 11.48,18.15 13.08,17.4 C13.547639,17.1794028 13.9633867,16.8624803 14.3,16.47 C15.46,15.1 15.3,12.41 15.22,10.62 C15.02,6.8 13.94,6.39 11.8,6.39 L11.83,6.39 Z" id="Path" fill="#B16D60"></path>
                                            <path d="M5.06,6.12 C6.06126943,7.38892771 7.58860958,8.12931582 9.205,8.12931582 C10.8213904,8.12931582 12.3487306,7.38892771 13.35,6.12 L5.06,6.12 Z" id="Path" fill="#383753"></path>
                                            <path d="M6.58,12.51 C6.45771641,12.5192004 6.34517858,12.580173 6.27068745,12.6775845 C6.19619632,12.774996 6.16683964,12.8995777 6.19,13.02 C6.21581896,13.1212155 6.28116159,13.2078433 6.37138904,13.2604759 C6.46161649,13.3131086 6.56918652,13.3273466 6.67,13.3 C6.81093519,13.2583837 6.92350513,13.1519365 6.97293015,13.0135465 C7.02235518,12.8751564 7.00268614,12.721481 6.92,12.6 C6.8259428,12.5204446 6.70109895,12.4873977 6.58,12.51 Z" id="Path" fill="#813F31"></path>
                                            <path d="M11.77,12.5 C11.6457684,12.5412062 11.5456336,12.6344597 11.4957018,12.7554483 C11.4457699,12.876437 11.4509896,13.0131701 11.51,13.13 C11.6347599,13.3299366 11.8948985,13.3960736 12.1,13.28 C12.2223932,13.2081879 12.2975772,13.0769052 12.2975772,12.935 C12.2975772,12.7930948 12.2223932,12.6618121 12.1,12.59 C11.9985566,12.494177 11.8536461,12.4598561 11.72,12.5 L11.77,12.5 Z" id="Path" fill="#813F31"></path>
                                            <path d="M9.27,14.28 L9,14.28 C8.90058875,14.28 8.82,14.1994113 8.82,14.1 C8.82,14.0005887 8.90058875,13.92 9,13.92 C9.30205552,13.9630563 9.61013421,13.9215176 9.89,13.8 L9.51,11.39 C9.49343148,11.2905888 9.56058877,11.1965686 9.66000001,11.18 C9.75941125,11.1634315 9.85343144,11.2305888 9.87,11.33 L10.27,13.87 C10.2791021,13.9380369 10.2526766,14.0059882 10.2,14.05 C9.91665527,14.2097404 9.59513934,14.2892551 9.27,14.28 Z" id="Path" fill="#813F31" opacity="0.4"></path>
                                            <path d="M9.16,16 C8.66668271,16.0012161 8.18368709,15.8587497 7.77,15.59 C7.70141875,15.5169008 7.70141875,15.4030992 7.77,15.33 C7.79647276,15.2901578 7.83771575,15.2624915 7.88462205,15.2531103 C7.93152836,15.243729 7.98023968,15.2534044 8.02,15.28 C8.49011383,15.5847025 9.05985421,15.695784 9.61,15.59 C9.65782903,15.581344 9.70712574,15.5923991 9.74667806,15.6206507 C9.78623038,15.6489024 9.81267596,15.691949 9.82,15.74 C9.83183286,15.7866285 9.82335616,15.8360873 9.79667148,15.8761143 C9.76998681,15.9161413 9.72759279,15.9429886 9.68,15.95 C9.50879476,15.9841493 9.33457547,16.0009011 9.16,16 Z" id="Path" fill="#813F31"></path>
                                            <path d="M5.22,11.38 C5.11472736,11.3808042 5.01502016,11.3327971 4.95,11.25 C4.87909448,11.1820949 4.83899799,11.0881769 4.83899799,10.99 C4.83899799,10.8918231 4.87909448,10.7979051 4.95,10.73 C5.4444262,10.2906039 6.07020939,10.0269312 6.73,9.98 C6.93434536,9.98 7.1,10.1456546 7.1,10.35 C7.1,10.5543454 6.93434536,10.72 6.73,10.72 C6.23300183,10.7503817 5.76082689,10.9477085 5.39,11.28 C5.34409111,11.3289406 5.28508115,11.3636523 5.22,11.38 Z" id="Path" fill="#383753"></path>
                                            <path d="M13.37,11.38 C13.2796862,11.3809142 13.1929446,11.3447719 13.13,11.28 C12.7552667,10.9476479 12.2799539,10.7504811 11.78,10.72 C11.5756546,10.7034315 11.4234315,10.5243454 11.44,10.32 C11.4565685,10.1156546 11.6356546,9.96343146 11.84,9.98 C12.4997906,10.0269312 13.1255738,10.2906039 13.62,10.73 C13.7571625,10.8761984 13.7571625,11.1038016 13.62,11.25 C13.557075,11.3246112 13.467218,11.3713369 13.37,11.38 Z" id="Path" fill="#383753"></path>
                                        </g>
                                    </g>
                                </g>
                            </g>
                        </g>
                        <rect id="Rectangle" fill="#F8F9FB" x="192.73" y="76" width="157" height="282" rx="9"></rect>
                        <path d="M349.72,85.5 L192.72,85.5 L192.72,83.86 C192.774877,79.7595091 196.129236,76.4721472 200.23,76.5 L342.23,76.5 C346.334652,76.4666186 349.695112,79.7555796 349.75,83.86 L349.72,85.5 Z" id="Path" fill="#4CA2F8"></path>
                        <rect id="Rectangle" fill="#D6DDE7" x="202.23" y="96.5" width="80" height="5" rx="2.3"></rect>
                        <g id="card1-3" transform="translate(202.000000, 115.000000)">
                            <path d="M128.19,115.5 L10.26,115.5 C4.73363865,115.461594 0.270842706,110.976484 0.26,105.45 L0.26,10.55 C0.270842706,5.02351583 4.73363865,0.538405911 10.26,0.5 L128.19,0.5 C133.716361,0.538405911 138.179157,5.02351583 138.19,10.55 L138.19,105.45 C138.179157,110.976484 133.716361,115.461594 128.19,115.5 Z" id="Path" fill="#FFFFFF"></path>
                            <rect id="Rectangle" fill="#D6DDE7" x="10.23" y="14.5" width="110" height="5" rx="2.3"></rect>
                            <rect id="Rectangle" fill="#E7EBF1" x="11.23" y="102.5" width="118" height="3" rx="1.5"></rect>
                            <rect id="Rectangle" fill="#78E1AC" x="11.23" y="102.5" width="44" height="3" rx="1.5"></rect>
                            <rect id="Rectangle" fill="#E7EBF1" x="10.23" y="27.5" width="110" height="5" rx="2.3"></rect>
                            <rect id="Rectangle" fill="#E7EBF1" x="10.23" y="40.5" width="90" height="5" rx="2.3"></rect>
                            <rect id="Rectangle" fill="#E7EBF1" x="39.23" y="79.5" width="46" height="5" rx="2.3"></rect>
                            <rect id="Rectangle" fill="#A3E0FC" x="10.23" y="54.5" width="31" height="5" rx="2.3"></rect>
                            <circle id="Oval" fill="#79E2AA" cx="19.23" cy="81" r="11"></circle>
                            <g id="head" transform="translate(4.000000, 71.000000)">
                                <path d="M15.1,0.73 C10.36,1.11 8.71,2.87 8.47,7.73 C8.25,12.34 10.03,12.84 15.02,12.66 C18.86,12.52 21.33,12.17 21.29,8 C21.24,3.16 19,0.41 15.1,0.73 Z" id="Path" fill="#F9BBA5"></path>
                                <path d="M14.87,8.57 C14.78913,8.56472457 14.7217572,8.50605633 14.7054149,8.42667929 C14.6890725,8.34730226 14.7277909,8.26679172 14.8,8.23 C14.987703,8.13097268 15.1652224,8.0137429 15.33,7.88 C15.1364564,7.4672824 14.9125062,7.06952017 14.66,6.69 C14.6139939,6.61013471 14.6357497,6.50842075 14.7104008,6.45436305 C14.7850519,6.40030534 14.8884762,6.41137167 14.95,6.48 C15.2390019,6.91772428 15.4963251,7.37555909 15.72,7.85 C15.7518141,7.92333666 15.7314492,8.00886889 15.67,8.06 C15.4511559,8.25987076 15.2054447,8.42816614 14.94,8.56 L14.87,8.57 Z" id="Path" fill="#D26E63" opacity="0.4"></path>
                                <path d="M8.36,15.91 C9.9,18.67 14.36,19.35 17.52,18.85 C26.52,17.38 21.4,5.71 20.9,5.09 C20.6,4.72 19.98,4.74 19.79,5.57 C19.64,6.24 20.23,8.97 20.12,9.29 C19.83,10.12 17.49,10.4 16.61,10.5 C13.84,10.82 10.61,10.76 9.99,10.16 C9.37,9.56 9.48,8.16 9.57,6.66 C9.62,5.93 8.72,5.18 8.28,6.56 C8.12,7.08 7.13,13.69 8.36,15.91 Z" id="Path" fill="#B16D60"></path>
                                <path d="M12.36,8.74 C12.85,8.27 16.36,8.1 17,8.43 C17.9088384,8.95766853 18.505296,9.89336132 18.6,10.94 C18.54,11.14 12.6,11.89 11.66,10.94 C11.21,10.47 12.24,8.86 12.36,8.74 Z" id="Path" fill="#B16D60"></path>
                                <g id="Group" transform="translate(0.000000, 4.000000)" fill="#FFFFFF" opacity="0.1">
                                    <path d="M6.82,15.15 C6.68672559,15.1473771 6.5737778,15.0511624 6.55,14.92 C6.53856741,14.8482695 6.5565183,14.7749581 6.59979814,14.7166244 C6.64307797,14.6582907 6.70803589,14.6198555 6.78,14.61 C10.7132371,14.0227401 14.5257192,12.8036913 18.07,11 C20.5369119,9.81208407 22.7508752,8.15840295 24.59,6.13 C24.6838884,6.01402021 24.8540202,5.9961116 24.97,6.09000001 C25.0859798,6.18388841 25.1038884,6.3540202 25.01,6.47 C22.39,9.73 15.59,13.84 6.86,15.17 L6.82,15.15 Z" id="Path"></path>
                                    <path d="M5.91,13.06 L5.82,13.06 C5.67088312,13.06 5.55,12.9391169 5.55,12.79 C5.5553863,12.639279 5.6791828,12.5199038 5.83,12.52 L5.91,12.52 C9.81979448,12.4481166 13.6428646,11.3553184 17,9.35 C19.24,8.04 22,5.89 23.14,4.02 C23.2213944,3.89204526 23.3898613,3.8521452 23.52,3.93 C23.6466691,4.00758003 23.6868838,4.17290709 23.61,4.3 C21.9419492,6.59636949 19.7740797,8.48385213 17.27,9.82 C13.8299912,11.8705988 9.91416666,12.9874361 5.91,13.06 Z" id="Path"></path>
                                    <path d="M4,9.25 C3.45,9.25 2.9,9.25 2.33,9.25 C2.2574344,9.25021504 2.18808079,9.22009426 2.13870323,9.16691843 C2.08932567,9.11374259 2.06441769,9.04235089 2.07,8.97 C2.07538135,8.8248023 2.19470264,8.70990031 2.34,8.71 C11.71,8.95 18.34,7.19 23.25,3.17 C23.3605898,3.06953451 23.5294102,3.06953451 23.64,3.17 C23.7391071,3.27728069 23.7391071,3.44271931 23.64,3.55 C18.93,7.43 12.67,9.25 4,9.25 Z" id="Path"></path>
                                    <path d="M0.77,8.3 C0.624702644,8.30009969 0.505381351,8.1851977 0.5,8.04 C0.494494596,7.96834602 0.517782253,7.8974537 0.564705871,7.8430223 C0.611629489,7.78859091 0.678316887,7.75511216 0.75,7.75 C15.65,6.85 17.87,5.14 23.25,1 L23.71,0.65 C23.7868121,0.591051169 23.8892382,0.577558973 23.9786955,0.614605793 C24.0681527,0.651652613 24.1310504,0.733610154 24.1436955,0.829605802 C24.1563406,0.92560145 24.1168121,1.02105118 24.04,1.08 L23.58,1.43 C18.11,5.64 15.85,7.38 0.78,8.29 L0.77,8.3 Z" id="Path"></path>
                                    <path d="M3.86,4.56 C3.19,4.56 2.51,4.56 1.86,4.51 C1.78831689,4.50488784 1.72162949,4.47140909 1.67470587,4.4169777 C1.62778225,4.3625463 1.6044946,4.29165398 1.61,4.22 C1.61251191,4.14918647 1.64381678,4.08246577 1.69667248,4.03527318 C1.74952818,3.98808058 1.81935533,3.96450484 1.89,3.97 C10.73,4.4 20.34,1.64 22.2,0.31 C22.2593959,0.26802264 22.3332155,0.251783704 22.4047442,0.264960051 C22.4762729,0.278136397 22.5394606,0.319613492 22.58,0.38 C22.62151,0.437797207 22.6375171,0.510082012 22.6242893,0.580000675 C22.6110614,0.649919338 22.5697547,0.711360971 22.51,0.75 C20.8,2 12.52,4.56 3.86,4.56 Z" id="Path"></path>
                                    <path d="M15.3,15.92 C15.1929283,15.9188566 15.0958844,15.8567486 15.05,15.76 C14.9931773,15.6218669 15.0547834,15.4634512 15.19,15.4 C18.636122,13.9031427 21.7448124,11.7263792 24.33,9 C24.4349439,8.90848667 24.5922692,8.91178688 24.693283,9.00762057 C24.7942969,9.10345426 24.8058671,9.26038823 24.72,9.37 C22.0852298,12.1481141 18.9192806,14.3686994 15.41,15.9 C15.3756674,15.9160278 15.3377772,15.922917 15.3,15.92 Z" id="Path"></path>
                                </g>
                                <path d="M20.9,5.09 C20.6,4.72 19.98,4.74 19.79,5.57 C19.64,6.24 20.23,8.97 20.12,9.29 C20.01,9.61 19.24,10.01 18.46,10.2 C18.1923958,9.45906787 17.676509,8.83364349 17,8.43 C16.36,8.1 12.85,8.27 12.36,8.74 C11.9430318,9.28882346 11.6651174,9.93042831 11.55,10.61 C10.9985228,10.6062387 10.4587537,10.4505361 9.99,10.16 C9.35,9.57 9.48,8.16 9.57,6.66 C9.62,5.93 8.72,5.18 8.28,6.56 C8.12,7.08 7.13,13.69 8.36,15.91 C9.9,18.67 14.36,19.35 17.52,18.85 C26.5,17.38 21.4,5.71 20.9,5.09 Z" id="Path"></path>
                                <path d="M14.8,10.66 C14.5050814,10.6688997 14.215908,10.5772105 13.98,10.4 C13.7291218,10.206948 13.5844663,9.90650957 13.59,9.59 C13.59,9.49058875 13.6705887,9.41 13.77,9.41 C13.8694113,9.41 13.95,9.49058875 13.95,9.59 C13.9420547,9.79460719 14.030986,9.99099702 14.19,10.12 C14.3703894,10.2404401 14.5831225,10.3032139 14.8,10.3 C15.0405519,10.3279646 15.2822232,10.2578063 15.4704062,10.105378 C15.6585893,9.95294978 15.7774028,9.73111533 15.8,9.49 C15.8,9.39058875 15.8805887,9.31 15.98,9.31 C16.0794113,9.31 16.16,9.39058875 16.16,9.49 C16.1397332,9.82739825 15.9836925,10.1422071 15.7274583,10.3626438 C15.4712241,10.5830806 15.1366408,10.6903527 14.8,10.66 Z" id="Path" fill="#60342B"></path>
                                <path d="M10.9,8.06 C10.7989889,8.04948078 10.7241086,7.96138634 10.73,7.86 C10.7299699,7.36130036 11.1313305,6.95548021 11.63,6.95 C12.0971356,6.9492454 12.4834588,7.31361841 12.51,7.78 C12.5156096,7.82779606 12.5018463,7.87584812 12.4717834,7.91342674 C12.4417205,7.95100537 12.3978617,7.97498093 12.35,7.98 C12.2486137,7.98589138 12.1605192,7.91101111 12.15,7.81 C12.1392479,7.53065128 11.9095555,7.30979315 11.63,7.31 C11.39,7.31 11.13,7.46 11.09,7.89 C11.0874203,7.93776562 11.0659338,7.98253991 11.030285,8.0144362 C10.9946362,8.04633248 10.9477574,8.06272712 10.9,8.06 Z" id="Path" fill="#C1564D"></path>
                                <path d="M17.23,8.06 C17.1289889,8.04948078 17.0541086,7.96138634 17.06,7.86 C17.0599699,7.36130036 17.4613305,6.95548021 17.96,6.95 C18.4271356,6.9492454 18.8134588,7.31361841 18.84,7.78 C18.8456096,7.82779606 18.8318463,7.87584812 18.8017834,7.91342674 C18.7717205,7.95100537 18.7278617,7.97498093 18.68,7.98 C18.5786137,7.98589138 18.4905192,7.91101111 18.48,7.81 C18.4692479,7.53065128 18.2395555,7.30979315 17.96,7.31 C17.72,7.31 17.46,7.46 17.42,7.89 C17.4174203,7.93776562 17.3959338,7.98253991 17.360285,8.0144362 C17.3246362,8.04633248 17.2777574,8.06272712 17.23,8.06 Z" id="Path" fill="#C1564D"></path>
                                <path d="M10.09,5.76 C9.96521722,5.75849631 9.85772246,5.67167362 9.83,5.55 C9.81210769,5.48091987 9.82339446,5.40752222 9.86121499,5.34700937 C9.89903552,5.28649651 9.96006506,5.24418809 10.03,5.23 L12.33,4.67 C12.4003256,4.65195554 12.474955,4.66299425 12.5370455,4.70062487 C12.5991361,4.73825549 12.6434549,4.7993066 12.66,4.87 C12.6868088,5.01482827 12.6007955,5.15675009 12.46,5.2 L10.16,5.75 L10.09,5.76 Z" id="Path" fill="#955343"></path>
                                <path d="M19.26,5.36 L16.92,4.9 C16.8213191,4.88634804 16.7381733,4.81946681 16.7036909,4.72600422 C16.6692085,4.63254163 16.6889928,4.52768503 16.7551609,4.45321311 C16.8213291,4.37874119 16.9231291,4.34675538 17.02,4.37 L19.36,4.82 C19.4322085,4.83209501 19.4964093,4.8729957 19.5378874,4.93332745 C19.5793654,4.99365919 19.5945642,5.0682488 19.58,5.14 C19.5497746,5.28740394 19.4084526,5.38456282 19.26,5.36 Z" id="Path" fill="#955343"></path>
                            </g>
                        </g>
                        <g id="add-icon" transform="translate(336.000000, 344.000000)" fill="#4CA2F8">
                            <circle id="Oval" cx="3.23" cy="3" r="3"></circle>
                        </g>
                        <rect id="Rectangle" fill="#F8F9FB" x="358.73" y="76" width="157" height="282" rx="9"></rect>
                        <path d="M515.73,85.5 L358.73,85.5 L358.73,83.86 C358.784877,79.7595091 362.139236,76.4721472 366.24,76.5 L508.24,76.5 C512.342441,76.4720965 515.699683,79.7579076 515.76,83.86 L515.73,85.5 Z" id="Path" fill="#6A84ED"></path>
                        <rect id="Rectangle" fill="#D6DDE7" x="370.45" y="96.5" width="79.57" height="5" rx="2.3"></rect>
                        <g id="add-icon-2" transform="translate(501.000000, 344.000000)" fill="#6A84ED">
                            <circle id="Oval" cx="3.23" cy="3" r="3"></circle>
                        </g>
                        <g id="card1-4" transform="translate(369.000000, 115.000000)">
                            <path d="M128.19,102.5 L10.26,102.5 C4.73363865,102.461594 0.270842706,97.9764842 0.26,92.45 L0.26,10.55 C0.270842706,5.02351583 4.73363865,0.538405911 10.26,0.5 L128.19,0.5 C133.716361,0.538405911 138.179157,5.02351583 138.19,10.55 L138.19,92.45 C138.179157,97.9764842 133.716361,102.461594 128.19,102.5 Z" id="Path" fill="#FFFFFF"></path>
                            <rect id="Rectangle" fill="#D6DDE7" x="10.23" y="14.5" width="110" height="5" rx="2.3"></rect>
                            <rect id="Rectangle" fill="#E7EBF1" x="11.23" y="88.5" width="118" height="3" rx="1.5"></rect>
                            <rect id="Rectangle" fill="#78E1AC" x="11.23" y="88.5" width="88" height="3" rx="1.5"></rect>
                            <rect id="Rectangle" fill="#E7EBF1" x="10.23" y="27.5" width="110" height="5" rx="2.3"></rect>
                            <rect id="Rectangle" fill="#E7EBF1" x="39.23" y="65.5" width="46" height="5" rx="2.3"></rect>
                            <rect id="Rectangle" fill="#D4C8FB" x="10.23" y="40.5" width="31" height="5" rx="2.3"></rect>
                            <circle id="Oval" fill="#FD7E98" cx="19.23" cy="65" r="11"></circle>
                            <g id="character-3" transform="translate(11.000000, 56.000000)">
                                <path d="M2.85,15.66 C5.89041707,16.6349761 9.15958293,16.6349761 12.2,15.66 C15.05,14.47 15.41,13.58 15.08,7.66 C14.72,1.15 11.02,2.27 3.97,2.36 C2.03,2.36 0.97,5.73 0.97,8.63 C1,10.84 1,14.94 2.85,15.66 Z" id="Path" fill="#F9BBA5"></path>
                                <path d="M2.5,2.45 C1.42,2.96 -0.06,7.89 1.03,10.21 C1.03,10.21 8.03,9.14 11.65,5.48 C12.65,6.35 13.81,8.19 15.07,8.63 C15.07,8.63 16.22,2.1 11.26,2.12 C11.26,2.12 8,-0.21 2.5,2.45 Z" id="Path" fill="#3F4164"></path>
                                <path d="M11.24,2.43 L11.18,2.43 C11.0988622,2.40311799 11.0456627,2.32536495 11.05,2.24 C11.0839552,1.85223945 11.0040216,1.46299744 10.82,1.12 C10.7761529,1.02318664 10.8156834,0.908987448 10.91,0.86 C10.9549587,0.835475952 11.0079136,0.830139549 11.0568614,0.845200403 C11.1058092,0.860261256 11.1466044,0.894443867 11.17,0.94 C11.30302,1.19919946 11.3877349,1.48045267 11.42,1.77 C11.6427299,1.61685485 11.8894504,1.50194394 12.15,1.43 C12.2474115,1.4031355 12.3488088,1.45721643 12.380763,1.553079 C12.4127172,1.64894157 12.3640479,1.7530447 12.27,1.79 C11.9224189,1.86675447 11.6137994,2.0654061 11.4,2.35 C11.3633412,2.40167582 11.3033359,2.43167844 11.24,2.43 Z" id="Path" fill="#3F4164"></path>
                                <path d="M8.22,11.58 C8.14167733,11.5787016 8.07132261,11.5317985 8.04,11.46 C8.01999963,11.413599 8.01930551,11.3611425 8.03807111,11.3142284 C8.05683672,11.2673144 8.09351625,11.2298074 8.14,11.21 C8.33912077,11.1066383 8.52681965,10.9826229 8.7,10.84 C8.49908467,10.3976477 8.26159339,9.97283936 7.99,9.57 C7.92648725,9.48439586 7.94439586,9.36351275 8.03,9.3 C8.11560414,9.23648725 8.23648725,9.25439586 8.3,9.34 C8.61470746,9.80400137 8.88586046,10.2960939 9.11,10.81 C9.16002924,10.8748006 9.16002924,10.9651994 9.11,11.03 C8.87487433,11.2407569 8.61253397,11.4190138 8.33,11.56 L8.22,11.58 Z" id="Path" fill="#D26E63" opacity="0.4"></path>
                                <path d="M8.14,14.19 C7.82542426,14.1958265 7.51717708,14.1012506 7.26,13.92 C6.98960032,13.7133029 6.83366465,13.3902933 6.84,13.05 C6.83992769,12.9978274 6.8613123,12.9479206 6.89913742,12.9119868 C6.93696254,12.8760529 6.98789969,12.857254 7.04,12.86 C7.1449341,12.86 7.23,12.9450659 7.23,13.05 C7.22036946,13.2678553 7.31736467,13.4767681 7.49,13.61 C7.6800632,13.7427021 7.90838672,13.8094429 8.14,13.8 C8.67,13.8 9.2,13.51 9.2,12.94 C9.20533326,12.8334666 9.2933333,12.7498666 9.4,12.75 C9.50278184,12.7550226 9.58497742,12.8372182 9.59,12.94 C9.56708629,13.2994344 9.40044551,13.6345129 9.12765369,13.8696783 C8.85486187,14.1048436 8.49888761,14.2202953 8.14,14.19 Z" id="Path" fill="#60342B"></path>
                                <path d="M4,11 C3.94949422,10.9949664 3.903102,10.9699342 3.87116641,10.9304843 C3.83923083,10.8910345 3.82440704,10.8404469 3.83,10.79 C3.82933294,10.2566665 4.24733315,9.81666628 4.78,9.79 C5.27284598,9.81172526 5.6762129,10.1896164 5.73,10.68 C5.70926052,10.7710016 5.62833496,10.835559 5.535,10.835559 C5.44166504,10.835559 5.36073948,10.7710016 5.34,10.68 C5.3292274,10.378558 5.08163439,10.1398076 4.78,10.14 C4.53,10.14 4.25,10.3 4.21,10.76 C4.22761471,10.8219512 4.2126456,10.8886082 4.17023343,10.9370793 C4.12782126,10.9855503 4.06374124,11.0092352 4,11 Z" id="Path" fill="#C1564D"></path>
                                <path d="M10.73,11 C10.6777019,10.9975414 10.6287361,10.9736115 10.5946634,10.93386 C10.5605907,10.8941085 10.5444311,10.8420588 10.55,10.79 C10.5493329,10.2566665 10.9673332,9.81666628 11.5,9.79 C12.0002322,9.78929186 12.4133924,10.1804755 12.44,10.68 C12.4455689,10.7320588 12.4294093,10.7841085 12.3953366,10.82386 C12.3612639,10.8636115 12.3122981,10.8875414 12.26,10.89 C12.1586137,10.8958914 12.0705192,10.8210111 12.06,10.72 C12.0492274,10.418558 11.8016344,10.1798076 11.5,10.18 C11.25,10.18 10.97,10.34 10.94,10.8 C10.9400686,10.8548223 10.9176301,10.9072693 10.8779312,10.9450778 C10.8382323,10.9828862 10.7847537,11.0027412 10.73,11 Z" id="Path" fill="#C1564D"></path>
                                <path d="M12.51,8.78 L12.46,8.78 L9.96,8.29 C9.88437964,8.27547653 9.81764004,8.23147446 9.77449487,8.16769465 C9.7313497,8.10391483 9.71534168,8.02559434 9.73,7.95 C9.74452347,7.87437964 9.78852554,7.80764004 9.85230535,7.76449487 C9.91608517,7.7213497 9.99440566,7.70534168 10.07,7.72 L12.57,8.21 C12.7082439,8.2465876 12.7991801,8.37848848 12.7842098,8.52070629 C12.7692395,8.66292411 12.6528321,8.77299934 12.51,8.78 Z" id="Path" fill="#3F4164"></path>
                                <g id="Group" opacity="0.2" transform="translate(2.000000, 3.000000)" fill="#FFFFFF">
                                    <path d="M2,1.53 C1.50135916,1.5285582 1.00344664,1.49179956 0.51,1.42 C0.44211953,1.40928204 0.385113353,1.36316444 0.360455149,1.29901924 C0.335796945,1.23487405 0.347232881,1.16244645 0.390455151,1.10901923 C0.433677422,1.055592 0.502119533,1.02928202 0.57,1.04 C2.59191657,1.3266503 4.65336982,1.00280713 6.49,0.11 C6.58698812,0.0711432644 6.69778999,0.10949776 6.75,0.2 C6.77384159,0.246200541 6.77771002,0.300152665 6.76070369,0.349282048 C6.74369737,0.39841143 6.70730198,0.438426079 6.66,0.46 C5.20714347,1.16326699 3.61411761,1.52904761 2,1.53 Z" id="Path"></path>
                                    <path d="M2.42,3.87 C2.31506592,3.86999996 2.23000006,3.78493408 2.23000006,3.68 C2.23000006,3.57506592 2.31506592,3.49000004 2.42,3.49 C3.84416496,3.22558084 5.20295024,2.6854637 6.42,1.9 C6.45395256,1.86454724 6.50091156,1.844499 6.55,1.844499 C6.59908844,1.844499 6.64604744,1.86454724 6.68,1.9 C6.71031572,1.9420668 6.7221218,1.99469608 6.71268005,2.04568149 C6.70323831,2.0966669 6.6733691,2.14157853 6.63,2.17 C5.3811563,2.98362014 3.98476327,3.54421588 2.52,3.82 L2.42,3.87 Z" id="Path"></path>
                                    <path d="M11.84,2.82 C11.7980147,2.83528572 11.7519853,2.83528572 11.71,2.82 C11.1930615,2.34019917 10.7928363,1.74841329 10.54,1.09 C10.5013401,0.990588745 10.5505887,0.878659932 10.65,0.84 C10.7494113,0.801340068 10.8613401,0.850588745 10.9,0.95 C11.1300732,1.55212221 11.4962813,2.09287822 11.97,2.53 C12.0462286,2.6077687 12.0462286,2.7322313 11.97,2.81 C11.9290003,2.82776125 11.8832338,2.83128174 11.84,2.82 Z" id="Path"></path>
                                </g>
                            </g>
                        </g>
                        <g id="card1-5" transform="translate(369.000000, 226.000000)">
                            <path d="M128.19,102.5 L10.26,102.5 C4.73363865,102.461594 0.270842706,97.9764842 0.26,92.45 L0.26,10.55 C0.270842706,5.02351583 4.73363865,0.538405911 10.26,0.5 L128.19,0.5 C133.716361,0.538405911 138.179157,5.02351583 138.19,10.55 L138.19,92.45 C138.179157,97.9764842 133.716361,102.461594 128.19,102.5 Z" id="Path" fill="#FFFFFF"></path>
                            <rect id="Rectangle" fill="#D6DDE7" x="10.23" y="14.5" width="110" height="5" rx="2.3"></rect>
                            <rect id="Rectangle" fill="#E7EBF1" x="11.23" y="88.5" width="118" height="3" rx="1.5"></rect>
                            <rect id="Rectangle" fill="#78E1AC" x="11.23" y="88.5" width="88" height="3" rx="1.5"></rect>
                            <rect id="Rectangle" fill="#E7EBF1" x="10.23" y="27.5" width="110" height="5" rx="2.3"></rect>
                            <rect id="Rectangle" fill="#E7EBF1" x="39.23" y="65.5" width="46" height="5" rx="2.3"></rect>
                            <rect id="Rectangle" fill="#D4C8FB" x="10.23" y="40.5" width="31" height="5" rx="2.3"></rect>
                            <circle id="Oval" fill="#FD7E98" cx="19.23" cy="67" r="11"></circle>
                            <g id="character-4" transform="translate(11.000000, 58.000000)">
                                <path d="M2.85,15.66 C5.89041707,16.6349761 9.15958293,16.6349761 12.2,15.66 C15.05,14.47 15.41,13.58 15.08,7.71 C14.72,1.2 11.02,2.32 3.97,2.41 C2.03,2.41 0.97,5.78 0.97,8.68 C1,10.84 1,14.94 2.85,15.66 Z" id="Path" fill="#F9BBA5"></path>
                                <path d="M2.5,2.45 C1.42,2.96 -0.06,7.89 1.03,10.21 C1.03,10.21 8.03,9.14 11.65,5.48 C12.65,6.35 13.81,8.19 15.07,8.63 C15.07,8.63 16.22,2.1 11.26,2.12 C11.26,2.12 8,-0.21 2.5,2.45 Z" id="Path" fill="#3F4164"></path>
                                <path d="M11.24,2.43 L11.18,2.43 C11.0988622,2.40311799 11.0456627,2.32536495 11.05,2.24 C11.0839552,1.85223945 11.0040216,1.46299744 10.82,1.12 C10.7761529,1.02318664 10.8156834,0.908987448 10.91,0.86 C10.9549587,0.835475952 11.0079136,0.830139549 11.0568614,0.845200403 C11.1058092,0.860261256 11.1466044,0.894443867 11.17,0.94 C11.30302,1.19919946 11.3877349,1.48045267 11.42,1.77 C11.6427299,1.61685485 11.8894504,1.50194394 12.15,1.43 C12.2154011,1.4043012 12.289646,1.41679715 12.3430317,1.46248859 C12.3964173,1.50818003 12.4202258,1.57960559 12.4049322,1.64819013 C12.3896385,1.71677466 12.3377402,1.77131837 12.27,1.79 C11.9224189,1.86675447 11.6137994,2.0654061 11.4,2.35 C11.3633412,2.40167582 11.3033359,2.43167844 11.24,2.43 Z" id="Path" fill="#3F4164"></path>
                                <path d="M8.22,11.58 C8.14167733,11.5787016 8.07132261,11.5317985 8.04,11.46 C8.01999963,11.413599 8.01930551,11.3611425 8.03807111,11.3142284 C8.05683672,11.2673144 8.09351625,11.2298074 8.14,11.21 C8.33912077,11.1066383 8.52681965,10.9826229 8.7,10.84 C8.49908467,10.3976477 8.26159339,9.97283936 7.99,9.57 C7.94891443,9.51462383 7.94049264,9.44153525 7.96790703,9.37826603 C7.99532143,9.31499681 8.05440711,9.27115904 8.12290706,9.26326601 C8.19140702,9.25537297 8.25891447,9.28462381 8.3,9.34 C8.61470746,9.80400137 8.88586046,10.2960939 9.11,10.81 C9.16002924,10.8748006 9.16002924,10.9651994 9.11,11.03 C8.87487433,11.2407569 8.61253397,11.4190138 8.33,11.56 L8.22,11.58 Z" id="Path" fill="#D26E63" opacity="0.4"></path>
                                <path d="M8.14,14.19 C7.82542426,14.1958265 7.51717708,14.1012506 7.26,13.92 C6.98960032,13.7133029 6.83366465,13.3902933 6.84,13.05 C6.83992769,12.9978274 6.8613123,12.9479206 6.89913742,12.9119868 C6.93696254,12.8760529 6.98789969,12.857254 7.04,12.86 C7.1449341,12.86 7.23,12.9450659 7.23,13.05 C7.22036946,13.2678553 7.31736467,13.4767681 7.49,13.61 C7.6800632,13.7427021 7.90838672,13.8094429 8.14,13.8 C8.67,13.8 9.2,13.51 9.2,12.94 C9.20533326,12.8334666 9.2933333,12.7498666 9.4,12.75 C9.50278184,12.7550226 9.58497742,12.8372182 9.59,12.94 C9.56708629,13.2994344 9.40044551,13.6345129 9.12765369,13.8696783 C8.85486187,14.1048436 8.49888761,14.2202953 8.14,14.19 Z" id="Path" fill="#60342B"></path>
                                <path d="M4,11 C3.94949422,10.9949664 3.903102,10.9699342 3.87116641,10.9304843 C3.83923083,10.8910345 3.82440704,10.8404469 3.83,10.79 C3.82933294,10.2566665 4.24733315,9.81666628 4.78,9.79 C5.27284598,9.81172526 5.6762129,10.1896164 5.73,10.68 C5.70926052,10.7710016 5.62833496,10.835559 5.535,10.835559 C5.44166504,10.835559 5.36073948,10.7710016 5.34,10.68 C5.3292274,10.378558 5.08163439,10.1398076 4.78,10.14 C4.53,10.14 4.25,10.3 4.21,10.76 C4.22761471,10.8219512 4.2126456,10.8886082 4.17023343,10.9370793 C4.12782126,10.9855503 4.06374124,11.0092352 4,11 Z" id="Path" fill="#C1564D"></path>
                                <path d="M10.73,11 C10.6777019,10.9975414 10.6287361,10.9736115 10.5946634,10.93386 C10.5605907,10.8941085 10.5444311,10.8420588 10.55,10.79 C10.5493329,10.2566665 10.9673332,9.81666628 11.5,9.79 C12.0002322,9.78929186 12.4133924,10.1804755 12.44,10.68 C12.4455689,10.7320588 12.4294093,10.7841085 12.3953366,10.82386 C12.3612639,10.8636115 12.3122981,10.8875414 12.26,10.89 C12.1586137,10.8958914 12.0705192,10.8210111 12.06,10.72 C12.0492274,10.418558 11.8016344,10.1798076 11.5,10.18 C11.25,10.18 10.97,10.34 10.94,10.8 C10.9400686,10.8548223 10.9176301,10.9072693 10.8779312,10.9450778 C10.8382323,10.9828862 10.7847537,11.0027412 10.73,11 Z" id="Path" fill="#C1564D"></path>
                                <path d="M12.51,8.78 L12.46,8.78 L9.96,8.29 C9.88437964,8.27547653 9.81764004,8.23147446 9.77449487,8.16769465 C9.7313497,8.10391483 9.71534168,8.02559434 9.73,7.95 C9.74452347,7.87437964 9.78852554,7.80764004 9.85230535,7.76449487 C9.91608517,7.7213497 9.99440566,7.70534168 10.07,7.72 L12.57,8.21 C12.7082439,8.2465876 12.7991801,8.37848848 12.7842098,8.52070629 C12.7692395,8.66292411 12.6528321,8.77299934 12.51,8.78 Z" id="Path" fill="#3F4164"></path>
                                <g id="Group" opacity="0.2" transform="translate(2.000000, 3.000000)" fill="#FFFFFF">
                                    <path d="M2,1.53 C1.50135916,1.5285582 1.00344664,1.49179956 0.51,1.42 C0.442119517,1.40928205 0.385113325,1.36316445 0.360455112,1.29901925 C0.3357969,1.23487405 0.347232838,1.16244644 0.390455119,1.10901921 C0.433677399,1.05559198 0.502119525,1.029282 0.57,1.04 C2.59191657,1.3266503 4.65336982,1.00280713 6.49,0.11 C6.58698812,0.0711432644 6.69778999,0.10949776 6.75,0.2 C6.77384159,0.246200541 6.77771002,0.300152665 6.76070369,0.349282048 C6.74369737,0.39841143 6.70730198,0.438426079 6.66,0.46 C5.20714347,1.16326699 3.61411761,1.52904761 2,1.53 Z" id="Path"></path>
                                    <path d="M2.42,3.87 C2.3150659,3.87 2.23,3.7849341 2.23,3.68 C2.23,3.5750659 2.3150659,3.49 2.42,3.49 C3.84416496,3.22558084 5.20295024,2.6854637 6.42,1.9 C6.46045309,1.87010975 6.51156725,1.85850877 6.56096012,1.8680074 C6.61035298,1.87750603 6.65351855,1.90723772 6.68,1.95 C6.71031572,1.9920668 6.7221218,2.04469608 6.71268005,2.09568149 C6.70323831,2.1466669 6.6733691,2.19157853 6.63,2.22 C5.3811563,3.03362014 3.98476327,3.59421588 2.52,3.87 L2.42,3.87 Z" id="Path"></path>
                                    <path d="M11.84,2.82 C11.7918998,2.8203901 11.7454419,2.80252167 11.71,2.77 C11.1930615,2.29019917 10.7928363,1.69841329 10.54,1.04 C10.5013401,0.940588745 10.5505887,0.828659932 10.65,0.79 C10.7494113,0.751340068 10.8613401,0.800588745 10.9,0.9 C11.1300732,1.50212221 11.4962813,2.04287822 11.97,2.48 C12.0462286,2.5577687 12.0462286,2.6822313 11.97,2.76 C11.9355556,2.79535716 11.8892528,2.81672772 11.84,2.82 Z" id="Path"></path>
                                </g>
                            </g>
                        </g>
                        <rect id="Rectangle" fill="#E7EBF1" x="328.73" y="92.5" width="11" height="11" rx="3"></rect>
                        <rect id="Rectangle" fill="#F8F9FB" x="24.73" y="76" width="157" height="282" rx="9"></rect>
                        <path d="M181.72,85.5 L24.72,85.5 L24.72,83.86 C24.7748767,79.7595091 28.1292365,76.4721472 32.23,76.5 L174.23,76.5 C178.334652,76.4666186 181.695112,79.7555796 181.75,83.86 L181.72,85.5 Z" id="Path" fill="#81EBF1"></path>
                        <rect id="Rectangle" fill="#D6DDE7" x="34.23" y="96.5" width="80" height="5" rx="2.3"></rect>
                        <g id="card1-6" transform="translate(31.000000, 112.000000)">
                            <path d="M13.26,120 C6.88892302,119.988968 1.72999045,114.821087 1.73,108.45 L1.73,13.55 C1.72999045,7.17891347 6.88892302,2.01103218 13.26,2 L131.19,2 C137.562698,2.01102307 142.724497,7.17729482 142.73,13.55 L142.73,108.45 C142.724497,114.822705 137.562698,119.988977 131.19,120 L13.26,120 Z" id="Path" fill="#FFFFFF"></path>
                            <path d="M131.19,3.5 C136.716361,3.53840591 141.179157,8.02351583 141.19,13.55 L141.19,108.45 C141.179157,113.976484 136.716361,118.461594 131.19,118.5 L13.26,118.5 C7.73363865,118.461594 3.27084271,113.976484 3.26,108.45 L3.26,13.55 C3.27084271,8.02351583 7.73363865,3.53840591 13.26,3.5 L131.19,3.5 Z M131.19,0.5 L13.26,0.5 C9.80350507,0.499974434 6.48930424,1.8764748 4.04988892,4.32527248 C1.6104736,6.77407017 0.246705789,10.0935306 0.26,13.55 L0.26,108.45 C0.246705789,111.906469 1.6104736,115.22593 4.04988892,117.674728 C6.48930424,120.123525 9.80350507,121.500026 13.26,121.5 L131.19,121.5 C138.375497,121.46699 144.184574,115.63557 144.19,108.45 L144.19,13.55 C144.184574,6.36442964 138.375497,0.533009769 131.19,0.5 Z" id="Shape" fill="#4CA2F8" fill-rule="nonzero"></path>
                            <rect id="Rectangle" fill="#D6DDE7" x="13.23" y="17.5" width="110" height="5" rx="2.3"></rect>
                            <rect id="Rectangle" fill="#E7EBF1" x="14.23" y="105.5" width="118" height="3" rx="1.5"></rect>
                            <rect id="Rectangle" fill="#78E1AC" x="14.23" y="105.5" width="22" height="3" rx="1.5"></rect>
                            <rect id="Rectangle" fill="#E7EBF1" x="13.23" y="30.5" width="110" height="5" rx="2.3"></rect>
                            <rect id="Rectangle" fill="#E7EBF1" x="13.23" y="43.5" width="90" height="5" rx="2.3"></rect>
                            <rect id="Rectangle" fill="#E7EBF1" x="42.23" y="82.5" width="46" height="5" rx="2.3"></rect>
                            <rect id="Rectangle" fill="#A3E0FC" x="13.23" y="57.5" width="31" height="5" rx="2.3"></rect>
                            <circle id="Oval" fill="#AA8DF7" cx="22.23" cy="84" r="11"></circle>
                            <g id="character-5" transform="translate(13.000000, 74.000000)">
                                <path d="M15.73,13.47 C16.02,13.3 20.35,4.47 14.22,4.9 C14.48,2.68 13.22,0.12 10.95,0.12 C8.13,0.12 3.46,4.18 0.76,3.89 C-0.18,3.65 0.44,5.08 1.07,5.89 C2.45,7.64 2.57,6.34 1.49,7.49 C1.10645486,7.89282626 0.873380186,8.41547856 0.83,8.97 C0.56,11.19 3.6,13.76 3.56,13.76 L15.73,13.47 Z" id="Path" fill="#FFD46A"></path>
                                <path d="M5,17.07 C7.661998,17.6696602 10.4286981,17.6250913 13.07,16.94 C15.55,16.11 15.9,14.89 15.67,11.01 C15.36,5.65 13.41,6.57 6.15,6.77 C3.8,6.84 3.46,9.43 3.5,11.77 C3.55,13.27 3.39,16.62 5,17.07 Z" id="Path" fill="#F9BBA5"></path>
                                <path d="M5.42,6.56 C5.42,6.56 8.8,9.78 13.42,6.37 L5.42,6.56 Z" id="Path" fill="#FFD46A"></path>
                                <path d="M6.88,12.06 C6.74723336,12.069328 6.62464643,12.1345086 6.54267096,12.2393609 C6.46069549,12.3442133 6.42701843,12.4789052 6.45,12.61 C6.51345761,12.8398931 6.748515,12.9773795 6.98,12.92 C7.13304487,12.8715985 7.25437231,12.7539691 7.30748651,12.6024953 C7.36060071,12.4510214 7.33930306,12.2833807 7.25,12.15 C7.14606189,12.0667249 7.01057483,12.0337686 6.88,12.06 Z" id="Path" fill="#C1564D"></path>
                                <path d="M12.12,12.05 C11.9882911,12.1006177 11.8834385,12.2035399 11.8303823,12.3342856 C11.777326,12.4650313 11.780808,12.6119152 11.84,12.74 C11.9737824,12.9592418 12.2587841,13.0304923 12.48,12.9 C12.622428,12.8354056 12.7185557,12.6985752 12.7310272,12.5426822 C12.7434986,12.3867891 12.6703471,12.2364164 12.54,12.15 C12.4271003,12.0455508 12.2678554,12.0076353 12.12,12.05 Z" id="Path" fill="#C1564D"></path>
                                <path d="M8.35,14.44 C9.02,16.18 10.35,16.15 10.76,14.44 C10.7792675,14.3722257 10.7649069,14.2993232 10.7213753,14.2439194 C10.6778437,14.1885155 10.6104086,14.1573144 10.54,14.16 L8.54,14.16 C8.47491869,14.1663496 8.41603472,14.2013211 8.37931796,14.25543 C8.3426012,14.309539 8.33185726,14.377177 8.35,14.44 Z" id="Path" fill="#C1564D"></path>
                                <path d="M9.39,13.66 C9.29665267,13.6502248 9.22442946,13.5737532 9.22,13.48 C9.22531286,13.3845141 9.30436656,13.3098523 9.4,13.31 C9.58787472,13.3057602 9.76970979,13.2428173 9.92,13.13 C9.92640021,13.1071056 9.92640021,13.0828944 9.92,13.06 C9.86800324,13.0011104 9.80730062,12.9505249 9.74,12.91 C9.36531298,12.7284155 9.15697823,12.319916 9.23,11.91 L9.23,11.04 C9.23,10.9405887 9.31058875,10.86 9.41,10.86 C9.50548586,10.8653129 9.58014769,10.9443666 9.58,11.04 L9.58,12 C9.51,12.36 9.72,12.5 9.94,12.65 C10.16,12.8 10.27,12.88 10.27,13.1 C10.2620261,13.2188578 10.2082538,13.3299873 10.12,13.41 C9.9108256,13.5714281 9.65422053,13.6593066 9.39,13.66 Z" id="Path" fill="#D26E63" opacity="0.4"></path>
                                <path d="M6.8,14.3 C6.36450601,14.2980364 5.93958142,14.1656829 5.58,13.92 C4.93024041,13.4771443 4.71164921,12.6199239 5.07,11.92 C5.44002393,11.1578318 6.22315647,10.6840366 7.07,10.71 C7.76656027,10.7335352 8.37216011,11.1947537 8.58,11.86 C8.80055712,12.5508515 8.6017938,13.3069315 8.07,13.8 C7.72642307,14.1233203 7.2717794,14.3023139 6.8,14.3 Z M5.38,12.05 C5.08544385,12.6009541 5.25876562,13.2855751 5.78,13.63 C6.41063711,14.0897596 7.27637717,14.0481375 7.86,13.53 C8.2872269,13.129153 8.45001919,12.5206199 8.28,11.96 C8.12049696,11.4264731 7.63664294,11.0555183 7.08,11.04 C6.36617941,11.0107854 5.70128313,11.4019009 5.38,12.04 L5.38,12.05 Z" id="Shape" fill="#4A4F6A" fill-rule="nonzero"></path>
                                <path d="M12.31,14.3 C11.874506,14.2980364 11.4495814,14.1656829 11.09,13.92 C10.4440971,13.4744504 10.2263249,12.620442 10.58,11.92 C10.9539029,11.1613795 11.7344988,10.689119 12.58,10.71 C13.2802824,10.7293435 13.8909566,11.1913667 14.1,11.86 C14.315498,12.5509744 14.1174492,13.3043364 13.59,13.8 C13.243917,14.1257177 12.7852278,14.3048931 12.31,14.3 Z M10.9,12.05 C10.6054439,12.6009541 10.7787656,13.2855751 11.3,13.63 C11.9306371,14.0897596 12.7963772,14.0481375 13.38,13.53 C13.7882591,13.1345878 13.949165,12.5484306 13.8,12 C13.640497,11.4664731 13.1566429,11.0955183 12.6,11.08 C11.885536,11.0482067 11.2193419,11.4400856 10.9,12.08 L10.9,12.05 Z" id="Shape" fill="#4A4F6A" fill-rule="nonzero"></path>
                                <path d="M10.58,12.49 C9.95056831,12.2788575 9.26943169,12.2788575 8.64,12.49 C8.59758084,12.5061588 8.55046107,12.5046819 8.50913713,12.4858983 C8.46781319,12.4671147 8.4357176,12.4325846 8.42,12.39 C8.40009536,12.3477316 8.39846386,12.2991343 8.41548881,12.2556261 C8.43251377,12.2121178 8.46669441,12.177534 8.51,12.16 C9.21802527,11.9272247 9.98197473,11.9272247 10.69,12.16 C10.7838884,12.1765686 10.8465685,12.2661116 10.8299999,12.36 C10.8134314,12.4538884 10.7238884,12.5165685 10.63,12.5 L10.58,12.49 Z" id="Path" fill="#4A4F6A"></path>
                                <path d="M3.52,13 C3.42988213,13.000156 3.35530092,12.929962 3.35,12.84 C3.34358788,12.7474818 3.40851972,12.6652348 3.5,12.65 L5.05,12.5 C5.12247887,12.4825509 5.19821364,12.5115862 5.24045199,12.5730156 C5.28269034,12.6344451 5.28269034,12.7155549 5.24045199,12.7769844 C5.19821364,12.8384138 5.12247887,12.8674491 5.05,12.85 L3.51,13 L3.52,13 Z" id="Path" fill="#4A4F6A"></path>
                                <path d="M15.75,13 L14,12.87 C13.9547813,12.8649972 13.9134545,12.8420785 13.885264,12.8063705 C13.8570735,12.7706626 13.8443718,12.7251451 13.85,12.68 C13.8524349,12.6329839 13.8742581,12.5890828 13.9102694,12.5587574 C13.9462807,12.5284321 13.9932553,12.5143983 14.04,12.52 L15.75,12.69 C15.7952187,12.6950028 15.8365455,12.7179215 15.864736,12.7536295 C15.8929265,12.7893374 15.9056282,12.8348549 15.9,12.88 C15.8795563,12.947123 15.8199735,12.9947893 15.75,13 Z" id="Path" fill="#4A4F6A"></path>
                                <g id="Group" opacity="0.3" transform="translate(2.000000, 2.000000)" fill="#FFFFFF">
                                    <path d="M3.89,2.47 C3.79436656,2.47014769 3.71531286,2.39548586 3.71,2.3 C3.70985231,2.20436656 3.78451414,2.12531286 3.88,2.12 C5.66777721,2.01203101 7.37880659,1.35555443 8.78,0.24 C8.84634123,0.173887928 8.95365877,0.173887928 9.02,0.24 C9.08730888,0.309741877 9.08730888,0.420258123 9.02,0.49 C7.55775773,1.64333432 5.77870239,2.32356136 3.92,2.44 L3.89,2.47 Z" id="Path"></path>
                                    <path d="M6.76,4.08 C6.68891354,4.08039277 6.62508864,4.03651315 6.6,3.97 C6.56437529,3.88159681 6.60383804,3.78074754 6.69,3.74 C7.70783012,3.31052755 8.62929775,2.68148138 9.4,1.89 C9.46974188,1.82269112 9.58025812,1.82269112 9.65,1.89 C9.71730888,1.95974188 9.71730888,2.07025812 9.65,2.14 C8.84660852,2.96065489 7.88801077,3.61331719 6.83,4.06 L6.76,4.08 Z" id="Path"></path>
                                    <path d="M0.47,7.25 C0.381741301,7.24562585 0.309710232,7.1778319 0.3,7.09 C0.240830412,6.5245178 0.359694086,5.95467136 0.64,5.46 C0.661121223,5.41746596 0.699070916,5.38570555 0.744660812,5.3724085 C0.790250709,5.35911145 0.839324287,5.36549007 0.88,5.39 C0.96051559,5.44140504 0.986852561,5.54675292 0.94,5.63 C0.696143398,6.06095922 0.594648371,6.55793487 0.65,7.05 C0.65560957,7.09779606 0.641846326,7.14584812 0.611783426,7.18342674 C0.581720526,7.22100537 0.537861675,7.24498093 0.49,7.25 L0.47,7.25 Z" id="Path"></path>
                                    <path d="M14.36,6.5 C14.3140661,6.50297298 14.269077,6.48601928 14.2365288,6.45347116 C14.2039807,6.42092305 14.187027,6.37593388 14.19,6.33 C14.1945267,5.81888414 14.0958924,5.31210812 13.9,4.84 C13.8708126,4.74909773 13.9136146,4.65065324 14,4.61 C14.042153,4.59070259 14.0906037,4.59063744 14.1328085,4.60982141 C14.1750132,4.62900537 14.2068221,4.6655522 14.22,4.71 C14.4367629,5.22199232 14.5424229,5.77415114 14.53,6.33 C14.532973,6.37593388 14.5160193,6.42092305 14.4834712,6.45347116 C14.450923,6.48601928 14.4059339,6.50297298 14.36,6.5 Z" id="Path"></path>
                                </g>
                            </g>
                        </g>
                        <g id="card1-7" transform="translate(34.000000, 239.000000)">
                            <path d="M128.19,102.5 L10.26,102.5 C4.73363865,102.461594 0.270842706,97.9764842 0.26,92.45 L0.26,10.55 C0.270842706,5.02351583 4.73363865,0.538405911 10.26,0.5 L128.19,0.5 C133.716361,0.538405911 138.179157,5.02351583 138.19,10.55 L138.19,92.45 C138.179157,97.9764842 133.716361,102.461594 128.19,102.5 Z" id="Path" fill="#FFFFFF"></path>
                            <rect id="Rectangle" fill="#D6DDE7" x="10.23" y="14.5" width="110" height="5" rx="2.3"></rect>
                            <rect id="Rectangle" fill="#E7EBF1" x="11.23" y="88.5" width="118" height="3" rx="1.5"></rect>
                            <rect id="Rectangle" fill="#78E1AC" x="11.23" y="88.5" width="22" height="3" rx="1.5"></rect>
                            <rect id="Rectangle" fill="#E7EBF1" x="10.23" y="27.5" width="110" height="5" rx="2.3"></rect>
                            <rect id="Rectangle" fill="#E7EBF1" x="39.23" y="65.5" width="46" height="5" rx="2.3"></rect>
                            <rect id="Rectangle" fill="#A3E0FC" x="10.23" y="40.5" width="31" height="5" rx="2.3"></rect>
                            <circle id="Oval" fill="#AA8DF7" cx="19.23" cy="67" r="11"></circle>
                            <g id="character-6" transform="translate(10.000000, 57.000000)">
                                <path d="M15.73,13.47 C16.02,13.3 20.35,4.47 14.22,4.9 C14.48,2.68 13.22,0.12 10.95,0.12 C8.13,0.12 3.46,4.18 0.76,3.89 C-0.18,3.65 0.44,5.08 1.07,5.89 C2.45,7.64 2.57,6.34 1.49,7.49 C1.10645486,7.89282626 0.873380186,8.41547856 0.83,8.97 C0.56,11.19 3.6,13.76 3.56,13.76 L15.73,13.47 Z" id="Path" fill="#FFD46A"></path>
                                <path d="M5,17.07 C7.661998,17.6696602 10.4286981,17.6250913 13.07,16.94 C15.55,16.11 15.9,14.89 15.67,11.01 C15.36,5.65 13.41,6.57 6.15,6.77 C3.8,6.84 3.46,9.43 3.5,11.82 C3.55,13.27 3.39,16.62 5,17.07 Z" id="Path" fill="#F9BBA5"></path>
                                <path d="M5.42,6.56 C5.42,6.56 8.8,9.78 13.42,6.37 L5.42,6.56 Z" id="Path" fill="#FFD46A"></path>
                                <path d="M6.88,12.06 C6.74723336,12.069328 6.62464643,12.1345086 6.54267096,12.2393609 C6.46069549,12.3442133 6.42701843,12.4789052 6.45,12.61 C6.51345761,12.8398931 6.748515,12.9773795 6.98,12.92 C7.13304487,12.8715985 7.25437231,12.7539691 7.30748651,12.6024953 C7.36060071,12.4510214 7.33930306,12.2833807 7.25,12.15 C7.14606189,12.0667249 7.01057483,12.0337686 6.88,12.06 Z" id="Path" fill="#C1564D"></path>
                                <path d="M12.12,12.05 C11.9882911,12.1006177 11.8834385,12.2035399 11.8303823,12.3342856 C11.777326,12.4650313 11.780808,12.6119152 11.84,12.74 C11.9737824,12.9592418 12.2587841,13.0304923 12.48,12.9 C12.622428,12.8354056 12.7185557,12.6985752 12.7310272,12.5426822 C12.7434986,12.3867891 12.6703471,12.2364164 12.54,12.15 C12.4271003,12.0455508 12.2678554,12.0076353 12.12,12.05 Z" id="Path" fill="#C1564D"></path>
                                <path d="M8.35,14.44 C9.02,16.18 10.35,16.15 10.76,14.44 C10.7792675,14.3722257 10.7649069,14.2993232 10.7213753,14.2439194 C10.6778437,14.1885155 10.6104086,14.1573144 10.54,14.16 L8.54,14.16 C8.47491869,14.1663496 8.41603472,14.2013211 8.37931796,14.25543 C8.3426012,14.309539 8.33185726,14.377177 8.35,14.44 Z" id="Path" fill="#C1564D"></path>
                                <path d="M9.39,13.66 C9.29665267,13.6502248 9.22442946,13.5737532 9.22,13.48 C9.22531286,13.3845141 9.30436656,13.3098523 9.4,13.31 C9.58787472,13.3057602 9.76970979,13.2428173 9.92,13.13 C9.92640021,13.1071056 9.92640021,13.0828944 9.92,13.06 C9.86800324,13.0011104 9.80730062,12.9505249 9.74,12.91 C9.36531298,12.7284155 9.15697823,12.319916 9.23,11.91 L9.23,11.04 C9.23,10.9405887 9.31058875,10.86 9.41,10.86 C9.50548586,10.8653129 9.58014769,10.9443666 9.58,11.04 L9.58,12 C9.51,12.36 9.72,12.5 9.94,12.65 C10.16,12.8 10.27,12.88 10.27,13.1 C10.2620261,13.2188578 10.2082538,13.3299873 10.12,13.41 C9.9108256,13.5714281 9.65422053,13.6593066 9.39,13.66 Z" id="Path" fill="#D26E63" opacity="0.4"></path>
                                <path d="M6.8,14.3 C6.36450601,14.2980364 5.93958142,14.1656829 5.58,13.92 C4.93024041,13.4771443 4.71164921,12.6199239 5.07,11.92 C5.44002393,11.1578318 6.22315647,10.6840366 7.07,10.71 C7.76656027,10.7335352 8.37216011,11.1947537 8.58,11.86 C8.80055712,12.5508515 8.6017938,13.3069315 8.07,13.8 C7.72642307,14.1233203 7.2717794,14.3023139 6.8,14.3 Z M5.38,12.05 C5.08544385,12.6009541 5.25876562,13.2855751 5.78,13.63 C6.41063711,14.0897596 7.27637717,14.0481375 7.86,13.53 C8.2872269,13.129153 8.45001919,12.5206199 8.28,11.96 C8.12049696,11.4264731 7.63664294,11.0555183 7.08,11.04 C6.36617941,11.0107854 5.70128313,11.4019009 5.38,12.04 L5.38,12.05 Z" id="Shape" fill="#4A4F6A" fill-rule="nonzero"></path>
                                <path d="M12.31,14.3 C11.874506,14.2980364 11.4495814,14.1656829 11.09,13.92 C10.4440971,13.4744504 10.2263249,12.620442 10.58,11.92 C10.9539029,11.1613795 11.7344988,10.689119 12.58,10.71 C13.2802824,10.7293435 13.8909566,11.1913667 14.1,11.86 C14.315498,12.5509744 14.1174492,13.3043364 13.59,13.8 C13.243917,14.1257177 12.7852278,14.3048931 12.31,14.3 Z M10.9,12.05 C10.6054439,12.6009541 10.7787656,13.2855751 11.3,13.63 C11.9306371,14.0897596 12.7963772,14.0481375 13.38,13.53 C13.7882591,13.1345878 13.949165,12.5484306 13.8,12 C13.640497,11.4664731 13.1566429,11.0955183 12.6,11.08 C11.885536,11.0482067 11.2193419,11.4400856 10.9,12.08 L10.9,12.05 Z" id="Shape" fill="#4A4F6A" fill-rule="nonzero"></path>
                                <path d="M10.58,12.49 C9.95056831,12.2788575 9.26943169,12.2788575 8.64,12.49 C8.59758084,12.5061588 8.55046107,12.5046819 8.50913713,12.4858983 C8.46781319,12.4671147 8.4357176,12.4325846 8.42,12.39 C8.40009536,12.3477316 8.39846386,12.2991343 8.41548881,12.2556261 C8.43251377,12.2121178 8.46669441,12.177534 8.51,12.16 C9.21802527,11.9272247 9.98197473,11.9272247 10.69,12.16 C10.7838884,12.1765686 10.8465685,12.2661116 10.8299999,12.36 C10.8134314,12.4538884 10.7238884,12.5165685 10.63,12.5 L10.58,12.49 Z" id="Path" fill="#4A4F6A"></path>
                                <path d="M3.52,13 C3.42988213,13.000156 3.35530092,12.929962 3.35,12.84 C3.34358788,12.7474818 3.40851972,12.6652348 3.5,12.65 L5.05,12.5 C5.12247887,12.4825509 5.19821364,12.5115862 5.24045199,12.5730156 C5.28269034,12.6344451 5.28269034,12.7155549 5.24045199,12.7769844 C5.19821364,12.8384138 5.12247887,12.8674491 5.05,12.85 L3.51,13 L3.52,13 Z" id="Path" fill="#4A4F6A"></path>
                                <path d="M15.75,13 L14,12.87 C13.9547813,12.8649972 13.9134545,12.8420785 13.885264,12.8063705 C13.8570735,12.7706626 13.8443718,12.7251451 13.85,12.68 C13.8524349,12.6329839 13.8742581,12.5890828 13.9102694,12.5587574 C13.9462807,12.5284321 13.9932553,12.5143983 14.04,12.52 L15.75,12.69 C15.7952187,12.6950028 15.8365455,12.7179215 15.864736,12.7536295 C15.8929265,12.7893374 15.9056282,12.8348549 15.9,12.88 C15.8795563,12.947123 15.8199735,12.9947893 15.75,13 Z" id="Path" fill="#4A4F6A"></path>
                                <g id="Group" opacity="0.3" transform="translate(2.000000, 2.000000)" fill="#FFFFFF">
                                    <path d="M3.89,2.47 C3.79436656,2.47014769 3.71531286,2.39548586 3.71,2.3 C3.70985231,2.20436656 3.78451414,2.12531286 3.88,2.12 C5.66777721,2.01203101 7.37880659,1.35555443 8.78,0.24 C8.84634123,0.173887928 8.95365877,0.173887928 9.02,0.24 C9.08730888,0.309741877 9.08730888,0.420258123 9.02,0.49 C7.56381948,1.66130236 5.78421531,2.35918635 3.92,2.49 L3.89,2.47 Z" id="Path"></path>
                                    <path d="M6.76,4.08 C6.68891354,4.08039277 6.62508864,4.03651315 6.6,3.97 C6.56437529,3.88159681 6.60383804,3.78074754 6.69,3.74 C7.70783012,3.31052755 8.62929775,2.68148138 9.4,1.89 C9.46974188,1.82269112 9.58025812,1.82269112 9.65,1.89 C9.71730888,1.95974188 9.71730888,2.07025812 9.65,2.14 C8.84660852,2.96065489 7.88801077,3.61331719 6.83,4.06 L6.76,4.08 Z" id="Path"></path>
                                    <path d="M0.47,7.25 C0.381741301,7.24562585 0.309710232,7.1778319 0.3,7.09 C0.240830412,6.5245178 0.359694086,5.95467136 0.64,5.46 C0.661121223,5.41746596 0.699070916,5.38570555 0.744660812,5.3724085 C0.790250709,5.35911145 0.839324287,5.36549007 0.88,5.39 C0.96051559,5.44140504 0.986852561,5.54675292 0.94,5.63 C0.696143398,6.06095922 0.594648371,6.55793487 0.65,7.05 C0.65560957,7.09779606 0.641846326,7.14584812 0.611783426,7.18342674 C0.581720526,7.22100537 0.537861675,7.24498093 0.49,7.25 L0.47,7.25 Z" id="Path"></path>
                                    <path d="M14.36,6.5 C14.3140661,6.50297298 14.269077,6.48601928 14.2365288,6.45347116 C14.2039807,6.42092305 14.187027,6.37593388 14.19,6.33 C14.1945267,5.81888414 14.0958924,5.31210812 13.9,4.84 C13.8708126,4.74909773 13.9136146,4.65065324 14,4.61 C14.042153,4.59070259 14.0906037,4.59063744 14.1328085,4.60982141 C14.1750132,4.62900537 14.2068221,4.6655522 14.22,4.71 C14.4367629,5.22199232 14.5424229,5.77415114 14.53,6.33 C14.532973,6.37593388 14.5160193,6.42092305 14.4834712,6.45347116 C14.450923,6.48601928 14.4059339,6.50297298 14.36,6.5 Z" id="Path"></path>
                                </g>
                            </g>
                        </g>
                        <g id="add-icon-3" transform="translate(168.000000, 344.000000)" fill="#4CA2F8">
                            <circle id="Oval" cx="3.23" cy="3" r="3"></circle>
                        </g>
                        <rect id="Rectangle" fill="#E7EBF1" x="160.73" y="92.5" width="11" height="11" rx="3"></rect>
                        <rect id="Rectangle" fill="#E7EBF1" x="494.73" y="92.5" width="11" height="11" rx="3"></rect>
                    </g>
                    <g id="See-your-project-in-a-new-light" transform="translate(365.000000, 24.000000)">
                        <g id="Rectangle">
                            <use fill="black" fill-opacity="1" filter="url(#filter-8)" xlink:href="#path-7"></use>
                            <use fill="#FFFFFF" fill-rule="evenodd" xlink:href="#path-7"></use>
                        </g>
                        <rect id="Rectangle" fill="#CCD5E2" x="29.23" y="33" width="57" height="7" rx="3.5"></rect>
                        <path d="M147.7,46.5 L192.75,46.5 C193.823106,46.5001643 194.851276,46.0691416 195.603466,45.3037876 C196.355657,44.5384337 196.768779,43.502942 196.75,42.43 L196.75,29.57 C196.768779,28.497058 196.355657,27.4615663 195.603466,26.6962124 C194.851276,25.9308584 193.823106,25.4998357 192.75,25.5 L147.7,25.5 C146.626894,25.4998357 145.598724,25.9308584 144.846534,26.6962124 C144.094343,27.4615663 143.681221,28.497058 143.7,29.57 L143.7,42.43 C143.681221,43.502942 144.094343,44.5384337 144.846534,45.3037876 C145.598724,46.0691416 146.626894,46.5001643 147.7,46.5 Z" id="Path" fill="#79E2AA"></path>
                        <path d="M218.73,27.5 C219.834569,27.5 220.73,28.3954305 220.73,29.5 L220.73,42.5 C220.73,43.6045695 219.834569,44.5 218.73,44.5 L205.73,44.5 C204.625431,44.5 203.73,43.6045695 203.73,42.5 L203.73,29.5 C203.73,28.3954305 204.625431,27.5 205.73,27.5 L218.73,27.5 Z M218.73,25.5 L205.73,25.5 C203.520861,25.5 201.73,27.290861 201.73,29.5 L201.73,42.5 C201.73,44.709139 203.520861,46.5 205.73,46.5 L218.73,46.5 C220.939139,46.5 222.73,44.709139 222.73,42.5 L222.73,29.5 C222.73,27.290861 220.939139,25.5 218.73,25.5 Z" id="Shape" fill="#E1E6EE" fill-rule="nonzero"></path>
                        <circle id="Oval" fill="#CCD5E2" cx="212.21" cy="35.55" r="1.36"></circle>
                        <circle id="Oval" fill="#CCD5E2" cx="212.21" cy="31.01" r="1.36"></circle>
                        <circle id="Oval" fill="#CCD5E2" cx="212.21" cy="40.1" r="1.36"></circle>
                        <rect id="Rectangle" fill="#FD7E98" x="29.23" y="100" width="30" height="5" rx="2.3"></rect>
                        <rect id="Rectangle" fill="#79E2AA" x="29.23" y="117" width="41" height="5" rx="2.3"></rect>
                        <rect id="Rectangle" fill="#63C0F9" x="29.23" y="133" width="34" height="5" rx="2.3"></rect>
                        <rect id="Rectangle" fill="#FFD56A" x="29.23" y="149" width="30" height="5" rx="2.3"></rect>
                        <rect id="Rectangle" fill="#E7EBF1" x="29.23" y="165" width="34" height="5" rx="2.3"></rect>
                        <rect id="Rectangle" fill="#E7EBF1" x="29.23" y="350" width="122" height="5" rx="2.3"></rect>
                        <rect id="Rectangle" fill="#E7EBF1" x="29.23" y="379" width="111" height="5" rx="2.3"></rect>
                        <rect id="Rectangle" fill="#E7EBF1" x="29.23" y="364" width="100" height="5" rx="2.3"></rect>
                        <g id="Pie-chart" transform="translate(132.000000, 222.000000)">
                            <mask id="mask-10" fill="white">
                                <use xlink:href="#path-9"></use>
                            </mask>
                            <use id="pie_chart_base-3" fill="#63C0F9" fill-rule="nonzero" xlink:href="#path-9"></use>
                            <g id="Group" mask="url(#mask-10)">
                                <g transform="translate(43.000000, -13.000000)" id="Path">
                                    <polygon fill="#FFD56A" points="0.23 0 0.23 57 1.23 123 84.23 51"></polygon>
                                    <polyline fill="#63C0F9" points="0.23 0 0.23 57 42.23 14"></polyline>
                                    <polyline fill="#FD7E98" points="0.23 0 0.23 57 48.23 24"></polyline>
                                </g>
                            </g>
                        </g>
                        <g id="Pie-chart" transform="translate(132.000000, 92.000000)">
                            <mask id="mask-12" fill="white">
                                <use xlink:href="#path-11"></use>
                            </mask>
                            <use id="pie_chart_base-4" fill="#79E2AA" fill-rule="nonzero" xlink:href="#path-11"></use>
                            <g id="Group" mask="url(#mask-12)">
                                <g transform="translate(43.000000, -13.000000)" id="Path">
                                    <polygon fill="#FFD56A" points="0.23 0 0.23 57 49.23 91 54.23 30"></polygon>
                                    <polyline fill="#63C0F9" points="0.23 0 0.23 57 42.23 14"></polyline>
                                    <polyline fill="#FD7E98" points="0.23 0 0.23 57 32.23 5"></polyline>
                                </g>
                            </g>
                        </g>
                        <rect id="Rectangle" fill="#D6DDE7" x="29.23" y="74" width="55" height="5" rx="2.3"></rect>
                        <rect id="Rectangle" fill="#D6DDE7" x="29.23" y="325" width="55" height="5" rx="2.3"></rect>
                        <rect id="Rectangle" fill="#FD7E98" x="29.23" y="248" width="30" height="5" rx="2.3"></rect>
                        <rect id="Rectangle" fill="#63C0F9" x="29.23" y="264" width="34" height="5" rx="2.3"></rect>
                        <rect id="Rectangle" fill="#FFD56A" x="29.23" y="280" width="30" height="5" rx="2.3"></rect>
                        <rect id="Rectangle" fill="#D6DDE7" x="29.23" y="204" width="55" height="5" rx="2.3"></rect>
                        <rect id="Rectangle" fill="#E7EBF1" transform="translate(237.491458, 35.728393) rotate(-45.000000) translate(-237.491458, -35.728393) " x="235.991458" y="31.228393" width="3" height="9" rx="1.5"></rect>
                        <rect id="Rectangle" fill="#E7EBF1" transform="translate(237.491607, 35.731458) rotate(45.000000) translate(-237.491607, -35.731458) " x="235.991607" y="31.2314576" width="3" height="9" rx="1.5"></rect>
                        <g id="scroll-2" opacity="0.800000012" transform="translate(244.000000, 67.000000)">
                            <rect id="Rectangle" fill="#F8F9FB" transform="translate(2.850000, 164.330000) rotate(90.000000) translate(-2.850000, -164.330000) " x="-161.15" y="162.33" width="328" height="4" rx="2"></rect>
                            <rect id="Rectangle" fill="#D6DDE7" transform="translate(2.850000, 42.820000) rotate(90.000000) translate(-2.850000, -42.820000) " x="-39.65" y="40.82" width="85" height="4" rx="2"></rect>
                        </g>
                    </g>
                </g>
            </g>
        </g>
    </g>
</svg>