<?xml version="1.0" encoding="UTF-8"?>
<svg width="662px" height="466px" viewBox="0 0 662 466" version="1.1" xmlns="http://www.w3.org/2000/svg" xmlns:xlink="http://www.w3.org/1999/xlink">
    <!-- Generator: Sketch 52.6 (67491) - http://www.bohemiancoding.com/sketch -->
    <title>pfp-collaboration-02-board-view</title>
    <desc>Created with Sketch.</desc>
    <defs>
        <path d="M568,385.38 L0,385.38 L0,8.37 C-5.41083001e-16,3.951722 3.581722,0.37 8,0.37 L560,0.37 C564.418278,0.37 568,3.951722 568,8.37 L568,385.38 Z" id="path-1"></path>
        <filter x="-2.3%" y="-2.9%" width="104.6%" height="106.8%" filterUnits="objectBoundingBox" id="filter-2">
            <feOffset dx="0" dy="2" in="SourceAlpha" result="shadowOffsetOuter1"></feOffset>
            <feGaussianBlur stdDeviation="4" in="shadowOffsetOuter1" result="shadowBlurOuter1"></feGaussianBlur>
            <feColorMatrix values="0 0 0 0 0.11372549   0 0 0 0 0.109803922   0 0 0 0 0.223529412  0 0 0 0.1 0" type="matrix" in="shadowBlurOuter1"></feColorMatrix>
        </filter>
        <path d="M49,286.38 L0,286.38 L0,6.31291057 C-4.67602593e-17,3.03073169 0.309531531,0.37 0.691358025,0.37 L48.308642,0.37 C48.6904685,0.37 49,3.03073169 49,6.31291057 L49,286.38 Z" id="path-3"></path>
        <rect id="path-5" x="4.17412813" y="7.05686294" width="138" height="80" rx="12"></rect>
        <filter x="-9.4%" y="-13.8%" width="118.8%" height="132.5%" filterUnits="objectBoundingBox" id="filter-6">
            <feOffset dx="0" dy="2" in="SourceAlpha" result="shadowOffsetOuter1"></feOffset>
            <feGaussianBlur stdDeviation="4" in="shadowOffsetOuter1" result="shadowBlurOuter1"></feGaussianBlur>
            <feColorMatrix values="0 0 0 0 0.11372549   0 0 0 0 0.109803922   0 0 0 0 0.223529412  0 0 0 0.1 0" type="matrix" in="shadowBlurOuter1"></feColorMatrix>
        </filter>
    </defs>
    <g id="Page-1" stroke="none" stroke-width="1" fill="none" fill-rule="evenodd">
        <g id="Product_feature_page_collaboration" transform="translate(-670.000000, -2418.000000)">
            <g id="Section3" transform="translate(0.000000, 2110.000000)">
                <g id="visualize-your-projects" transform="translate(664.000000, 308.000000)">
                    <g id="GUI-details" transform="translate(16.000000, 0.000000)">
                        <g id="06-Simple-Shapes-&amp;-Details/Details/Dots-5" transform="translate(65.000000, 0.000000)">
                            <polygon id="Rectangle" fill="#FEDE88" fill-rule="nonzero" points="356 345 560 345 560 446 356 446"></polygon>
                            <polygon id="Rectangle" fill="#FFEAB6" fill-rule="nonzero" points="356 345 407 345 407 446 356 446"></polygon>
                            <path d="M125,0 C126.65625,0 128,1.34297282 128,2.99826489 C128,4.65702718 126.65625,6 125,6 C123.340278,6 122,4.65702718 122,2.99826489 C122,1.34297282 123.340278,0 125,0 Z M125,20 C126.65625,20 128,21.3429728 128,22.9982649 C128,24.6570272 126.65625,26 125,26 C123.340278,26 122,24.6570272 122,22.9982649 C122,21.3429728 123.340278,20 125,20 Z M64,0 C65.6597222,0 67,1.34297282 67,2.99826489 C67,4.65702718 65.6597222,6 64,6 C62.3402778,6 61,4.65702718 61,2.99826489 C61,1.34297282 62.3402778,0 64,0 Z M64,20 C65.6597222,20 67,21.3429728 67,22.9982649 C67,24.6570272 65.6597222,26 64,26 C62.3402778,26 61,24.6570272 61,22.9982649 C61,21.3429728 62.3402778,20 64,20 Z M105,20 C106.659722,20 108,21.3429728 108,22.9982649 C108,24.6570272 106.659722,26 105,26 C103.34375,26 102,24.6570272 102,22.9982649 C102,21.3429728 103.34375,20 105,20 Z M85,20 C86.6597222,20 88,21.3429728 88,22.9982649 C88,24.6570272 86.6597222,26 85,26 C83.3402778,26 82,24.6570272 82,22.9982649 C82,21.3429728 83.3402778,20 85,20 Z M105,0 C106.659722,0 108,1.34297282 108,2.99826489 C108,4.65702718 106.659722,6 105,6 C103.34375,6 102,4.65702718 102,2.99826489 C102,1.34297282 103.34375,0 105,0 Z M85,0 C86.6597222,0 88,1.34297282 88,2.99826489 C88,4.65702718 86.6597222,6 85,6 C83.3402778,6 82,4.65702718 82,2.99826489 C82,1.34297282 83.3402778,0 85,0 Z M3,0 C4.65972222,0 6,1.34297282 6,2.99826489 C6,4.65702718 4.65972222,6 3,6 C1.34375,6 0,4.65702718 0,2.99826489 C0,1.34297282 1.34375,0 3,0 Z M3,20 C4.65972222,20 6,21.3429728 6,22.9982649 C6,24.6570272 4.65972222,26 3,26 C1.34375,26 0,24.6570272 0,22.9982649 C0,21.3429728 1.34375,20 3,20 Z M43,20 C44.6597222,20 46,21.3429728 46,22.9982649 C46,24.6570272 44.6597222,26 43,26 C41.3402778,26 40,24.6570272 40,22.9982649 C40,21.3429728 41.3402778,20 43,20 Z M23,20 C24.65625,20 26,21.3429728 26,22.9982649 C26,24.6570272 24.65625,26 23,26 C21.3402778,26 20,24.6570272 20,22.9982649 C20,21.3429728 21.3402778,20 23,20 Z M43,0 C44.6597222,0 46,1.34297282 46,2.99826489 C46,4.65702718 44.6597222,6 43,6 C41.3402778,6 40,4.65702718 40,2.99826489 C40,1.34297282 41.3402778,0 43,0 Z M23,0 C24.65625,0 26,1.34297282 26,2.99826489 C26,4.65702718 24.65625,6 23,6 C21.3402778,6 20,4.65702718 20,2.99826489 C20,1.34297282 21.3402778,0 23,0 Z" id="Combined-Shape" fill="#E7EBF1"></path>
                        </g>
                        <circle id="Oval-Copy-8" fill="#C3CFFA" cx="61.5" cy="344.428571" r="60.8928571"></circle>
                    </g>
                    <g id="GUI" transform="translate(53.000000, 40.000000)">
                        <g id="background-2">
                            <g id="Path">
                                <use fill="black" fill-opacity="1" filter="url(#filter-2)" xlink:href="#path-1"></use>
                                <use fill="#FFFFFF" fill-rule="evenodd" xlink:href="#path-1"></use>
                            </g>
                        </g>
                        <g id="scroll" transform="translate(25.000000, 367.000000)">
                            <rect id="Rectangle" fill="#F8F9FB" x="0.36" y="0.21" width="515" height="4" rx="2"></rect>
                            <rect id="Rectangle" fill="#D6DDE7" x="0.34" y="0.21" width="272" height="4" rx="2"></rect>
                        </g>
                        <path d="M8,0 L560,0 C564.418278,2.705415e-16 568,3.581722 568,8 L568,27 L0,27 L0,8 C-5.41083001e-16,3.581722 3.581722,8.11624501e-16 8,0 Z" id="Path" fill="#484E6A"></path>
                        <circle id="Oval" fill="#FFFFFF" cx="15.04" cy="13.39" r="3.5"></circle>
                        <circle id="Oval" fill="#FFFFFF" cx="30.32" cy="13.39" r="3.5"></circle>
                        <circle id="Oval" fill="#FFFFFF" cx="45.6" cy="13.39" r="3.5"></circle>
                        <rect id="Rectangle" fill="#F8F9FB" x="24.72" y="82.6" width="157" height="270" rx="9"></rect>
                        <path d="M181.72,91.53 L24.72,91.53 L24.72,89.9 C24.7748583,85.7979093 28.1276033,82.5076656 32.23,82.53 L174.23,82.53 C178.336286,82.5021475 181.695123,85.7939862 181.75,89.9 L181.72,91.53 Z" id="Path" fill="#4CA2F8"></path>
                        <rect id="Rectangle" fill="#D6DDE7" x="56.86" y="331.2" width="46" height="5" rx="2.3"></rect>
                        <rect id="Rectangle" fill="#D6DDE7" x="34.51" y="102.71" width="80" height="5" rx="2.3"></rect>
                        <g id="card1" transform="translate(34.000000, 121.000000)">
                            <path d="M128.6,108.75 L10.67,108.75 C5.14363865,108.711594 0.680842706,104.226484 0.67,98.7 L0.67,10.8 C0.680842706,5.27351583 5.14363865,0.788405911 10.67,0.75 L128.6,0.75 C134.126361,0.788405911 138.589157,5.27351583 138.6,10.8 L138.6,98.7 C138.589157,104.226484 134.126361,108.711594 128.6,108.75 Z" id="Path" fill="#FFFFFF"></path>
                            <rect id="Rectangle" fill="#D6DDE7" x="37.81" y="17.52" width="80" height="5" rx="2.3"></rect>
                            <rect id="Rectangle" fill="#E7EBF1" x="37.83" y="30.91" width="80" height="5" rx="2.3"></rect>
                            <rect id="Rectangle" fill="#E7EBF1" x="37.81" y="44.3" width="60" height="5" rx="2.3"></rect>
                            <rect id="Rectangle" fill="#FE97DA" x="37.66" y="57.69" width="31" height="5" rx="2.3"></rect>
                            <path d="M22,17.17 C21.7865955,17.0119277 21.519078,16.9452351 21.2564445,16.9846301 C20.993811,17.0240251 20.7576345,17.1662719 20.6,17.38 L18.83,19.78 L18.04,19.2 C17.5954352,18.9149289 17.0058361,19.024695 16.693644,19.4506521 C16.3814518,19.8766092 16.4543028,20.4718977 16.86,20.81 L18.46,22 C18.6734045,22.1580723 18.940922,22.2247649 19.2035555,22.1853699 C19.466189,22.1459749 19.7023655,22.0037281 19.86,21.79 L22.23,18.58 C22.552421,18.137329 22.4588029,17.517666 22.02,17.19" id="Path" fill="#D6DDE7"></path>
                            <circle id="Oval" stroke="#D6DDE7" stroke-width="2" opacity="0.5" cx="19.42" cy="19.6" r="8"></circle>
                            <circle id="Oval" fill="#79E2AA" cx="19.93" cy="89.13" r="11"></circle>
                            <g id="head" transform="translate(5.000000, 79.000000)">
                                <path d="M14.8,0.86 C10.07,1.24 8.41,3.01 8.18,7.86 C7.95,12.47 9.73,12.96 14.72,12.78 C18.56,12.65 21.04,12.29 20.99,8.12 C20.94,3.29 18.74,0.54 14.8,0.86 Z" id="Path" fill="#F9BBA5"></path>
                                <path d="M14.58,8.71 C14.486796,8.72419623 14.3984293,8.66406941 14.3774216,8.57216077 C14.3564139,8.48025212 14.4098838,8.38770553 14.5,8.36 C14.6791437,8.25835459 14.8467828,8.1376544 15,8 C14.8078373,7.58976687 14.583818,7.19522547 14.33,6.82 C14.2725708,6.76831867 14.2521547,6.68700851 14.278358,6.61432798 C14.3045613,6.54164745 14.3721656,6.49207101 14.4493613,6.48892559 C14.526557,6.48578018 14.5979705,6.52969222 14.63,6.6 C14.9205985,7.03847092 15.1747823,7.50001502 15.39,7.98 C15.418579,8.05358981 15.3986754,8.13718503 15.34,8.19 C15.1233747,8.38528379 14.8811458,8.55013402 14.62,8.68 L14.58,8.71 Z" id="Path" fill="#D26E63" opacity="0.4"></path>
                                <path d="M8.06,16 C9.6,18.77 14.06,19.45 17.22,18.94 C26.22,17.48 21.1,5.8 20.6,5.19 C20.3,4.82 19.69,4.84 19.5,5.66 C19.31,6.48 19.93,9.07 19.82,9.38 C19.54,10.21 17.19,10.5 16.32,10.6 C13.54,10.91 10.32,10.85 9.7,10.26 C9.08,9.67 9.19,8.2 9.28,6.75 C9.28,6.03 8.42,5.28 7.99,6.66 C7.82,7.21 6.83,13.82 8.06,16 Z" id="Path" fill="#B16D60"></path>
                                <path d="M12.07,8.87 C12.56,8.41 16.07,8.24 16.7,8.56 C17.6100376,9.08641759 18.2069362,10.0228023 18.3,11.07 C18.24,11.27 12.3,12.07 11.36,11.07 C10.92,10.61 11.94,9 12.07,8.87 Z" id="Path" fill="#B16D60"></path>
                                <g id="Group" transform="translate(0.000000, 4.000000)" fill="#FFFFFF" opacity="0.1">
                                    <path d="M6.52,15.28 C6.38672559,15.2773771 6.2737778,15.1811624 6.25,15.05 C6.23856741,14.9782695 6.2565183,14.9049581 6.29979814,14.8466244 C6.34307797,14.7882907 6.40803589,14.7498555 6.48,14.74 C10.413352,14.1420189 14.2251906,12.9164233 17.77,11.11 C20.2392153,9.92151285 22.4536723,8.26406647 24.29,6.23 C24.4005898,6.12953451 24.5694102,6.12953451 24.68,6.23 C24.7791071,6.33728069 24.7791071,6.50271931 24.68,6.61 C22.05,9.87 15.25,13.98 6.52,15.32 L6.52,15.28 Z" id="Path"></path>
                                    <path d="M5.62,13.2 L5.53,13.2 C5.37927899,13.1946137 5.25990379,13.0708172 5.26,12.92 C5.26,12.8483915 5.28844635,12.779716 5.33908117,12.7290812 C5.38971599,12.6784463 5.45839155,12.65 5.53,12.65 L5.62,12.65 C9.51623898,12.5716424 13.3247679,11.4790599 16.67,9.48 C18.92,8.18 21.67,6.03 22.82,4.15 C22.8552937,4.08697942 22.9152128,4.041481 22.9853968,4.02440922 C23.0555808,4.00733744 23.1297035,4.02023109 23.19,4.06 C23.3166691,4.13758003 23.3568838,4.30290709 23.28,4.43 C21.6205516,6.74718585 19.4515743,8.65273841 16.94,10 C13.5078537,12.0299036 9.60692855,13.1326387 5.62,13.2 Z" id="Path"></path>
                                    <path d="M3.74,9.39 L2.07,9.39 C1.9380715,9.36472813 1.84267827,9.2493272 1.84267827,9.115 C1.84267827,8.9806728 1.9380715,8.86527187 2.07,8.84 C11.44,9.08 18.07,7.32 22.98,3.31 C23.0852279,3.20577768 23.2547721,3.20577768 23.36,3.31 C23.4654196,3.41862829 23.4654196,3.59137171 23.36,3.7 C18.63,7.57 12.38,9.39 3.74,9.39 Z" id="Path"></path>
                                    <path d="M0.47,8.43 C0.324702644,8.43009969 0.205381351,8.3151977 0.2,8.17 C0.194504842,8.09935533 0.218080584,8.02952818 0.265273176,7.97667248 C0.312465768,7.92381678 0.379186468,7.89251191 0.45,7.89 C15.35,6.98 17.58,5.27 22.95,1.14 L23.41,0.78 C23.466922,0.73597347 23.5390641,0.716491539 23.6104106,0.725879237 C23.6817571,0.735266934 23.7464042,0.772747437 23.79,0.83 C23.8426368,0.879168987 23.8725176,0.947970677 23.8725176,1.02 C23.8725176,1.09202932 23.8426368,1.16083101 23.79,1.21 L23.33,1.57 C17.86,5.77 15.6,7.51 0.54,8.43 L0.47,8.43 Z" id="Path"></path>
                                    <path d="M3.56,4.69 C2.89,4.69 2.21,4.69 1.56,4.64 C1.41088312,4.64 1.29,4.51911688 1.29,4.37 C1.29,4.22088312 1.41088312,4.1 1.56,4.1 C10.4,4.54 20.01,1.78 21.87,0.45 C21.9485984,0.392837493 22.0517222,0.381948924 22.1405256,0.421435914 C22.229329,0.460922903 22.2903207,0.544786436 22.3005256,0.641435928 C22.3107306,0.738085419 22.2685984,0.83283751 22.19,0.89 C20.5,2.09 12.22,4.69 3.56,4.69 Z" id="Path"></path>
                                    <path d="M15,16.06 C14.8916035,16.0613611 14.7946811,15.9927078 14.76,15.89 C14.7302668,15.8252403 14.7284165,15.7511152 14.7548815,15.6849526 C14.7813466,15.61879 14.8338072,15.5663894 14.9,15.54 C18.3317446,14.0338672 21.4262126,11.8541375 24,9.13 C24.1072807,9.03089285 24.2727193,9.03089285 24.38,9.13 C24.4331791,9.18092884 24.4632515,9.25136734 24.4632515,9.325 C24.4632515,9.39863266 24.4331791,9.46907116 24.38,9.52 C21.7566085,12.2807136 18.6038772,14.4845646 15.11,16 C15.0807066,16.031266 15.0421469,16.0522986 15,16.06 Z" id="Path"></path>
                                </g>
                                <path d="M20.6,5.23 C20.3,4.86 19.69,4.88 19.5,5.7 C19.31,6.52 19.93,9.11 19.82,9.42 C19.71,9.73 18.95,10.15 18.17,10.33 C17.8984009,9.58835064 17.379172,8.96315664 16.7,8.56 C16.07,8.24 12.56,8.41 12.07,8.87 C11.6491126,9.41764108 11.3676958,10.0594086 11.25,10.74 C10.7036519,10.7320422 10.1690431,10.5802823 9.7,10.3 C9.05,9.7 9.19,8.24 9.28,6.79 C9.28,6.07 8.42,5.32 7.99,6.7 C7.82,7.21 6.83,13.82 8.06,16.04 C9.6,18.81 14.06,19.49 17.22,18.98 C26.2,17.52 21.1,5.84 20.6,5.23 Z" id="Path"></path>
                                <path d="M14.5,10.79 C14.2070577,10.7958306 13.9198625,10.708271 13.68,10.54 C13.4262443,10.344846 13.281257,10.040001 13.29,9.72 C13.29,9.62058875 13.3705887,9.54 13.47,9.54 C13.5694113,9.54 13.65,9.62058875 13.65,9.72 C13.6393166,9.92738559 13.7331671,10.1263485 13.9,10.25 C14.075561,10.37271 14.2858839,10.4358069 14.5,10.43 C15,10.43 15.5,10.16 15.5,9.63 C15.5,9.53058875 15.5805887,9.45 15.68,9.45 C15.7794113,9.45 15.86,9.53058875 15.86,9.63 C15.8371545,9.96561227 15.6800054,10.2778517 15.4240693,10.4961502 C15.1681332,10.7144486 14.8350144,10.8203789 14.5,10.79 Z" id="Path" fill="#60342B"></path>
                                <path d="M10.61,8.19 C10.5629839,8.18756509 10.5190828,8.16574194 10.4887574,8.1297306 C10.4584321,8.09371926 10.4443983,8.04674466 10.45,8 C10.4446419,7.75958358 10.5357204,7.52702168 10.7029213,7.35418474 C10.8701223,7.1813478 11.0995381,7.08261226 11.34,7.08 C11.8126513,7.07925356 12.2034471,7.44809454 12.23,7.92 C12.230542,8.01759524 12.1570547,8.09972816 12.06,8.11 C12.0132553,8.11560173 11.9662807,8.10156792 11.9302694,8.07124258 C11.8942581,8.04091724 11.8724349,7.9970161 11.87,7.95 C11.8592425,7.66512793 11.625075,7.43979696 11.34,7.44 C11.1,7.44 10.84,7.6 10.81,8.03 C10.8049809,8.07786168 10.7810054,8.12172053 10.7434267,8.15178343 C10.7058481,8.18184633 10.6577961,8.19560957 10.61,8.19 Z" id="Path" fill="#C1564D"></path>
                                <path d="M16.93,8.19 C16.8329453,8.17972816 16.759458,8.09759524 16.76,8 C16.7573332,7.75864869 16.8506596,7.52612464 17.0194455,7.35358798 C17.1882314,7.18105132 17.4186484,7.08263764 17.66,7.08 C18.1326513,7.07925356 18.5234471,7.44809454 18.55,7.92 C18.550542,8.01759524 18.4770547,8.09972816 18.38,8.11 C18.3322039,8.11560957 18.2841519,8.10184633 18.2465733,8.07178343 C18.2089946,8.04172053 18.1850191,7.99786168 18.18,7.95 C18.1745514,7.66672467 17.9433277,7.4399476 17.66,7.44 C17.42,7.44 17.16,7.6 17.12,8.03 C17.1175651,8.0770161 17.0957419,8.12091724 17.0597306,8.15124258 C17.0237193,8.18156792 16.9767447,8.19560173 16.93,8.19 Z" id="Path" fill="#C1564D"></path>
                                <path d="M9.8,5.89 C9.67442777,5.89427657 9.56250184,5.81136846 9.53,5.69 C9.49812942,5.54428816 9.58607894,5.39917145 9.73,5.36 L12.03,4.8 C12.1757118,4.76812942 12.3208285,4.85607894 12.36,5 C12.3780445,5.07032564 12.3670058,5.144955 12.3293751,5.20704553 C12.2917445,5.26913606 12.2306934,5.31345488 12.16,5.33 L9.86,5.89 L9.8,5.89 Z" id="Path" fill="#955343"></path>
                                <path d="M19,5.49 L18.94,5.49 L16.57,5 C16.4266411,4.96529582 16.3347878,4.82532892 16.36,4.68 C16.372095,4.60779154 16.4129957,4.54359073 16.4733274,4.50211265 C16.5336592,4.46063457 16.6082488,4.44543582 16.68,4.46 L19,5 C19.0695882,5.01205227 19.1312795,5.05189448 19.1708889,5.11036557 C19.2104984,5.16883665 19.2246176,5.24090512 19.21,5.31 C19.1783797,5.40402052 19.0977504,5.47313135 19,5.49 Z" id="Path" fill="#955343"></path>
                            </g>
                        </g>
                        <g id="add-icon" transform="translate(34.000000, 326.000000)">
                            <circle id="Oval" fill="#D6DDE7" cx="7.4" cy="7.76" r="7"></circle>
                            <path d="M8.38,6.78 L10.38,6.78 C10.9322847,6.78 11.38,7.22771525 11.38,7.78 C11.38,8.33228475 10.9322847,8.78 10.38,8.78 L8.38,8.78 L8.38,10.78 C8.38,11.3322847 7.93228475,11.78 7.38,11.78 C6.82771525,11.78 6.38,11.3322847 6.38,10.78 L6.38,8.78 L4.38,8.78 C3.82771525,8.78 3.38,8.33228475 3.38,7.78 C3.38,7.22771525 3.82771525,6.78 4.38,6.78 L6.38,6.78 L6.38,4.78 C6.38,4.22771525 6.82771525,3.78 7.38,3.78 C7.93228475,3.78 8.38,4.22771525 8.38,4.78 L8.38,6.78 Z" id="Path" fill="#FFFFFF"></path>
                        </g>
                        <rect id="Rectangle" fill="#F8F9FB" x="190.44" y="82.6" width="157" height="270" rx="9"></rect>
                        <path d="M347.44,91.53 L190.44,91.53 L190.44,89.9 C190.494879,85.7782299 193.878168,82.4799704 198,82.53 L340,82.53 C344.106286,82.5021475 347.465123,85.7939862 347.52,89.9 L347.44,91.53 Z" id="Path" fill="#AA8DF7"></path>
                        <rect id="Rectangle" fill="#D6DDE7" x="202.45" y="102.71" width="79.57" height="5" rx="2.3"></rect>
                        <g id="card_2" transform="translate(200.000000, 212.000000)">
                            <rect id="Rectangle" fill="#FFFFFF" x="0.36" y="0.94" width="138" height="80" rx="12"></rect>
                            <rect id="Rectangle" fill="#D6DDE7" x="37.53" y="17.52" width="80" height="5" rx="2.3"></rect>
                            <rect id="Rectangle" fill="#E7EBF1" x="37.55" y="30.91" width="80" height="5" rx="2.3"></rect>
                            <rect id="Rectangle" fill="#A3E0FC" x="37.38" y="45.14" width="31" height="5" rx="2.3"></rect>
                            <path d="M21.74,17.17 C21.5265955,17.0119277 21.259078,16.9452351 20.9964445,16.9846301 C20.733811,17.0240251 20.4976345,17.1662719 20.34,17.38 L18.57,19.78 L17.78,19.2 C17.3354352,18.9149289 16.7458361,19.024695 16.433644,19.4506521 C16.1214518,19.8766092 16.1943028,20.4718977 16.6,20.81 L18.18,21.98 C18.3934045,22.1380723 18.660922,22.2047649 18.9235555,22.1653699 C19.186189,22.1259749 19.4223655,21.9837281 19.58,21.77 L21.95,18.56 C22.272421,18.117329 22.1788029,17.497666 21.74,17.17" id="Path" fill="#D6DDE7"></path>
                            <circle id="Oval" stroke="#D6DDE7" stroke-width="2" opacity="0.5" cx="19.14" cy="19.6" r="8"></circle>
                            <circle id="Oval" fill="#FCD56B" cx="19.37" cy="62.35" r="11"></circle>
                            <g id="character" transform="translate(10.000000, 52.000000)">
                                <path d="M15.46,13.45 C20.52,6.53 15.81,6.3 16,6.3 C16.55,4.44 15.49,3.48 13.67,3.76 C13.67,2.68 12.96,2.17 11.41,2.34 C10.6949449,2.37807598 9.99464399,2.55825047 9.35,2.87 C9.6,1.5 8.96,0.87 7.82,0.87 C3.55,0.72 2.82,6.04 2.82,6.04 C0.82,6.04 -0.61,10.19 2.62,13.49 L15.46,13.45 Z" id="Path" fill="#383753"></path>
                                <path d="M12,6.74 C9.73,6.74 6.23,6.18 4.13,7.35 C3.51,7.69 3.45,8.5 3.13,9.15 C2.69,10.15 1.33,17.15 5.73,18.24 C6.54,18.44 11.65,18.5 13.24,17.75 C13.707639,17.5294028 14.1233867,17.2124803 14.46,16.82 C15.63,15.45 15.46,12.76 15.38,10.97 C15.18,7.15 14.11,6.74 11.96,6.74 L12,6.74 Z" id="Path" fill="#B16D60"></path>
                                <path d="M5.2,6.47 C6.20326993,7.73919242 7.73216195,8.47951223 9.35,8.47951223 C10.9678381,8.47951223 12.4967301,7.73919242 13.5,6.47 L5.2,6.47 Z" id="Path" fill="#383753"></path>
                                <path d="M6.72,12.86 C6.59771641,12.8692004 6.48517858,12.930173 6.41068745,13.0275845 C6.33619632,13.124996 6.30683964,13.2495777 6.33,13.37 C6.38843143,13.5822873 6.60744115,13.7074357 6.82,13.65 C6.962117,13.609872 7.07550116,13.5025696 7.1233953,13.3628784 C7.17128944,13.2231871 7.1475975,13.0688872 7.06,12.95 C6.9659428,12.8704446 6.84109895,12.8373977 6.72,12.86 Z" id="Path" fill="#813F31"></path>
                                <path d="M11.91,12.85 C11.7875589,12.8933488 11.6898205,12.9874891 11.6419118,13.108219 C11.5940031,13.2289488 11.6005977,13.3644912 11.66,13.48 C11.7163325,13.5775531 11.809492,13.6483877 11.9185535,13.6765933 C12.027615,13.7047988 12.1434355,13.6880108 12.24,13.63 C12.3623932,13.5581879 12.4375772,13.4269052 12.4375772,13.285 C12.4375772,13.1430948 12.3623932,13.0118121 12.24,12.94 C12.1385566,12.844177 11.9936461,12.8098561 11.86,12.85 L11.91,12.85 Z" id="Path" fill="#813F31"></path>
                                <path d="M9.42,14.63 L9.14,14.63 C9.04058875,14.63 8.96,14.5494113 8.96,14.45 C8.96,14.3505887 9.04058875,14.27 9.14,14.27 C9.4420435,14.3152243 9.75072001,14.273605 10.03,14.15 L9.65,11.74 C9.63928202,11.6756922 9.66368601,11.6105513 9.71401922,11.5691154 C9.76435243,11.5276794 9.83296806,11.5162435 9.89401924,11.5391154 C9.95507043,11.5619873 9.99928205,11.6156922 10.01,11.68 L10.42,14.22 C10.431441,14.2905625 10.4000429,14.3612082 10.34,14.4 C10.0599621,14.5589203 9.74187832,14.6384412 9.42,14.63 Z" id="Path" fill="#813F31" opacity="0.4"></path>
                                <path d="M9.3,16.36 C8.80668271,16.3612161 8.32368709,16.2187497 7.91,15.95 C7.84598246,15.8751552 7.84598246,15.7648448 7.91,15.69 C7.96887671,15.6057522 8.08407538,15.5835986 8.17,15.64 C8.63663194,15.9440861 9.203061,16.0552209 9.75,15.95 C9.85196403,15.9316588 9.94982584,15.9983827 9.97,16.1 C9.97865597,16.147829 9.96760094,16.1971257 9.93934928,16.2366781 C9.91109763,16.2762304 9.86805102,16.302676 9.82,16.31 C9.64897861,16.3453811 9.47462972,16.3621454 9.3,16.36 Z" id="Path" fill="#813F31"></path>
                                <path d="M5.37,11.73 C5.26218371,11.7295322 5.15993453,11.6820593 5.09,11.6 C4.95283751,11.4538016 4.95283751,11.2261984 5.09,11.08 C5.5844262,10.6406039 6.21020939,10.3769312 6.87,10.33 C7.07434536,10.33 7.24,10.4956546 7.24,10.7 C7.24,10.9043454 7.07434536,11.07 6.87,11.07 C6.37353661,11.1026696 5.90207911,11.2996966 5.53,11.63 C5.48716894,11.6777606 5.4316995,11.712429 5.37,11.73 Z" id="Path" fill="#383753"></path>
                                <path d="M13.52,11.73 C13.4266659,11.7313373 13.3366645,11.6953367 13.27,11.63 C12.8979209,11.2996966 12.4264634,11.1026696 11.93,11.07 C11.7256546,11.07 11.56,10.9043454 11.56,10.7 C11.56,10.4956546 11.7256546,10.33 11.93,10.33 C12.5897906,10.3769312 13.2155738,10.6406039 13.71,11.08 C13.8523348,11.2241134 13.8523348,11.4558866 13.71,11.6 C13.6637107,11.6641091 13.5965235,11.7100793 13.52,11.73 Z" id="Path" fill="#383753"></path>
                            </g>
                        </g>
                        <g id="card_2-2" transform="translate(200.000000, 121.000000)" fill="#D6DDE7">
                            <rect id="Rectangle" x="0.36" y="0.94" width="138" height="80" rx="12"></rect>
                        </g>
                        <rect id="Rectangle" fill="#F8F9FB" x="356.16" y="82.6" width="157" height="270" rx="9"></rect>
                        <path d="M513.16,91.53 L356.16,91.53 L356.16,89.9 C356.214877,85.7939862 359.573714,82.5021475 363.68,82.53 L505.68,82.53 C509.786286,82.5021475 513.145123,85.7939862 513.2,89.9 L513.16,91.53 Z" id="Path" fill="#6A84ED"></path>
                        <rect id="Rectangle" fill="#D6DDE7" x="367.95" y="102.71" width="80" height="5" rx="2.3"></rect>
                        <g id="cut-column" transform="translate(519.000000, 73.000000)">
                            <mask id="mask-4" fill="white">
                                <use xlink:href="#path-3"></use>
                            </mask>
                            <use id="Path" fill="#FFFFFF" xlink:href="#path-3"></use>
                            <g id="cut_column" mask="url(#mask-4)">
                                <g transform="translate(2.000000, 9.000000)">
                                    <rect id="Rectangle" fill="#F8F9FB" x="0.88" y="0.6" width="157" height="270" rx="9"></rect>
                                    <path d="M157.88,9.53 L0.88,9.53 L0.88,7.9 C0.934877168,3.79398617 4.29371393,0.502147484 8.4,0.53 L150.4,0.53 C154.506286,0.502147484 157.865123,3.79398617 157.92,7.9 L157.88,9.53 Z" id="Path" fill="#81EBF1"></path>
                                    <rect id="Rectangle" fill="#D6DDE7" x="12.67" y="20.71" width="80" height="5" rx="2.3"></rect>
                                    <g id="card1-2" stroke-width="1" fill="none" transform="translate(10.000000, 39.000000)">
                                        <path d="M128.76,108.75 L10.84,108.75 C5.31363865,108.711594 0.850842706,104.226484 0.84,98.7 L0.84,10.8 C0.850842706,5.27351583 5.31363865,0.788405911 10.84,0.75 L128.76,0.75 C134.286361,0.788405911 138.749157,5.27351583 138.76,10.8 L138.76,98.7 C138.749157,104.226484 134.286361,108.711594 128.76,108.75 Z" id="Path" fill="#FFFFFF"></path>
                                        <rect id="Rectangle" fill="#D6DDE7" x="37.97" y="17.52" width="80" height="5" rx="2.3"></rect>
                                        <rect id="Rectangle" fill="#E7EBF1" x="37.99" y="30.91" width="80" height="5" rx="2.3"></rect>
                                        <rect id="Rectangle" fill="#E7EBF1" x="37.97" y="44.3" width="60" height="5" rx="2.3"></rect>
                                        <rect id="Rectangle" fill="#AA8DF7" x="37.82" y="57.69" width="31" height="5" rx="2.3"></rect>
                                        <path d="M22.16,17.18 C21.717329,16.857579 21.097666,16.9511971 20.77,17.39 L19,19.78 L18.22,19.21 C17.9418802,18.9349215 17.528903,18.8472646 17.1630229,18.9856504 C16.7971429,19.1240361 16.5455453,19.4630532 16.5190822,19.8533333 C16.492619,20.2436133 16.6961496,20.6134906 17.04,20.8 L18.62,21.97 C19.062671,22.292421 19.682334,22.1988029 20.01,21.76 L22.36,18.57 C22.682421,18.127329 22.5888029,17.507666 22.15,17.18" id="Path" fill="#D6DDE7"></path>
                                        <circle id="Oval" stroke="#D6DDE7" stroke-width="2" opacity="0.5" cx="19.58" cy="19.6" r="8"></circle>
                                        <circle id="Oval" fill="#AA8DF7" cx="20.09" cy="89.13" r="11"></circle>
                                        <g id="character-2" transform="translate(11.000000, 79.000000)">
                                            <path d="M15.59,13.61 C15.88,13.44 20.22,4.61 14.08,5.04 C14.34,2.81 13.08,0.25 10.82,0.25 C8,0.25 3.32,4.31 0.63,4.02 C-0.31,3.78 0.3,5.21 0.93,6.02 C2.31,7.77 2.43,6.48 1.35,7.62 C0.971778587,8.02637036 0.73957433,8.54707081 0.69,9.1 C0.42,11.33 3.47,13.89 3.43,13.89 L15.59,13.61 Z" id="Path" fill="#FFD46A"></path>
                                            <path d="M4.88,17.2 C7.54535844,17.799732 10.3153144,17.7551659 12.96,17.07 C15.43,16.25 15.78,15.07 15.56,11.14 C15.24,5.78 13.3,6.7 6.03,6.9 C3.68,6.97 3.35,9.56 3.39,11.9 C3.41,13.4 3.25,16.75 4.88,17.2 Z" id="Path" fill="#F9BBA5"></path>
                                            <path d="M5.28,6.69 C5.28,6.69 8.67,9.91 13.28,6.5 L5.28,6.69 Z" id="Path" fill="#FFD46A"></path>
                                            <path d="M6.74,12.19 C6.60903374,12.201976 6.48907586,12.2682757 6.40925902,12.3727978 C6.32944218,12.4773198 6.29706844,12.610502 6.32,12.74 C6.38345761,12.9698931 6.618515,13.1073795 6.85,13.05 C7.00376657,13.0057178 7.1262243,12.8891447 7.17801947,12.7377435 C7.22981463,12.5863423 7.20442129,12.4191886 7.11,12.29 C7.00916399,12.2005046 6.87219028,12.1634846 6.74,12.19 Z" id="Path" fill="#C1564D"></path>
                                            <path d="M12,12.18 C11.866291,12.228096 11.7593616,12.3308112 11.7059311,12.4624793 C11.6525006,12.5941474 11.6576163,12.7423302 11.72,12.87 C11.8537824,13.0892418 12.1387841,13.1604923 12.36,13.03 C12.4956193,12.9539027 12.5795837,12.8105101 12.5795837,12.655 C12.5795837,12.4994899 12.4956193,12.3560973 12.36,12.28 C12.2512175,12.1754401 12.0947076,12.137267 11.95,12.18 L12,12.18 Z" id="Path" fill="#C1564D"></path>
                                            <path d="M8.22,14.57 C8.88,16.31 10.22,16.28 10.62,14.57 C10.6387283,14.5039402 10.6255396,14.4329244 10.5843417,14.3779937 C10.5431437,14.3230631 10.4786613,14.2905176 10.41,14.29 L8.41,14.29 C8.34324633,14.2925247 8.28167595,14.3266581 8.24416688,14.3819347 C8.2066578,14.4372112 8.19768514,14.5070359 8.22,14.57 Z" id="Path" fill="#C1564D"></path>
                                            <path d="M9.26,13.79 C9.21312588,13.7900812 9.1682983,13.7708044 9.13611338,13.7367263 C9.10392845,13.7026481 9.08724262,13.656793 9.09,13.61 C9.08991883,13.5631259 9.10919559,13.5182983 9.14327374,13.4861134 C9.1773519,13.4539285 9.22320698,13.4372426 9.27,13.44 C9.45480584,13.4357056 9.63344017,13.3726581 9.78,13.26 C9.78458075,13.2368915 9.78458075,13.2131085 9.78,13.19 C9.72748663,13.1344314 9.66678516,13.0872192 9.6,13.05 C9.2277808,12.8659071 9.02045775,12.4593913 9.09,12.05 L9.09,11.18 C9.08724262,11.133207 9.10392845,11.0873519 9.13611338,11.0532737 C9.1682983,11.0191956 9.21312588,10.9999188 9.26,11 C9.35941125,11 9.44,11.0805887 9.44,11.18 L9.44,12.07 C9.44,12.07 9.44,12.07 9.44,12.07 C9.38,12.43 9.58,12.58 9.8,12.73 C10.02,12.88 10.14,12.96 10.13,13.17 C10.1293197,13.2906692 10.0742004,13.4045824 9.98,13.48 C9.78147003,13.6610201 9.52793583,13.7701806 9.26,13.79 Z" id="Path" fill="#D26E63" opacity="0.4"></path>
                                            <path d="M6.66,14.43 C6.22450601,14.4280364 5.79958142,14.2956829 5.44,14.05 C4.79409708,13.6044504 4.57632492,12.750442 4.93,12.05 C5.30390288,11.2913795 6.08449876,10.819119 6.93,10.84 C7.63297874,10.8607564 8.24446682,11.3274184 8.45,12 C8.65579396,12.6911627 8.45909233,13.4394002 7.94,13.94 C7.59072274,14.2594409 7.13330375,14.4345466 6.66,14.43 Z M5.25,12.18 C4.95231163,12.7315 5.12090522,13.4188431 5.64,13.77 C6.27288069,14.2222018 7.1334189,14.1808297 7.72,13.67 C8.14635315,13.2644868 8.31204974,12.6556482 8.15,12.09 C7.98935523,11.5530363 7.50036625,11.181243 6.94,11.17 C6.2303778,11.1472756 5.57165173,11.5370543 5.25,12.17 L5.25,12.18 Z" id="Shape" fill="#4A4F6A" fill-rule="nonzero"></path>
                                            <path d="M12.18,14.43 C11.744506,14.4280364 11.3195814,14.2956829 10.96,14.05 C10.3102404,13.6071443 10.0916492,12.7499239 10.45,12.05 C10.8219768,11.2896153 11.6038299,10.8165942 12.45,10.84 C13.1663014,10.841468 13.7966068,11.3131804 14,12 C14.2180096,12.6909155 14.0196072,13.4456229 13.49,13.94 C13.1354364,14.2703418 12.6643209,14.4465605 12.18,14.43 Z M10.77,12.18 C10.467303,12.7308498 10.6367659,13.4217371 11.16,13.77 C11.7928807,14.2222018 12.6534189,14.1808297 13.24,13.67 C13.6668598,13.264741 13.8292813,12.6537269 13.66,12.09 C13.5032321,11.554593 13.0177484,11.1823888 12.46,11.17 C11.7497369,11.1447683 11.0897625,11.5352856 10.77,12.17 L10.77,12.18 Z" id="Shape" fill="#4A4F6A" fill-rule="nonzero"></path>
                                            <path d="M10.45,12.62 L10.4,12.62 C9.76965348,12.4145376 9.09034652,12.4145376 8.46,12.62 C8.37159681,12.6556247 8.27074754,12.616162 8.23,12.53 C8.21009536,12.4877316 8.20846386,12.4391343 8.22548881,12.3956261 C8.24251377,12.3521178 8.27669441,12.317534 8.32,12.3 C9.02672264,12.0592291 9.79327736,12.0592291 10.5,12.3 C10.5895463,12.3328224 10.6408846,12.4269426 10.62,12.52 C10.5882632,12.5841753 10.5215112,12.6234412 10.45,12.62 Z" id="Path" fill="#4A4F6A"></path>
                                            <path d="M3.38,13.15 C3.28988213,13.150156 3.21530092,13.079962 3.21,12.99 C3.20408849,12.8941185 3.27451109,12.8104917 3.37,12.8 L4.91,12.66 C4.95514515,12.6543718 5.00066255,12.6670735 5.03637051,12.695264 C5.07207846,12.7234545 5.09499717,12.7647813 5.1,12.81 C5.10562821,12.8551451 5.09292646,12.9006626 5.06473597,12.9363705 C5.03654549,12.9720785 4.99521872,12.9949972 4.95,13 L3.4,13.15 L3.38,13.15 Z" id="Path" fill="#4A4F6A"></path>
                                            <path d="M15.61,13.17 L13.9,13 C13.8061116,13 13.73,12.9238884 13.73,12.83 C13.73,12.7361116 13.8061116,12.66 13.9,12.66 L15.61,12.82 C15.7054889,12.8304917 15.7759115,12.9141185 15.77,13.01 C15.7610457,13.094379 15.694379,13.1610457 15.61,13.17 Z" id="Path" fill="#4A4F6A"></path>
                                            <g id="Group" opacity="0.3" transform="translate(1.000000, 2.000000)" fill="#FFFFFF">
                                                <path d="M4.75,2.6 C4.65988213,2.60015604 4.58530092,2.52996197 4.58,2.44 C4.57408849,2.34411851 4.64451109,2.26049167 4.74,2.25 C6.52763816,2.1494367 8.23988136,1.49598878 9.64,0.38 C9.70974188,0.312691118 9.82025812,0.312691118 9.89,0.38 C9.95730888,0.449741877 9.95730888,0.560258123 9.89,0.63 C8.4329424,1.7924336 6.65091106,2.47379852 4.79,2.58 L4.75,2.6 Z" id="Path"></path>
                                                <path d="M7.63,4.21 C7.55797103,4.2135826 7.49244784,4.16853541 7.47,4.1 C7.45009536,4.05773157 7.44846386,4.00913428 7.46548881,3.96562606 C7.48251377,3.92211783 7.51669441,3.88753399 7.56,3.87 C8.5759558,3.44160426 9.49700858,2.81624001 10.27,2.03 C10.3363412,1.96388793 10.4436588,1.96388793 10.51,2.03 C10.5773089,2.09974188 10.5773089,2.21025812 10.51,2.28 C9.70152633,3.10169694 8.74014712,3.75733718 7.68,4.21 L7.63,4.21 Z" id="Path"></path>
                                                <path d="M1.34,7.38 C1.25121561,7.38124046 1.17479018,7.3175526 1.16,7.23 C1.09938008,6.66124561 1.21826944,6.08777929 1.5,5.59 C1.55140504,5.50948441 1.65675292,5.48314744 1.74,5.53 C1.77978247,5.55121732 1.80950701,5.58736916 1.82263456,5.63050253 C1.83576211,5.67363589 1.83121732,5.72021753 1.81,5.76 C1.56253668,6.1934206 1.4575895,6.69366881 1.51,7.19 C1.51641212,7.28251824 1.45148028,7.36476524 1.36,7.38 L1.34,7.38 Z" id="Path"></path>
                                                <path d="M15.22,6.64 C15.1245141,6.63468714 15.0498523,6.55563344 15.05,6.46 C15.0579717,5.94954425 14.9627332,5.44273938 14.77,4.97 C14.7500954,4.92773157 14.7484639,4.87913428 14.7654888,4.83562606 C14.7825138,4.79211783 14.8166944,4.75753399 14.86,4.74 C14.9509023,4.71081263 15.0493468,4.75361459 15.09,4.84 C15.3030717,5.3566084 15.4085542,5.91124189 15.4,6.47 C15.3946871,6.56548586 15.3156334,6.64014769 15.22,6.64 Z" id="Path"></path>
                                            </g>
                                        </g>
                                    </g>
                                    <rect id="Rectangle" fill="#D6DDE7" x="32.86" y="249.2" width="46" height="5" rx="2.3"></rect>
                                    <g id="add-icon-2" stroke-width="1" fill="none" transform="translate(10.000000, 244.000000)">
                                        <circle id="Oval" fill="#D6DDE7" cx="7.4" cy="7.76" r="7"></circle>
                                        <path d="M8.38,6.78 L10.38,6.78 C10.9322847,6.78 11.38,7.22771525 11.38,7.78 C11.38,8.33228475 10.9322847,8.78 10.38,8.78 L8.38,8.78 L8.38,10.78 C8.38,11.3322847 7.93228475,11.78 7.38,11.78 C6.82771525,11.78 6.38,11.3322847 6.38,10.78 L6.38,8.78 L4.38,8.78 C3.82771525,8.78 3.38,8.33228475 3.38,7.78 C3.38,7.22771525 3.82771525,6.78 4.38,6.78 L6.38,6.78 L6.38,4.78 C6.38,4.22771525 6.82771525,3.78 7.38,3.78 C7.93228475,3.78 8.38,4.22771525 8.38,4.78 L8.38,6.78 Z" id="Path" fill="#FFFFFF"></path>
                                    </g>
                                </g>
                            </g>
                        </g>
                        <g id="card_2-3" transform="translate(366.000000, 230.000000)">
                            <rect id="Rectangle" fill="#FFFFFF" x="0.08" y="0.66" width="138" height="80" rx="12"></rect>
                            <rect id="Rectangle" fill="#D6DDE7" x="37.25" y="17.24" width="80" height="5" rx="2.3"></rect>
                            <rect id="Rectangle" fill="#E7EBF1" x="37.27" y="30.63" width="80" height="5" rx="2.3"></rect>
                            <rect id="Rectangle" fill="#FE97DA" x="37.1" y="44.86" width="31" height="5" rx="2.3"></rect>
                            <path d="M21.46,16.88 C21.2453654,16.7229703 20.9770214,16.6579044 20.7143011,16.699189 C20.4515809,16.7404736 20.2161269,16.8847078 20.06,17.1 L18.29,19.5 L17.5,18.92 C17.0554352,18.6349289 16.4658361,18.744695 16.153644,19.1706521 C15.8414518,19.5966092 15.9143028,20.1918977 16.32,20.53 L17.9,21.7 C18.1134045,21.8580723 18.380922,21.9247649 18.6435555,21.8853699 C18.906189,21.8459749 19.1423655,21.7037281 19.3,21.49 L21.67,18.28 C21.8280723,18.0665955 21.8947649,17.799078 21.8553699,17.5364445 C21.8159749,17.273811 21.6737281,17.0376345 21.46,16.88" id="Path" fill="#D6DDE7"></path>
                            <circle id="Oval" stroke="#D6DDE7" stroke-width="2" opacity="0.5" cx="18.86" cy="19.32" r="8"></circle>
                            <circle id="Oval" fill="#79E2AA" cx="19.23" cy="62.39" r="11"></circle>
                            <g id="head-2" transform="translate(4.000000, 53.000000)">
                                <path d="M15.1,0.12 C10.36,0.5 8.71,2.26 8.47,7.07 C8.25,11.68 10.03,12.18 15.02,12 C18.86,11.86 21.33,11.51 21.29,7.34 C21.24,2.55 19,-0.2 15.1,0.12 Z" id="Path" fill="#F9BBA5"></path>
                                <path d="M14.87,8 C14.7989135,8.00039277 14.7350886,7.95651315 14.71,7.89 C14.6897621,7.84628506 14.6878911,7.79628218 14.7048055,7.75117706 C14.7217199,7.70607195 14.7560082,7.6696288 14.8,7.65 C14.9895051,7.55805067 15.1674181,7.44391786 15.33,7.31 C15.1364564,6.8972824 14.9125062,6.49952017 14.66,6.12 C14.6140796,6.06877692 14.6013708,5.99586011 14.6272542,5.93212213 C14.6531377,5.86838415 14.7130864,5.82497301 14.7817185,5.82026873 C14.8503505,5.81556445 14.9156618,5.85038982 14.95,5.91 C15.2390019,6.34772428 15.4963251,6.80555909 15.72,7.28 C15.748579,7.35358981 15.7286754,7.43718503 15.67,7.49 C15.4459058,7.6831498 15.201075,7.85084215 14.94,7.99 L14.87,8 Z" id="Path" fill="#D26E63" opacity="0.4"></path>
                                <path d="M8.36,15.3 C9.9,18.06 14.41,18.74 17.52,18.24 C26.52,16.77 21.4,5.1 20.9,4.48 C20.6,4.11 19.98,4.13 19.79,4.96 C19.64,5.63 20.23,8.36 20.12,8.68 C19.83,9.51 17.49,9.79 16.61,9.89 C13.84,10.21 10.61,10.15 9.99,9.55 C9.37,8.95 9.48,7.5 9.57,6.05 C9.62,5.32 8.72,4.57 8.28,5.95 C8.12,6.47 7.13,13.08 8.36,15.3 Z" id="Path" fill="#B16D60"></path>
                                <path d="M12.36,8.13 C12.85,7.66 16.36,7.49 17,7.81 C17.9103625,8.34090605 18.5067844,9.2802705 18.6,10.33 C18.54,10.52 12.6,11.27 11.66,10.33 C11.21,9.86 12.24,8.24 12.36,8.13 Z" id="Path" fill="#B16D60"></path>
                                <g id="Group" transform="translate(0.000000, 3.000000)" fill="#FFFFFF" opacity="0.1">
                                    <path d="M6.82,15.53 C6.68520264,15.5314863 6.569963,15.4333192 6.55,15.3 C6.53181062,15.1518871 6.63297526,15.0155347 6.78,14.99 C10.7155239,14.4012792 14.5288225,13.1752142 18.07,11.36 C20.5369119,10.1720841 22.7508752,8.51840295 24.59,6.49 C24.6838884,6.37402021 24.8540202,6.3561116 24.97,6.45000001 C25.0859798,6.54388841 25.1038884,6.7140202 25.01,6.83 C22.39,10.08 15.59,14.2 6.86,15.53 L6.82,15.53 Z" id="Path"></path>
                                    <path d="M5.91,13.45 L5.82,13.45 C5.67088312,13.45 5.55,13.3291169 5.55,13.18 C5.5553863,13.029279 5.6791828,12.9099038 5.83,12.91 L5.91,12.91 C9.82147105,12.840206 13.6458971,11.7435717 17,9.73 C19.24,8.43 22,6.28 23.14,4.41 C23.2213944,4.28204526 23.3898613,4.2421452 23.52,4.32 C23.6466691,4.39758003 23.6868838,4.56290709 23.61,4.69 C21.940814,6.9827325 19.7730318,8.86671987 17.27,10.2 C13.8328253,12.2584078 9.91576803,13.3790448 5.91,13.45 Z" id="Path"></path>
                                    <path d="M4,9.64 C3.45,9.64 2.9,9.64 2.33,9.64 C2.2574344,9.64021504 2.18808079,9.61009426 2.13870323,9.55691843 C2.08932567,9.50374259 2.06441769,9.43235089 2.07,9.36 C2.06994767,9.28927561 2.09870887,9.22158176 2.14965309,9.17252436 C2.20059731,9.12346697 2.26932792,9.09727981 2.34,9.1 C11.71,9.34 18.34,7.58 23.25,3.56 C23.3250258,3.49747852 23.4277073,3.47973207 23.5193653,3.51344555 C23.6110234,3.54715904 23.677733,3.62721059 23.6943653,3.72344555 C23.7109976,3.81968052 23.6750258,3.91747852 23.6,3.98 C18.93,7.82 12.67,9.64 4,9.64 Z" id="Path"></path>
                                    <path d="M0.77,8.68 C0.701030048,8.68270378 0.633815448,8.65787206 0.583169137,8.61097733 C0.532522826,8.5640826 0.502601751,8.49897388 0.5,8.43 C0.494494596,8.35834602 0.517782253,8.2874537 0.564705871,8.2330223 C0.611629489,8.17859091 0.678316887,8.14511216 0.75,8.14 C15.65,7.23 17.87,5.52 23.25,1.39 L23.71,1.04 C23.8287412,0.948873031 23.998873,0.971258798 24.09,1.09000001 C24.181127,1.20874123 24.1587412,1.37887301 24.04,1.47 L23.58,1.82 C18.11,6.03 15.85,7.77 0.78,8.68 L0.77,8.68 Z" id="Path"></path>
                                    <path d="M3.86,5 C3.19,5 2.51,5 1.86,4.95 C1.78831689,4.94488784 1.72162949,4.91140909 1.67470587,4.8569777 C1.62778225,4.8025463 1.6044946,4.73165398 1.61,4.66 C1.61251191,4.58918647 1.64381678,4.52246577 1.69667248,4.47527318 C1.74952818,4.42808058 1.81935533,4.40450484 1.89,4.41 C10.73,4.84 20.34,2.08 22.2,0.75 C22.2781212,0.684920175 22.3861795,0.669246522 22.4795717,0.709448672 C22.5729638,0.749650821 22.6358517,0.838911019 22.642277,0.940385248 C22.6487023,1.04185948 22.5975754,1.13833905 22.51,1.19 C20.8,2.35 12.52,5 3.86,5 Z" id="Path"></path>
                                    <path d="M15.3,16.31 C15.1929283,16.3088566 15.0958844,16.2467486 15.05,16.15 C14.9931773,16.0118669 15.0547834,15.8534512 15.19,15.79 C18.636122,14.2931427 21.7448124,12.1163792 24.33,9.39 C24.4349439,9.29848667 24.5922692,9.30178688 24.693283,9.39762057 C24.7942969,9.49345426 24.8058671,9.65038823 24.72,9.76 C22.0852298,12.5381141 18.9192806,14.7586994 15.41,16.29 C15.3756674,16.3060278 15.3377772,16.312917 15.3,16.31 Z" id="Path"></path>
                                </g>
                                <path d="M20.9,4.48 C20.6,4.11 19.98,4.13 19.79,4.96 C19.64,5.63 20.23,8.36 20.12,8.68 C20.01,9 19.24,9.4 18.46,9.59 C18.1929315,8.8461856 17.6771987,8.21741543 17,7.81 C16.36,7.49 12.85,7.66 12.36,8.13 C11.9412866,8.67780101 11.6631778,9.31985467 11.55,10 C10.9994705,9.98982725 10.4613664,9.83460491 9.99,9.55 C9.35,8.95 9.48,7.5 9.57,6.05 C9.62,5.32 8.72,4.57 8.28,5.95 C8.12,6.47 7.13,13.08 8.36,15.3 C9.9,18.06 14.41,18.74 17.52,18.24 C26.5,16.77 21.4,5.1 20.9,4.48 Z" id="Path"></path>
                                <path d="M14.8,10.05 C14.5050814,10.0588997 14.215908,9.96721055 13.98,9.79 C13.7291218,9.59694803 13.5844663,9.29650957 13.59,8.98 C13.59,8.88058875 13.6705887,8.8 13.77,8.8 C13.8694113,8.8 13.95,8.88058875 13.95,8.98 C13.9420547,9.18460719 14.030986,9.38099702 14.19,9.51 C14.3703894,9.63044015 14.5831225,9.69321386 14.8,9.69 C15.0405519,9.71796457 15.2822232,9.64780631 15.4704062,9.49537804 C15.6585893,9.34294978 15.7774028,9.12111533 15.8,8.88 C15.8,8.78058875 15.8805887,8.7 15.98,8.7 C16.0794113,8.7 16.16,8.78058875 16.16,8.88 C16.1397332,9.21739825 15.9836925,9.53220707 15.7274583,9.75264384 C15.4712241,9.9730806 15.1366408,10.0803527 14.8,10.05 Z" id="Path" fill="#60342B"></path>
                                <path d="M10.9,7.45 C10.7989889,7.43948078 10.7241086,7.35138634 10.73,7.25 C10.7299699,6.75130036 11.1313305,6.34548021 11.63,6.34 C12.0991533,6.33411254 12.488465,6.70130425 12.51,7.17 C12.5156096,7.21779606 12.5018463,7.26584812 12.4717834,7.30342674 C12.4417205,7.34100537 12.3978617,7.36498093 12.35,7.37 C12.2486137,7.37589138 12.1605192,7.30101111 12.15,7.2 C12.1392479,6.92065128 11.9095555,6.69979315 11.63,6.7 C11.39,6.7 11.13,6.85 11.09,7.28 C11.0874203,7.32776562 11.0659338,7.37253991 11.030285,7.4044362 C10.9946362,7.43633248 10.9477574,7.45272712 10.9,7.45 Z" id="Path" fill="#C1564D"></path>
                                <path d="M17.23,7.45 C17.1289889,7.43948078 17.0541086,7.35138634 17.06,7.25 C17.0599699,6.75130036 17.4613305,6.34548021 17.96,6.34 C18.4291533,6.33411254 18.818465,6.70130425 18.84,7.17 C18.8456096,7.21779606 18.8318463,7.26584812 18.8017834,7.30342674 C18.7717205,7.34100537 18.7278617,7.36498093 18.68,7.37 C18.5786137,7.37589138 18.4905192,7.30101111 18.48,7.2 C18.4692479,6.92065128 18.2395555,6.69979315 17.96,6.7 C17.72,6.7 17.46,6.85 17.42,7.28 C17.4174203,7.32776562 17.3959338,7.37253991 17.360285,7.4044362 C17.3246362,7.43633248 17.2777574,7.45272712 17.23,7.45 Z" id="Path" fill="#C1564D"></path>
                                <path d="M10.09,5.15 C9.96521722,5.14849631 9.85772246,5.06167362 9.83,4.94 C9.81195554,4.86967436 9.82299425,4.795045 9.86062487,4.73295447 C9.89825549,4.67086394 9.9593066,4.62654512 10.03,4.61 L12.33,4.06 C12.4003256,4.04195554 12.474955,4.05299425 12.5370455,4.09062487 C12.5991361,4.12825549 12.6434549,4.1893066 12.66,4.26 C12.6913101,4.40328265 12.6025135,4.54535712 12.46,4.58 L10.16,5.14 L10.09,5.15 Z" id="Path" fill="#955343"></path>
                                <path d="M19.26,4.75 L19.21,4.75 L16.87,4.3 C16.7713191,4.28634804 16.6881733,4.21946681 16.6536909,4.12600422 C16.6192085,4.03254163 16.6389928,3.92768503 16.7051609,3.85321311 C16.7713291,3.77874119 16.8731291,3.74675538 16.97,3.77 L19.31,4.22 C19.3822085,4.23209501 19.4464093,4.2729957 19.4878874,4.33332745 C19.5293654,4.39365919 19.5445642,4.4682488 19.53,4.54 C19.4981841,4.66322644 19.3872665,4.74949575 19.26,4.75 Z" id="Path" fill="#955343"></path>
                            </g>
                        </g>
                        <g id="card_2-4" transform="translate(366.000000, 141.000000)">
                            <rect id="Rectangle" fill="#FFFFFF" x="0.08" y="0.94" width="138" height="80" rx="12"></rect>
                            <rect id="Rectangle" fill="#D6DDE7" x="37.25" y="17.52" width="80" height="5" rx="2.3"></rect>
                            <rect id="Rectangle" fill="#E7EBF1" x="37.27" y="30.91" width="80" height="5" rx="2.3"></rect>
                            <rect id="Rectangle" fill="#A3E0FC" x="37.1" y="45.14" width="31" height="5" rx="2.3"></rect>
                            <path d="M21.46,17.17 C21.2465955,17.0119277 20.979078,16.9452351 20.7164445,16.9846301 C20.453811,17.0240251 20.2176345,17.1662719 20.06,17.38 L18.29,19.78 L17.5,19.2 C17.0554352,18.9149289 16.4658361,19.024695 16.153644,19.4506521 C15.8414518,19.8766092 15.9143028,20.4718977 16.32,20.81 L17.9,22 C18.1134045,22.1580723 18.380922,22.2247649 18.6435555,22.1853699 C18.906189,22.1459749 19.1423655,22.0037281 19.3,21.79 L21.67,18.58 C21.992421,18.137329 21.8988029,17.517666 21.46,17.19" id="Path" fill="#D6DDE7"></path>
                            <circle id="Oval" stroke="#D6DDE7" stroke-width="2" opacity="0.5" cx="18.86" cy="19.6" r="8"></circle>
                            <circle id="Oval" fill="#FCD56B" cx="19.37" cy="62.35" r="11"></circle>
                            <g id="character-3" transform="translate(10.000000, 52.000000)">
                                <path d="M15.46,13.45 C20.52,6.53 15.81,6.3 16,6.3 C16.55,4.44 15.49,3.48 13.67,3.76 C13.67,2.68 12.96,2.17 11.41,2.34 C10.6949449,2.37807598 9.99464399,2.55825047 9.35,2.87 C9.6,1.5 8.96,0.87 7.82,0.87 C3.55,0.72 2.82,6.04 2.82,6.04 C0.82,6.04 -0.61,10.19 2.62,13.49 L15.46,13.45 Z" id="Path" fill="#383753"></path>
                                <path d="M12,6.74 C9.73,6.74 6.23,6.18 4.13,7.35 C3.51,7.69 3.45,8.5 3.13,9.15 C2.69,10.15 1.33,17.15 5.73,18.24 C6.54,18.44 11.65,18.5 13.24,17.75 C13.707639,17.5294028 14.1233867,17.2124803 14.46,16.82 C15.63,15.45 15.46,12.76 15.38,10.97 C15.18,7.15 14.11,6.74 11.96,6.74 L12,6.74 Z" id="Path" fill="#B16D60"></path>
                                <path d="M5.2,6.47 C6.20326993,7.73919242 7.73216195,8.47951223 9.35,8.47951223 C10.9678381,8.47951223 12.4967301,7.73919242 13.5,6.47 L5.2,6.47 Z" id="Path" fill="#383753"></path>
                                <path d="M6.72,12.86 C6.59771641,12.8692004 6.48517858,12.930173 6.41068745,13.0275845 C6.33619632,13.124996 6.30683964,13.2495777 6.33,13.37 C6.38843143,13.5822873 6.60744115,13.7074357 6.82,13.65 C6.962117,13.609872 7.07550116,13.5025696 7.1233953,13.3628784 C7.17128944,13.2231871 7.1475975,13.0688872 7.06,12.95 C6.9659428,12.8704446 6.84109895,12.8373977 6.72,12.86 Z" id="Path" fill="#813F31"></path>
                                <path d="M11.91,12.85 C11.7875589,12.8933488 11.6898205,12.9874891 11.6419118,13.108219 C11.5940031,13.2289488 11.6005977,13.3644912 11.66,13.48 C11.7163325,13.5775531 11.809492,13.6483877 11.9185535,13.6765933 C12.027615,13.7047988 12.1434355,13.6880108 12.24,13.63 C12.3681195,13.5675123 12.4533038,13.4415648 12.4636061,13.2993917 C12.4739085,13.1572187 12.4077721,13.020306 12.29,12.94 C12.1885566,12.844177 12.0436461,12.8098561 11.91,12.85 Z" id="Path" fill="#813F31"></path>
                                <path d="M9.42,14.63 L9.14,14.63 C9.04058875,14.63 8.96,14.5494113 8.96,14.45 C8.96,14.3505887 9.04058875,14.27 9.14,14.27 C9.4420435,14.3152243 9.75072001,14.273605 10.03,14.15 L9.65,11.74 C9.63928203,11.6756922 9.66368603,11.6105514 9.71401924,11.5691154 C9.76435245,11.5276795 9.83296806,11.5162436 9.89401924,11.5391154 C9.95507042,11.5619873 9.99928203,11.6156922 10.01,11.68 L10.42,14.22 C10.431441,14.2905625 10.4000429,14.3612082 10.34,14.4 C10.0599621,14.5589203 9.74187832,14.6384412 9.42,14.63 Z" id="Path" fill="#813F31" opacity="0.4"></path>
                                <path d="M9.3,16.36 C8.80668271,16.3612161 8.32368709,16.2187497 7.91,15.95 C7.83014258,15.8883487 7.80870494,15.7768729 7.86,15.69 C7.91887671,15.6057522 8.03407538,15.5835986 8.12,15.64 C8.58663194,15.9440861 9.153061,16.0552209 9.7,15.95 C9.80196403,15.9316588 9.89982584,15.9983827 9.92,16.1 C9.92865597,16.147829 9.91760094,16.1971257 9.88934928,16.2366781 C9.86109763,16.2762304 9.81805102,16.302676 9.77,16.31 C9.61534013,16.3419627 9.45792285,16.3587093 9.3,16.36 Z" id="Path" fill="#813F31"></path>
                                <path d="M5.37,11.73 C5.26218371,11.7295322 5.15993453,11.6820593 5.09,11.6 C4.95283751,11.4538016 4.95283751,11.2261984 5.09,11.08 C5.5844262,10.6406039 6.21020939,10.3769312 6.87,10.33 C7.00218829,10.3210683 7.12910029,10.3833367 7.20292947,10.4933493 C7.27675865,10.6033619 7.2862886,10.7444052 7.22792947,10.8633494 C7.16957035,10.9822936 7.05218829,11.0610684 6.92,11.07 C6.42353661,11.1026696 5.95207911,11.2996966 5.58,11.63 C5.52393302,11.6869848 5.44957944,11.7223913 5.37,11.73 Z" id="Path" fill="#383753"></path>
                                <path d="M13.52,11.73 C13.4266659,11.7313373 13.3366645,11.6953367 13.27,11.63 C12.8979209,11.2996966 12.4264634,11.1026696 11.93,11.07 C11.7256547,11.0561928 11.571193,10.8793453 11.5850001,10.675 C11.5988072,10.4706547 11.7756547,10.3161929 11.98,10.33 C12.6397906,10.3769312 13.2655738,10.6406039 13.76,11.08 C13.9023348,11.2241134 13.9023348,11.4558866 13.76,11.6 C13.7016685,11.6749522 13.6146457,11.7220895 13.52,11.73 Z" id="Path" fill="#383753"></path>
                            </g>
                        </g>
                        <rect id="Rectangle" fill="#CCD5E2" x="25.83" y="48.71" width="68" height="7" rx="3.5"></rect>
                        <path d="M511.19,42.4 C511.734589,42.3995641 512.255807,42.6212238 512.633267,43.0137819 C513.010727,43.40634 513.211784,43.9358464 513.19,44.48 L513.19,57.33 C513.208998,57.8724546 513.006701,58.3993335 512.629549,58.7896853 C512.252398,59.1800372 511.732787,59.4003326 511.19,59.4 L454.14,59.4 C453.597213,59.4003326 453.077602,59.1800372 452.700451,58.7896853 C452.323299,58.3993335 452.121002,57.8724546 452.14,57.33 L452.14,44.48 C452.118216,43.9358464 452.319273,43.40634 452.696733,43.0137819 C453.074193,42.6212238 453.595411,42.3995641 454.14,42.4 L511.19,42.4 Z M511.19,40.4 L454.14,40.4 C453.065127,40.399785 452.035397,40.8321763 451.282909,41.5997143 C450.53042,42.3672522 450.118503,43.4053415 450.14,44.48 L450.14,57.33 C450.121221,58.402942 450.534343,59.4384337 451.286534,60.2037876 C452.038724,60.9691416 453.066894,61.4001643 454.14,61.4 L511.19,61.4 C512.263106,61.4001643 513.291276,60.9691416 514.043466,60.2037876 C514.795657,59.4384337 515.208779,58.402942 515.19,57.33 L515.19,44.48 C515.211497,43.4053415 514.79958,42.3672522 514.047091,41.5997143 C513.294603,40.8321763 512.264873,40.399785 511.19,40.4 Z" id="Shape" fill="#E1E6EE" fill-rule="nonzero"></path>
                        <path d="M538.71,42.4 C539.814569,42.4 540.71,43.2954305 540.71,44.4 L540.71,57.4 C540.71,58.5045695 539.814569,59.4 538.71,59.4 L525.71,59.4 C524.605431,59.4 523.71,58.5045695 523.71,57.4 L523.71,44.4 C523.71,43.2954305 524.605431,42.4 525.71,42.4 L538.71,42.4 Z M538.71,40.4 L525.71,40.4 C523.500861,40.4 521.71,42.190861 521.71,44.4 L521.71,57.4 C521.71,59.609139 523.500861,61.4 525.71,61.4 L538.71,61.4 C540.919139,61.4 542.71,59.609139 542.71,57.4 L542.71,44.4 C542.71,42.190861 540.919139,40.4 538.71,40.4 Z" id="Shape" fill="#E1E6EE" fill-rule="nonzero"></path>
                        <path d="M363.81,61.4 L439.52,61.4 C441.379446,61.532553 443.000716,60.1473472 443.16,58.29 L443.16,43.52 C443.005856,41.6586488 441.383028,40.2676529 439.52,40.4 L363.81,40.4 C361.94504,40.2674635 360.319302,41.6571353 360.16,43.52 L360.16,58.29 C360.319244,60.1515296 361.946797,61.5382941 363.81,61.4 Z" id="Path" fill="#79E2AA"></path>
                        <circle id="Oval" fill="#CCD5E2" cx="532.21" cy="50.94" r="1.36"></circle>
                        <circle id="Oval" fill="#CCD5E2" cx="532.21" cy="46.4" r="1.36"></circle>
                        <circle id="Oval" fill="#CCD5E2" cx="532.21" cy="55.49" r="1.36"></circle>
                        <g id="separator" transform="translate(365.000000, 121.000000)" fill="#4DA2F8">
                            <rect id="Rectangle" x="1.26" y="4.35" width="137.77" height="3"></rect>
                            <path d="M139.62,2.41 L139.62,9.34 C139.606946,9.76176467 139.426774,10.1610428 139.119167,10.4498926 C138.811561,10.7387425 138.401752,10.8934714 137.98,10.88 C137.550177,10.8829749 137.135371,10.7220588 136.82,10.43 L133.1,7 C132.795341,6.72150985 132.621804,6.32776357 132.621804,5.915 C132.621804,5.50223643 132.795341,5.10849015 133.1,4.83 L136.82,1.37 C137.476934,0.769947506 138.483066,0.769947506 139.14,1.37 C139.435947,1.63610214 139.609507,2.01214999 139.62,2.41 Z" id="Path"></path>
                            <path d="M0.57,2.41 L0.57,9.34 C0.583054299,9.76176467 0.763226214,10.1610428 1.07083251,10.4498926 C1.37843881,10.7387425 1.78824844,10.8934714 2.21,10.88 C2.63982328,10.8829749 3.05462945,10.7220588 3.37,10.43 L7.09,6.96 C7.39465883,6.68150985 7.56819609,6.28776357 7.56819609,5.875 C7.56819609,5.46223643 7.39465883,5.06849015 7.09,4.79 L3.37,1.33 C2.71306634,0.729947506 1.70693366,0.729947506 1.05,1.33 C0.743888841,1.60549975 0.569368627,1.99817023 0.57,2.41 Z" id="Path"></path>
                        </g>
                        <g id="card_2-5" transform="translate(334.000000, 41.000000)">
                            <g id="Rectangle" transform="translate(73.174128, 47.056863) rotate(-5.510000) translate(-73.174128, -47.056863) ">
                                <use fill="black" fill-opacity="1" filter="url(#filter-6)" xlink:href="#path-5"></use>
                                <use fill="#FFFFFF" fill-rule="evenodd" xlink:href="#path-5"></use>
                            </g>
                            <rect id="Rectangle" fill="#D6DDE7" transform="translate(79.290869, 25.449074) rotate(-5.510000) translate(-79.290869, -25.449074) " x="39.2908694" y="22.9490737" width="80" height="5" rx="2.3"></rect>
                            <rect id="Rectangle" fill="#E7EBF1" transform="translate(80.604756, 38.771696) rotate(-5.510000) translate(-80.604756, -38.771696) " x="40.6047562" y="36.2716963" width="80" height="5" rx="2.3"></rect>
                            <rect id="Rectangle" fill="#FE9C73" transform="translate(57.409109, 55.302010) rotate(-5.510000) translate(-57.409109, -55.302010) " x="41.9091086" y="52.8020105" width="31" height="5" rx="2.3"></rect>
                            <path d="M23.48,28 C23.0076306,27.7166791 22.3950903,27.8686964 22.11,28.34 L20.58,30.91 L19.74,30.41 C19.2676306,30.1266791 18.6550903,30.2786964 18.37,30.75 C18.0884235,31.2249776 18.2451069,31.838281 18.72,32.12 L20.41,33.12 C20.8823694,33.4033209 21.4949097,33.2513036 21.78,32.78 L23.78,29.35 C24.0565779,28.8798122 23.9053041,28.2747173 23.44,27.99" id="Path" fill="#D6DDE7"></path>
                            <circle id="Oval" stroke="#D6DDE7" stroke-width="2" opacity="0.5" cx="21.13" cy="30.64" r="8"></circle>
                            <circle id="Oval" fill="#FD7E98" cx="25.23" cy="73.39" r="11"></circle>
                            <g id="character-4" transform="translate(17.000000, 64.000000)">
                                <path d="M3.68,16.64 C6.81763224,17.2318049 10.0617354,16.8297878 12.96,15.49 C15.64,13.96 15.9,13.04 14.87,7.25 C13.74,0.83 10.2,2.39 3.21,3.32 C1.29,3.57 0.66,7.02 1.02,9.89 C1.29,12.08 1.71,16.15 3.68,16.64 Z" id="Path" fill="#F9BBA5"></path>
                                <path d="M1.76,3.56 C0.76,4.2 -0.14,9.27 1.22,11.45 C1.22,11.45 8.09,9.55 11.22,5.45 C12.35,6.19 13.69,7.89 14.99,8.17 C14.99,8.17 15.36,1.55 10.43,2.17 C10.42,2.2 6.94,0.27 1.76,3.56 Z" id="Path" fill="#3F4164"></path>
                                <path d="M10.44,2.5 C10.4214359,2.51071797 10.3985641,2.51071797 10.38,2.5 C10.2940375,2.48664449 10.2281259,2.41661343 10.22,2.33 C10.2090866,1.93929507 10.0839306,1.56035061 9.86,1.24 C9.80451523,1.14844668 9.8309618,1.02943711 9.92,0.97 C10.0115533,0.914515226 10.1305629,0.940961797 10.19,1.03 C10.3512793,1.27121884 10.4696861,1.53848004 10.54,1.82 C10.740622,1.63911578 10.9705736,1.49370523 11.22,1.39 C11.3140996,1.35231102 11.4215154,1.39098071 11.47,1.48 C11.4938416,1.52620054 11.49771,1.58015267 11.4807037,1.62928205 C11.4636974,1.67841143 11.427302,1.71842608 11.38,1.74 C11.0455221,1.85183518 10.7641692,2.08332812 10.59,2.39 C10.5662735,2.45319531 10.5074047,2.49636577 10.44,2.5 Z" id="Path" fill="#3F4164"></path>
                                <path d="M8.52,12 C8.44262578,12.006369 8.36855626,11.9673851 8.33,11.9 C8.30469744,11.8562638 8.29785804,11.8042505 8.31099396,11.7554599 C8.32412988,11.7066693 8.35615907,11.6651206 8.4,11.64 C8.59282237,11.5180528 8.76781941,11.3699784 8.92,11.2 C8.66143677,10.7901026 8.3740449,10.399116 8.06,10.03 C7.98820301,9.95268013 7.99268018,9.83179704 8.07000003,9.76000003 C8.14731988,9.68820303 8.26820298,9.69268016 8.34,9.77 C8.71290624,10.1928606 9.04755206,10.6479789 9.34,11.13 C9.39536823,11.19667 9.39536823,11.29333 9.34,11.36 C9.13437822,11.5931019 8.89903243,11.798189 8.64,11.97 L8.52,12 Z" id="Path" fill="#D26E63" opacity="0.4"></path>
                                <path d="M8.76,14.55 C8.44739996,14.5930603 8.12916408,14.5371067 7.85,14.39 C7.55996894,14.2109947 7.36825124,13.9086706 7.33,13.57 C7.32367244,13.4665188 7.39746936,13.3753579 7.5,13.36 C7.55202495,13.3514516 7.60526278,13.3649047 7.64698136,13.3971418 C7.68869994,13.4293789 7.71514788,13.4775012 7.72,13.53 C7.73909649,13.7466152 7.86213223,13.9404897 8.05,14.05 C8.24962129,14.1647981 8.48274553,14.2071844 8.71,14.17 C9.24,14.11 9.71,13.75 9.71,13.17 C9.70145164,13.1179751 9.71490468,13.0647372 9.74714177,13.0230186 C9.77937886,12.9813001 9.82750117,12.9548521 9.88,12.95 C9.9834812,12.9436724 10.0746421,13.0174694 10.09,13.12 C10.1178789,13.4897196 9.99016121,13.8542943 9.73765247,14.1257887 C9.48514374,14.397283 9.13076778,14.5510496 8.76,14.55 Z" id="Path" fill="#60342B"></path>
                                <path d="M4.25,11.91 C4.19789969,11.912746 4.14696254,11.8939471 4.10913742,11.8580132 C4.0713123,11.8220794 4.04992769,11.7721726 4.05,11.72 C4.00082598,11.1980984 4.36302393,10.7268047 4.88,10.64 C5.36170338,10.6014667 5.7941439,10.9344459 5.88,11.41 C5.8918042,11.4604908 5.88246009,11.5136125 5.85413486,11.5570445 C5.82580963,11.6004765 5.78096435,11.6304452 5.73,11.64 C5.62673537,11.653992 5.52883016,11.5901408 5.5,11.49 C5.45366144,11.1919111 5.17952512,10.9840981 4.88,11.02 C4.63,11.02 4.38,11.25 4.39,11.71 C4.39800313,11.8017944 4.33898913,11.8861002 4.25,11.91 Z" id="Path" fill="#C1564D"></path>
                                <path d="M11,11.1 C10.9478997,11.102746 10.8969625,11.0839471 10.8591374,11.0480132 C10.8213123,11.0120794 10.7999277,10.9621726 10.8,10.91 C10.750826,10.3880984 11.1130239,9.91680473 11.63,9.83 C12.129882,9.76346222 12.5932073,10.1032341 12.68,10.6 C12.6983412,10.701964 12.6316173,10.7998258 12.53,10.82 C12.4793178,10.8351052 12.4245571,10.8271578 12.3802598,10.7982683 C12.3359625,10.7693787 12.3066111,10.7224705 12.3,10.67 C12.2537421,10.3730147 11.9776405,10.1681652 11.68,10.21 C11.5224583,10.2343793 11.3814868,10.3214728 11.2891844,10.4514498 C11.1968819,10.5814267 11.161105,10.7432237 11.19,10.9 C11.192746,10.9521003 11.1739471,11.0030375 11.1380132,11.0408626 C11.1020794,11.0786877 11.0521726,11.1000723 11,11.1 Z" id="Path" fill="#C1564D"></path>
                                <path d="M12.46,8.66 L12.4,8.66 L9.86,8.48 C9.78376526,8.47500057 9.71288386,8.43906747 9.66378926,8.38053159 C9.61469465,8.32199571 9.59165069,8.24594089 9.6,8.17 C9.60512515,8.09301863 9.64071426,8.02125268 9.69889301,7.97058086 C9.75707176,7.91990905 9.83304387,7.89450877 9.91,7.9 L12.44,8.09 C12.5962394,8.10069417 12.7157657,8.23350124 12.71,8.39 C12.7058029,8.52981 12.5990746,8.64507659 12.46,8.66 Z" id="Path" fill="#3F4164"></path>
                                <g id="Group" opacity="0.2" transform="translate(1.000000, 3.000000)" fill="#FFFFFF">
                                    <path d="M2.54,2.45 C2.04556911,2.50799866 1.54769071,2.53138892 1.05,2.52 C0.969816006,2.53827413 0.886619194,2.50560103 0.840299099,2.43764615 C0.793979004,2.36969128 0.793979004,2.28030872 0.840299099,2.21235385 C0.886619194,2.14439897 0.969816006,2.11172587 1.05,2.13 C3.09116099,2.17204845 5.09901155,1.60831918 6.82,0.51 C6.85395256,0.47454724 6.90091156,0.454498996 6.95,0.454498996 C6.99908844,0.454498996 7.04604744,0.47454724 7.08,0.51 C7.11603106,0.545683405 7.13630258,0.59428962 7.13630258,0.645 C7.13630258,0.69571038 7.11603106,0.744316595 7.08,0.78 C5.71162426,1.67122738 4.15972462,2.24208033 2.54,2.45 Z" id="Path"></path>
                                    <path d="M3.2,4.73 C3.10567466,4.73896913 3.01799978,4.68051922 2.99,4.59 C2.96352725,4.48826745 3.02032816,4.38340423 3.12,4.35 C4.48812732,3.9334453 5.76189748,3.25410121 6.87,2.35 C6.92180351,2.3053418 6.99349679,2.29171277 7.05807368,2.31424682 C7.12265057,2.33678088 7.1703003,2.39205457 7.18307368,2.45924682 C7.19584706,2.52643908 7.17180351,2.5953418 7.12,2.64 C5.97675975,3.59998282 4.65463361,4.32392336 3.23,4.77 L3.2,4.73 Z" id="Path"></path>
                                    <path d="M12.42,2.56 C12.3752453,2.57889168 12.3247547,2.57889168 12.28,2.56 C11.709494,2.14677332 11.2437183,1.60565155 10.92,0.98 C10.874546,0.88574997 10.9094245,0.772394778 11,0.72 C11.0462005,0.696158411 11.1001527,0.692289982 11.149282,0.709296307 C11.1984114,0.726302632 11.2384261,0.76269802 11.26,0.81 C11.5642065,1.37711475 11.9912758,1.86909856 12.51,2.25 C12.5799153,2.32642182 12.5799153,2.44357818 12.51,2.52 C12.484302,2.54144103 12.4531353,2.55529293 12.42,2.56 Z" id="Path"></path>
                                </g>
                            </g>
                        </g>
                        <g id="arrow" transform="translate(260.000000, 73.000000)">
                            <path d="M88.63,12.48 C70.4332558,4.75606333 49.6204593,6.33854601 32.8007174,16.7249304 C15.9809755,27.1113148 5.2442538,45.0110231 4,64.74" id="Path" stroke="#727491" stroke-width="5" stroke-linecap="round" stroke-linejoin="round"></path>
                            <polyline id="Path" stroke="#727491" stroke-width="5" stroke-linecap="round" stroke-linejoin="round" points="86.81 0.89 93.21 14.67 78.68 20.09"></polyline>
                            <path d="M2,71.88 C0.28,72.97 -0.7,75.41 0.77,77.1 C2.15713945,78.5811361 4.38137022,78.9124927 6.14,77.9 C7.37913373,76.7741003 7.80006354,75.0030183 7.2,73.44 C6.77066285,72.4918057 5.95194251,71.7758462 4.95497336,71.4767555 C3.95800422,71.1776647 2.88037923,71.3247207 2,71.88" id="Path" fill="#727491"></path>
                        </g>
                        <rect id="Rectangle" fill="#D6DDE7" x="222.86" y="331.2" width="46" height="5" rx="2.3"></rect>
                        <g id="add-icon-3" transform="translate(200.000000, 326.000000)">
                            <circle id="Oval" fill="#D6DDE7" cx="7.4" cy="7.76" r="7"></circle>
                            <path d="M8.38,6.78 L10.43,6.78 C10.9822847,6.78 11.43,7.22771525 11.43,7.78 C11.43,8.33228475 10.9822847,8.78 10.43,8.78 L8.38,8.78 L8.38,10.78 C8.47137063,11.18092 8.30800516,11.596904 7.96823077,11.8285045 C7.62845638,12.060105 7.18154362,12.060105 6.84176923,11.8285045 C6.50199484,11.596904 6.33862937,11.18092 6.43,10.78 L6.43,8.78 L4.38,8.78 C3.82771525,8.78 3.38,8.33228475 3.38,7.78 C3.38,7.22771525 3.82771525,6.78 4.38,6.78 L6.43,6.78 L6.43,4.78 C6.53369741,4.32499206 6.93832519,4.00220486 7.405,4.00220486 C7.87167481,4.00220486 8.27630259,4.32499206 8.38,4.78 L8.38,6.78 Z" id="Path" fill="#FFFFFF"></path>
                        </g>
                        <rect id="Rectangle" fill="#D6DDE7" x="387.86" y="331.2" width="46" height="5" rx="2.3"></rect>
                        <g id="add-icon-4" transform="translate(365.000000, 326.000000)">
                            <circle id="Oval" fill="#D6DDE7" cx="7.4" cy="7.76" r="7"></circle>
                            <path d="M8.38,6.78 L10.43,6.78 C10.9822847,6.78 11.43,7.22771525 11.43,7.78 C11.43,8.33228475 10.9822847,8.78 10.43,8.78 L8.38,8.78 L8.38,10.78 C8.47137063,11.18092 8.30800516,11.596904 7.96823077,11.8285045 C7.62845638,12.060105 7.18154362,12.060105 6.84176923,11.8285045 C6.50199484,11.596904 6.33862937,11.18092 6.43,10.78 L6.43,8.78 L4.38,8.78 C3.82771525,8.78 3.38,8.33228475 3.38,7.78 C3.38,7.22771525 3.82771525,6.78 4.38,6.78 L6.43,6.78 L6.43,4.78 C6.53369741,4.32499206 6.93832519,4.00220486 7.405,4.00220486 C7.87167481,4.00220486 8.27630259,4.32499206 8.38,4.78 L8.38,6.78 Z" id="Path" fill="#FFFFFF"></path>
                        </g>
                    </g>
                </g>
            </g>
        </g>
    </g>
</svg>