<?xml version="1.0" encoding="UTF-8" standalone="no"?>
<!DOCTYPE svg PUBLIC "-//W3C//DTD SVG 1.1//EN" "http://www.w3.org/Graphics/SVG/1.1/DTD/svg11.dtd">
<svg width="100%" height="100%" viewBox="0 0 856 476" version="1.1" xmlns="http://www.w3.org/2000/svg" xmlns:xlink="http://www.w3.org/1999/xlink" xml:space="preserve" xmlns:serif="http://www.serif.com/" style="fill-rule:evenodd;clip-rule:evenodd;stroke-linejoin:round;stroke-miterlimit:1.41421;">
    <g id="Header-GUI">
        <g id="projects-dashboard">
            <g id="Path">
                <path id="path-1" d="M856,476L0,476L0,8C0,3.582 3.582,0 8,0L848,0C852.418,0 856,3.582 856,8L856,476Z"/>
                <path id="path-11" serif:id="path-1" d="M856,476L0,476L0,8C0,3.582 3.582,0 8,0L848,0C852.418,0 856,3.582 856,8L856,476Z" style="fill:white;"/>
            </g>
            <path id="Path1" serif:id="Path" d="M8,0.11L847.57,0.11C851.988,0.11 855.57,3.692 855.57,8.11L855.57,41.11L0,41.11L0,8.11C0,3.692 3.582,0.11 8,0.11Z" style="fill:rgb(72,78,106);"/>
            <circle id="Oval" cx="25.73" cy="19.32" r="4.21" style="fill:white;"/>
            <circle id="Oval1" serif:id="Oval" cx="44.26" cy="19.32" r="4.21" style="fill:white;"/>
            <circle id="Oval2" serif:id="Oval" cx="62.78" cy="19.32" r="4.21" style="fill:white;"/>
            <g id="Customized-display" transform="matrix(1,0,0,1,0,41)">
                <rect id="Rectangle" x="0" y="0.07" width="856" height="20" style="fill:rgb(67,97,215);"/>
                <rect id="Rectangle1" serif:id="Rectangle" x="0" y="19.92" width="856" height="46" style="fill:rgb(106,132,237);"/>
                <path id="Rectangle2" serif:id="Rectangle" d="M188.11,41.61C188.11,39.954 186.766,38.61 185.11,38.61L33.11,38.61C31.454,38.61 30.11,39.954 30.11,41.61C30.11,43.266 31.454,44.61 33.11,44.61L185.11,44.61C186.766,44.61 188.11,43.266 188.11,41.61Z" style="fill:white;fill-opacity:0.5;"/>
            </g>
            <path id="Rectangle3" serif:id="Rectangle" d="M269.3,141.11C269.3,138.902 267.508,137.11 265.3,137.11L205.36,137.11C203.152,137.11 201.36,138.902 201.36,141.11C201.36,143.318 203.152,145.11 205.36,145.11L265.3,145.11C267.508,145.11 269.3,143.318 269.3,141.11Z" style="fill:rgb(204,213,226);"/>
            <path id="Shape" d="M790.72,130.61C791.825,130.61 792.72,131.505 792.72,132.61L792.72,146.21C792.72,147.315 791.825,148.21 790.72,148.21L703.27,148.21C702.165,148.21 701.27,147.315 701.27,146.21L701.27,132.61C701.27,131.505 702.165,130.61 703.27,130.61L790.72,130.61ZM790.72,128.61L703.27,128.61C701.061,128.61 699.27,130.401 699.27,132.61L699.27,146.21C699.27,148.419 701.061,150.21 703.27,150.21L790.72,150.21C792.929,150.21 794.72,148.419 794.72,146.21L794.72,132.61C794.72,130.401 792.929,128.61 790.72,128.61Z" style="fill:rgb(225,230,238);fill-rule:nonzero;"/>
            <path id="Shape1" serif:id="Shape" d="M819,131C820.105,131 821,131.895 821,133L821,146.6C821,147.705 820.105,148.6 819,148.6L806.08,148.6C804.975,148.6 804.08,147.705 804.08,146.6L804.08,133C804.08,131.895 804.975,131 806.08,131L819,131ZM819,129L806.08,129C803.871,129 802.08,130.791 802.08,133L802.08,146.6C802.08,148.809 803.871,150.6 806.08,150.6L819,150.6C821.209,150.6 823,148.809 823,146.6L823,133C823,130.791 821.209,129 819,129Z" style="fill:rgb(225,230,238);fill-rule:nonzero;"/>
            <path id="Path2" serif:id="Path" d="M571.27,150.21L686.72,150.21C688.606,150.324 690.232,148.895 690.36,147.01L690.36,131.81C690.232,129.925 688.606,128.496 686.72,128.61L571.27,128.61C569.384,128.496 567.758,129.925 567.63,131.81L567.63,147C567.753,148.889 569.38,150.324 571.27,150.21Z" style="fill:rgb(121,226,170);"/>
            <circle id="Oval3" serif:id="Oval" cx="812.54" cy="139.84" r="1.36" style="fill:rgb(204,213,226);"/>
            <circle id="Oval4" serif:id="Oval" cx="812.54" cy="135.29" r="1.36" style="fill:rgb(204,213,226);"/>
            <circle id="Oval5" serif:id="Oval" cx="812.54" cy="144.38" r="1.36" style="fill:rgb(204,213,226);"/>
            <g id="pie_chart" transform="matrix(1,0,0,1,451,296)">
                <path id="Rectangle4" serif:id="Rectangle" d="M22.36,120.28C22.36,118.348 20.792,116.78 18.86,116.78L3.86,116.78C1.928,116.78 0.36,118.348 0.36,120.28C0.36,122.212 1.928,123.78 3.86,123.78L18.86,123.78C20.792,123.78 22.36,122.212 22.36,120.28Z" style="fill:rgb(121,226,170);"/>
                <path id="Rectangle5" serif:id="Rectangle" d="M110.36,120.28C110.36,118.348 108.792,116.78 106.86,116.78L91.86,116.78C89.928,116.78 88.36,118.348 88.36,120.28C88.36,122.212 89.928,123.78 91.86,123.78L106.86,123.78C108.792,123.78 110.36,122.212 110.36,120.28Z" style="fill:rgb(252,213,107);"/>
                <path id="Shape2" serif:id="Shape" d="M55.92,0.13C36.528,0.126 19.044,11.805 11.621,29.72C4.198,47.634 8.299,68.257 22.011,81.969C35.723,95.681 56.346,99.782 74.26,92.359C92.175,84.936 103.854,67.452 103.85,48.06C103.85,35.348 98.8,23.157 89.812,14.168C80.823,5.18 68.632,0.13 55.92,0.13ZM55.92,84.49C35.8,84.49 19.49,68.18 19.49,48.06C19.49,27.94 35.8,11.63 55.92,11.63C76.04,11.63 92.35,27.94 92.35,48.06C92.353,57.723 88.515,66.99 81.683,73.823C74.85,80.655 65.583,84.493 55.92,84.49Z" style="fill:rgb(252,213,107);fill-rule:nonzero;"/>
                <path id="Path3" serif:id="Path" d="M74.14,79.58C60.886,87.234 44.259,85.782 32.533,75.946C20.806,66.11 16.483,49.99 21.714,35.606C26.946,21.222 40.614,11.645 55.92,11.64L55.92,0.13C35.701,0.087 17.629,12.734 10.743,31.744C3.858,50.755 9.64,72.042 25.197,84.956C40.754,97.871 62.741,99.637 80.16,89.37L74.14,79.58Z" style="fill:rgb(121,226,170);"/>
            </g>
            <g id="projects" transform="matrix(1,0,0,1,660,286)">
                <path id="Rectangle6" serif:id="Rectangle" d="M95.86,8.28C95.86,6.624 94.516,5.28 92.86,5.28L32.86,5.28C31.204,5.28 29.86,6.624 29.86,8.28C29.86,9.936 31.204,11.28 32.86,11.28L92.86,11.28C94.516,11.28 95.86,9.936 95.86,8.28Z" style="fill:rgb(214,221,231);"/>
                <path id="Rectangle7" serif:id="Rectangle" d="M134.36,8.28C134.36,6.624 133.016,5.28 131.36,5.28L115.36,5.28C113.704,5.28 112.36,6.624 112.36,8.28C112.36,9.936 113.704,11.28 115.36,11.28L131.36,11.28C133.016,11.28 134.36,9.936 134.36,8.28Z" style="fill:rgb(231,235,241);"/>
                <path id="Rectangle8" serif:id="Rectangle" d="M95.86,41.28C95.86,39.624 94.516,38.28 92.86,38.28L32.86,38.28C31.204,38.28 29.86,39.624 29.86,41.28C29.86,42.936 31.204,44.28 32.86,44.28L92.86,44.28C94.516,44.28 95.86,42.936 95.86,41.28Z" style="fill:rgb(214,221,231);"/>
                <path id="Rectangle9" serif:id="Rectangle" d="M134.36,41.28C134.36,39.624 133.016,38.28 131.36,38.28L115.36,38.28C113.704,38.28 112.36,39.624 112.36,41.28C112.36,42.936 113.704,44.28 115.36,44.28L131.36,44.28C133.016,44.28 134.36,42.936 134.36,41.28Z" style="fill:rgb(231,235,241);"/>
                <path id="Rectangle10" serif:id="Rectangle" d="M95.86,74.28C95.86,72.624 94.516,71.28 92.86,71.28L32.86,71.28C31.204,71.28 29.86,72.624 29.86,74.28C29.86,75.936 31.204,77.28 32.86,77.28L92.86,77.28C94.516,77.28 95.86,75.936 95.86,74.28Z" style="fill:rgb(214,221,231);"/>
                <path id="Rectangle11" serif:id="Rectangle" d="M134.36,74.28C134.36,72.624 133.016,71.28 131.36,71.28L115.36,71.28C113.704,71.28 112.36,72.624 112.36,74.28C112.36,75.936 113.704,77.28 115.36,77.28L131.36,77.28C133.016,77.28 134.36,75.936 134.36,74.28Z" style="fill:rgb(231,235,241);"/>
                <path id="Rectangle12" serif:id="Rectangle" d="M95.86,107.275C95.86,105.622 94.518,104.28 92.865,104.28L32.855,104.28C31.202,104.28 29.86,105.622 29.86,107.275C29.86,108.928 31.202,110.27 32.855,110.27L92.865,110.27C94.518,110.27 95.86,108.928 95.86,107.275L95.86,107.275Z" style="fill:rgb(214,221,231);"/>
                <path id="Rectangle13" serif:id="Rectangle" d="M134.36,107.285C134.36,105.632 133.018,104.29 131.365,104.29L115.355,104.29C113.702,104.29 112.36,105.632 112.36,107.285C112.36,108.938 113.702,110.28 115.355,110.28L131.365,110.28C133.018,110.28 134.36,108.938 134.36,107.285L134.36,107.285Z" style="fill:rgb(231,235,241);"/>
                <path id="Rectangle14" serif:id="Rectangle" d="M95.86,140.28C95.86,138.624 94.516,137.28 92.86,137.28L32.86,137.28C31.204,137.28 29.86,138.624 29.86,140.28C29.86,141.936 31.204,143.28 32.86,143.28L92.86,143.28C94.516,143.28 95.86,141.936 95.86,140.28Z" style="fill:rgb(214,221,231);"/>
                <path id="Rectangle15" serif:id="Rectangle" d="M134.36,140.28C134.36,138.624 133.016,137.28 131.36,137.28L115.36,137.28C113.704,137.28 112.36,138.624 112.36,140.28C112.36,141.936 113.704,143.28 115.36,143.28L131.36,143.28C133.016,143.28 134.36,141.936 134.36,140.28Z" style="fill:rgb(231,235,241);"/>
                <path id="star" d="M11.66,15.14C11.48,15.141 11.302,15.1 11.14,15.02L11.06,15.02L7.76,13.02L4.47,15.02L4.38,15.02C3.983,15.213 3.511,15.167 3.16,14.9C2.781,14.6 2.6,14.115 2.69,13.64L3.46,9.76L2.18,8.54L0.66,7.09L0.59,7.03C0.291,6.688 0.189,6.215 0.32,5.78C0.45,5.347 0.807,5.021 1.25,4.93L1.33,4.93L5.1,4.49L6.66,0.89L6.71,0.79C6.912,0.396 7.317,0.148 7.76,0.148C8.203,0.148 8.608,0.396 8.81,0.79C8.833,0.82 8.85,0.854 8.86,0.89L10.42,4.49L14.19,4.93L14.28,4.93C14.721,5.025 15.076,5.35 15.21,5.78C15.339,6.217 15.233,6.69 14.93,7.03L14.87,7.1L12.06,9.76L12.83,13.63C12.928,14.108 12.746,14.601 12.36,14.9C12.161,15.057 11.914,15.142 11.66,15.14" style="fill:rgb(247,235,159);"/>
                <path id="star-2" d="M11.66,48.07C11.48,48.071 11.302,48.03 11.14,47.95L11.06,47.95L7.76,45.95L4.47,47.95L4.38,47.95C3.983,48.143 3.511,48.097 3.16,47.83C2.781,47.53 2.6,47.045 2.69,46.57L3.46,42.69L2.18,41.47L0.66,40L0.59,39.93C0.289,39.589 0.187,39.115 0.32,38.68C0.452,38.25 0.809,37.927 1.25,37.84L1.33,37.84L5.1,37.4L6.66,33.8L6.71,33.71C6.907,33.31 7.314,33.056 7.76,33.056C8.206,33.056 8.613,33.31 8.81,33.71C8.83,33.738 8.847,33.768 8.86,33.8L10.42,37.41L14.19,37.84L14.28,37.84C14.721,37.927 15.078,38.25 15.21,38.68C15.339,39.117 15.233,39.59 14.93,39.93L14.87,40L12.06,42.66L12.83,46.54C12.926,47.018 12.744,47.51 12.36,47.81C12.158,47.96 11.912,48.041 11.66,48.04" style="fill:rgb(247,235,159);"/>
                <path id="star-3" d="M11.66,81C11.48,81.001 11.302,80.96 11.14,80.88L11.06,80.88L7.76,78.88L4.47,80.88L4.38,80.93C3.982,81.119 3.513,81.073 3.16,80.81C2.78,80.507 2.599,80.018 2.69,79.54L3.46,75.66L2.18,74.44L0.66,73L0.59,72.93C0.289,72.589 0.187,72.115 0.32,71.68C0.452,71.25 0.809,70.927 1.25,70.84L1.33,70.84L5.1,70.41L6.66,66.8L6.71,66.71C6.907,66.31 7.314,66.056 7.76,66.056C8.206,66.056 8.613,66.31 8.81,66.71C8.83,66.738 8.847,66.768 8.86,66.8L10.42,70.41L14.19,70.85L14.28,70.85C14.723,70.941 15.08,71.267 15.21,71.7C15.337,72.137 15.231,72.609 14.93,72.95L14.87,73.01L12.06,75.67L12.83,79.55C12.926,80.028 12.744,80.52 12.36,80.82C12.158,80.97 11.912,81.051 11.66,81.05" style="fill:rgb(247,235,159);"/>
                <path id="star-4" d="M11.66,113.94C11.48,113.941 11.302,113.9 11.14,113.82L11.06,113.77L7.76,111.77L4.47,113.77L4.38,113.82C3.982,114.009 3.513,113.963 3.16,113.7C2.783,113.399 2.603,112.915 2.69,112.44L3.46,108.55L2.18,107.33L0.66,105.89C0.634,105.869 0.611,105.846 0.59,105.82C0.289,105.479 0.187,105.005 0.32,104.57C0.455,104.142 0.811,103.821 1.25,103.73L1.33,103.73L5.1,103.29L6.66,99.68L6.71,99.59C6.912,99.196 7.317,98.948 7.76,98.948C8.203,98.948 8.608,99.196 8.81,99.59C8.83,99.618 8.847,99.648 8.86,99.68L10.42,103.29L14.19,103.73L14.28,103.73C14.721,103.825 15.076,104.15 15.21,104.58C15.339,105.017 15.233,105.49 14.93,105.83L14.87,105.89L12.06,108.56L12.83,112.43C12.926,112.908 12.744,113.4 12.36,113.7C12.161,113.857 11.914,113.942 11.66,113.94" style="fill:rgb(231,235,241);"/>
                <path id="star-5" d="M11.66,146.87C11.48,146.871 11.302,146.83 11.14,146.75L11.06,146.7L7.76,144.7L4.47,146.7L4.38,146.7C3.983,146.893 3.511,146.847 3.16,146.58C2.781,146.28 2.6,145.795 2.69,145.32L3.46,141.44L2.18,140.22L0.66,138.77L0.59,138.71C0.291,138.368 0.189,137.895 0.32,137.46C0.45,137.027 0.807,136.701 1.25,136.61L1.33,136.61L5.1,136.17L6.66,132.57L6.71,132.47C6.912,132.076 7.317,131.828 7.76,131.828C8.203,131.828 8.608,132.076 8.81,132.47C8.833,132.5 8.85,132.534 8.86,132.57L10.42,136.17L14.19,136.61L14.28,136.61C14.721,136.705 15.076,137.03 15.21,137.46C15.339,137.897 15.233,138.37 14.93,138.71L14.87,138.78L12.06,141.44L12.83,145.31C12.928,145.788 12.746,146.281 12.36,146.58C12.161,146.737 11.914,146.822 11.66,146.82" style="fill:rgb(231,235,241);"/>
            </g>
            <g id="sidebar" transform="matrix(1,0,0,1,0,107)">
                <path id="Rectangle16" serif:id="Rectangle" d="M0,0L172,0L172,369L0,369L0,0Z" style="fill:rgb(248,249,251);"/>
                <path id="Rectangle17" serif:id="Rectangle" d="M141.36,37.28C141.36,33.969 138.671,31.28 135.36,31.28L35.36,31.28C32.049,31.28 29.36,33.969 29.36,37.28L29.36,94.28C29.36,97.591 32.049,100.28 35.36,100.28L135.36,100.28C138.671,100.28 141.36,97.591 141.36,94.28L141.36,37.28Z" style="fill:rgb(106,132,237);"/>
                <path id="Rectangle18" serif:id="Rectangle" d="M58.78,334.45C58.78,332.794 57.436,331.45 55.78,331.45L44.78,331.45C43.124,331.45 41.78,332.794 41.78,334.45C41.78,336.106 43.124,337.45 44.78,337.45L55.78,337.45C57.436,337.45 58.78,336.106 58.78,334.45Z" style="fill:rgb(214,221,231);"/>
                <path id="Rectangle19" serif:id="Rectangle" d="M98.02,334.45C98.02,332.794 96.676,331.45 95.02,331.45L84.02,331.45C82.364,331.45 81.02,332.794 81.02,334.45C81.02,336.106 82.364,337.45 84.02,337.45L95.02,337.45C96.676,337.45 98.02,336.106 98.02,334.45Z" style="fill:rgb(214,221,231);"/>
                <path id="Rectangle20" serif:id="Rectangle" d="M137.96,334.45C137.96,332.794 136.616,331.45 134.96,331.45L123.96,331.45C122.304,331.45 120.96,332.794 120.96,334.45C120.96,336.106 122.304,337.45 123.96,337.45L134.96,337.45C136.616,337.45 137.96,336.106 137.96,334.45Z" style="fill:rgb(214,221,231);"/>
                <path id="Path4" serif:id="Path" d="M98.71,79.75L62.54,79.75L73.54,65.64C73.816,65.286 74.23,65.067 74.678,65.04C75.126,65.014 75.564,65.181 75.88,65.5L81.6,71.23C81.798,71.434 82.074,71.545 82.358,71.533C82.643,71.522 82.909,71.39 83.09,71.17L91.47,61.39C91.774,61.036 92.22,60.836 92.687,60.846C93.153,60.855 93.591,61.073 93.88,61.44L108.21,79.75L98.71,79.75Z" style="fill:white;"/>
                <circle id="Oval6" serif:id="Oval" cx="76.32" cy="53.06" r="3.44" style="fill:white;"/>
                <path id="Rectangle21" serif:id="Rectangle" d="M112.69,137.12C112.69,135.464 111.346,134.12 109.69,134.12L33.55,134.12C31.894,134.12 30.55,135.464 30.55,137.12C30.55,138.776 31.894,140.12 33.55,140.12L109.69,140.12C111.346,140.12 112.69,138.776 112.69,137.12Z" style="fill:rgb(214,221,231);"/>
                <path id="Rectangle22" serif:id="Rectangle" d="M142.88,137.12C142.88,135.464 141.536,134.12 139.88,134.12L129.03,134.12C127.374,134.12 126.03,135.464 126.03,137.12C126.03,138.776 127.374,140.12 129.03,140.12L139.88,140.12C141.536,140.12 142.88,138.776 142.88,137.12Z" style="fill:rgb(99,192,249);"/>
                <path id="Rectangle23" serif:id="Rectangle" d="M112.69,172.22C112.69,170.564 111.346,169.22 109.69,169.22L33.55,169.22C31.894,169.22 30.55,170.564 30.55,172.22C30.55,173.876 31.894,175.22 33.55,175.22L109.69,175.22C111.346,175.22 112.69,173.876 112.69,172.22Z" style="fill:rgb(214,221,231);"/>
                <path id="Rectangle24" serif:id="Rectangle" d="M142.88,172.22C142.88,170.564 141.536,169.22 139.88,169.22L129.03,169.22C127.374,169.22 126.03,170.564 126.03,172.22C126.03,173.876 127.374,175.22 129.03,175.22L139.88,175.22C141.536,175.22 142.88,173.876 142.88,172.22Z" style="fill:rgb(99,192,249);"/>
                <path id="Rectangle25" serif:id="Rectangle" d="M112.69,207.32C112.69,205.664 111.346,204.32 109.69,204.32L33.55,204.32C31.894,204.32 30.55,205.664 30.55,207.32C30.55,208.976 31.894,210.32 33.55,210.32L109.69,210.32C111.346,210.32 112.69,208.976 112.69,207.32Z" style="fill:rgb(214,221,231);"/>
                <path id="Rectangle26" serif:id="Rectangle" d="M112.69,243.12C112.69,241.464 111.346,240.12 109.69,240.12L33.55,240.12C31.894,240.12 30.55,241.464 30.55,243.12C30.55,244.776 31.894,246.12 33.55,246.12L109.69,246.12C111.346,246.12 112.69,244.776 112.69,243.12Z" style="fill:rgb(214,221,231);"/>
                <path id="Rectangle27" serif:id="Rectangle" d="M142.88,243.12C142.88,241.464 141.536,240.12 139.88,240.12L129.03,240.12C127.374,240.12 126.03,241.464 126.03,243.12C126.03,244.776 127.374,246.12 129.03,246.12L139.88,246.12C141.536,246.12 142.88,244.776 142.88,243.12Z" style="fill:rgb(99,192,249);"/>
                <path id="Path5" serif:id="Path" d="M33.79,309.89L70.16,309.89L70.16,316.89L33.79,316.89C31.857,316.89 30.29,315.323 30.29,313.39C30.29,311.457 31.857,309.89 33.79,309.89Z" style="fill:rgb(253,126,152);"/>
                <rect id="Rectangle28" serif:id="Rectangle" x="70.16" y="309.89" width="39.17" height="7" style="fill:rgb(99,192,249);"/>
                <path id="Path6" serif:id="Path" d="M109.32,309.89L145.69,309.89C147.623,309.89 149.19,311.457 149.19,313.39C149.19,315.323 147.623,316.89 145.69,316.89L109.32,316.89L109.32,309.89Z" style="fill:rgb(252,213,107);"/>
            </g>
            <path id="Rectangle29" serif:id="Rectangle" d="M822.86,177.28C822.86,173.969 820.171,171.28 816.86,171.28L207.86,171.28C204.549,171.28 201.86,173.969 201.86,177.28L201.86,204.28C201.86,207.591 204.549,210.28 207.86,210.28L816.86,210.28C820.171,210.28 822.86,207.591 822.86,204.28L822.86,177.28Z" style="fill:rgb(248,249,251);"/>
            <path id="Rectangle30" serif:id="Rectangle" d="M238.36,183.85C238.36,181.642 236.568,179.85 234.36,179.85L216.36,179.85C214.152,179.85 212.36,181.642 212.36,183.85L212.36,197.39C212.36,199.598 214.152,201.39 216.36,201.39L234.36,201.39C236.568,201.39 238.36,199.598 238.36,197.39L238.36,183.85Z" style="fill:rgb(113,115,146);"/>
            <path id="Path7" serif:id="Path" d="M229.92,194.85L219.15,194.85L222.42,190.52C222.503,190.415 222.631,190.353 222.765,190.353C222.899,190.353 223.027,190.415 223.11,190.52L224.82,192.27C224.877,192.331 224.956,192.366 225.04,192.366C225.124,192.366 225.203,192.331 225.26,192.27L227.76,189.27C227.847,189.16 227.98,189.096 228.12,189.096C228.26,189.096 228.393,189.16 228.48,189.27L232.75,194.89L229.92,194.85Z" style="fill:white;"/>
            <ellipse id="Oval7" serif:id="Oval" cx="223.25" cy="186.66" rx="1.03" ry="1.06" style="fill:white;"/>
            <path id="Path8" serif:id="Path" d="M253.06,187.28L523.66,187.28C525.15,187.28 526.36,186.39 526.36,185.28C526.36,184.18 525.15,183.28 523.66,183.28L253.06,183.28C251.57,183.28 250.36,184.18 250.36,185.28C250.36,186.39 251.57,187.28 253.06,187.28Z" style="fill:rgb(214,221,231);"/>
            <path id="Path9" serif:id="Path" d="M745.06,192.28L799.66,192.28C801.15,192.28 802.36,191.39 802.36,190.28C802.36,189.18 801.15,188.28 799.66,188.28L745.06,188.28C743.57,188.28 742.36,189.18 742.36,190.28C742.36,191.39 743.57,192.28 745.06,192.28Z" style="fill:rgb(214,221,231);"/>
            <path id="Rectangle31" serif:id="Rectangle" d="M386.86,196.28C386.86,195.176 385.964,194.28 384.86,194.28L251.86,194.28C250.756,194.28 249.86,195.176 249.86,196.28C249.86,197.384 250.756,198.28 251.86,198.28L384.86,198.28C385.964,198.28 386.86,197.384 386.86,196.28Z" style="fill:rgb(214,221,231);"/>
            <path id="Rectangle32" serif:id="Rectangle" d="M680.36,244.28C680.36,242.072 678.568,240.28 676.36,240.28L634.36,240.28C632.152,240.28 630.36,242.072 630.36,244.28C630.36,246.488 632.152,248.28 634.36,248.28L676.36,248.28C678.568,248.28 680.36,246.488 680.36,244.28Z" style="fill:rgb(231,235,241);"/>
            <path id="Rectangle33" serif:id="Rectangle" d="M251.36,244.28C251.36,242.072 249.568,240.28 247.36,240.28L205.36,240.28C203.152,240.28 201.36,242.072 201.36,244.28C201.36,246.488 203.152,248.28 205.36,248.28L247.36,248.28C249.568,248.28 251.36,246.488 251.36,244.28Z" style="fill:rgb(231,235,241);"/>
            <path id="Rectangle34" serif:id="Rectangle" d="M468.36,244.28C468.36,242.072 466.568,240.28 464.36,240.28L422.36,240.28C420.152,240.28 418.36,242.072 418.36,244.28C418.36,246.488 420.152,248.28 422.36,248.28L464.36,248.28C466.568,248.28 468.36,246.488 468.36,244.28Z" style="fill:rgb(231,235,241);"/>
            <g id="task_summery" transform="matrix(1,0,0,1,216,303)">
                <path id="Rectangle35" serif:id="Rectangle" d="M140.86,5.29C140.86,4.186 139.964,3.29 138.86,3.29L44.86,3.29C43.756,3.29 42.86,4.186 42.86,5.29C42.86,6.394 43.756,7.29 44.86,7.29L138.86,7.29C139.964,7.29 140.86,6.394 140.86,5.29Z" style="fill:rgb(121,226,170);"/>
                <path id="Rectangle36" serif:id="Rectangle" d="M23.86,5.29C23.86,2.806 21.844,0.79 19.36,0.79L5.36,0.79C2.876,0.79 0.86,2.806 0.86,5.29C0.86,7.774 2.876,9.79 5.36,9.79L19.36,9.79C21.844,9.79 23.86,7.774 23.86,5.29Z" style="fill:rgb(121,226,170);"/>
                <path id="Rectangle37" serif:id="Rectangle" d="M94.36,39.28C94.36,38.176 93.464,37.28 92.36,37.28L45.36,37.28C44.256,37.28 43.36,38.176 43.36,39.28C43.36,40.384 44.256,41.28 45.36,41.28L92.36,41.28C93.464,41.28 94.36,40.384 94.36,39.28Z" style="fill:rgb(253,126,152);"/>
                <path id="Rectangle38" serif:id="Rectangle" d="M23.86,39.28C23.86,36.796 21.844,34.78 19.36,34.78L5.36,34.78C2.876,34.78 0.86,36.796 0.86,39.28C0.86,41.764 2.876,43.78 5.36,43.78L19.36,43.78C21.844,43.78 23.86,41.764 23.86,39.28Z" style="fill:rgb(253,126,152);"/>
                <path id="Rectangle39" serif:id="Rectangle" d="M118.86,71.28C118.86,70.176 117.964,69.28 116.86,69.28L44.86,69.28C43.756,69.28 42.86,70.176 42.86,71.28C42.86,72.384 43.756,73.28 44.86,73.28L116.86,73.28C117.964,73.28 118.86,72.384 118.86,71.28Z" style="fill:rgb(99,192,249);"/>
                <path id="Rectangle40" serif:id="Rectangle" d="M23.86,71.28C23.86,68.52 21.62,66.28 18.86,66.28L5.86,66.28C3.1,66.28 0.86,68.52 0.86,71.28C0.86,74.04 3.1,76.28 5.86,76.28L18.86,76.28C21.62,76.28 23.86,74.04 23.86,71.28Z" style="fill:rgb(99,192,249);"/>
                <path id="Rectangle41" serif:id="Rectangle" d="M140.86,104.28C140.86,103.176 139.964,102.28 138.86,102.28L44.86,102.28C43.756,102.28 42.86,103.176 42.86,104.28C42.86,105.384 43.756,106.28 44.86,106.28L138.86,106.28C139.964,106.28 140.86,105.384 140.86,104.28Z" style="fill:rgb(252,213,107);"/>
                <path id="Rectangle42" serif:id="Rectangle" d="M23.86,104.28C23.86,101.796 21.844,99.78 19.36,99.78L5.36,99.78C2.876,99.78 0.86,101.796 0.86,104.28C0.86,106.764 2.876,108.78 5.36,108.78L19.36,108.78C21.844,108.78 23.86,106.764 23.86,104.28Z" style="fill:rgb(252,213,107);"/>
            </g>
            <path id="Path10" serif:id="Path" d="M612.94,448.28C613.83,448.28 614.57,447.83 614.57,447.28L614.57,273.83C614.57,273.27 613.83,272.83 612.94,272.83C612.05,272.83 611.32,273.29 611.32,273.83L611.32,447.27C611.32,447.83 612.05,448.28 612.94,448.28Z" style="fill:rgb(248,249,251);"/>
            <path id="Rectangle43" serif:id="Rectangle" d="M405.86,274.28C405.86,273.452 405.188,272.78 404.36,272.78C403.532,272.78 402.86,273.452 402.86,274.28L402.86,446.28C402.86,447.108 403.532,447.78 404.36,447.78C405.188,447.78 405.86,447.108 405.86,446.28L405.86,274.28Z" style="fill:rgb(248,249,251);"/>
        </g>
    </g>
</svg>
