<?xml version="1.0" encoding="UTF-8"?>
<svg width="662px" height="589px" viewBox="0 0 662 589" version="1.1" xmlns="http://www.w3.org/2000/svg" xmlns:xlink="http://www.w3.org/1999/xlink">
    <!-- Generator: Sketch 52.6 (67491) - http://www.bohemiancoding.com/sketch -->
    <title>pfp-collaboration-03-calendar</title>
    <desc>Created with Sketch.</desc>
    <defs>
        <path d="M567.5,466.5 L0.5,466.5 L0.5,8.5 C0.5,4.081722 4.081722,0.5 8.5,0.5 L559.5,0.5 C563.918278,0.5 567.5,4.081722 567.5,8.5 L567.5,466.5 Z" id="path-1"></path>
        <filter x="-2.3%" y="-2.4%" width="104.6%" height="105.6%" filterUnits="objectBoundingBox" id="filter-2">
            <feOffset dx="0" dy="2" in="SourceAlpha" result="shadowOffsetOuter1"></feOffset>
            <feGaussianBlur stdDeviation="4" in="shadowOffsetOuter1" result="shadowBlurOuter1"></feGaussianBlur>
            <feColorMatrix values="0 0 0 0 0.11372549   0 0 0 0 0.109803922   0 0 0 0 0.223529412  0 0 0 0.1 0" type="matrix" in="shadowBlurOuter1"></feColorMatrix>
        </filter>
        <rect id="path-3" x="0" y="0" width="568" height="52" rx="8"></rect>
        <filter x="-2.3%" y="-21.2%" width="104.6%" height="150.0%" filterUnits="objectBoundingBox" id="filter-4">
            <feOffset dx="0" dy="2" in="SourceAlpha" result="shadowOffsetOuter1"></feOffset>
            <feGaussianBlur stdDeviation="4" in="shadowOffsetOuter1" result="shadowBlurOuter1"></feGaussianBlur>
            <feColorMatrix values="0 0 0 0 0.11372549   0 0 0 0 0.109803922   0 0 0 0 0.223529412  0 0 0 0.1 0" type="matrix" in="shadowBlurOuter1"></feColorMatrix>
        </filter>
    </defs>
    <g id="Page-1" stroke="none" stroke-width="1" fill="none" fill-rule="evenodd">
        <g id="Product_feature_page_collaboration" transform="translate(-108.000000, -3344.000000)">
            <g id="Section-4" transform="translate(108.000000, 3118.000000)">
                <g id="Organize-anything" transform="translate(0.000000, 226.000000)">
                    <g id="GUI-details" transform="translate(17.000000, 107.000000)">
                        <path d="M345.617435,141 L344,139.387193 L344,133.738426 L351.28241,141 L345.617435,141 Z M363.617435,141 L344,121.438693 L344,115.789926 L369.28241,141 L363.617435,141 Z M381.617435,141 L344,103.490194 L344,97.8414263 L387.28241,141 L381.617435,141 Z M399.617435,141 L344,85.5416942 L344,79.8929266 L405.28241,141 L399.617435,141 Z M417.818048,141 L344,67.3931549 L344,61.7443873 L423.483024,141 L417.818048,141 Z M436.164413,141 L344,49.099281 L344,43.4505134 L441.829389,141 L436.164413,141 Z M454.510779,141 L344,30.8054071 L344,25.1566396 L460.175754,141 L454.510779,141 Z M472.857144,141 L344,12.5115333 L344,6.86276574 L478.52212,141 L472.857144,141 Z M491.203509,141 L349.798932,2.84217094e-14 L355.463908,2.84217094e-14 L496.868485,141 L491.203509,141 Z M509.549874,141 L368.145297,8.52651283e-14 L373.810273,2.84217094e-14 L515.21485,141 L509.549874,141 Z M527.896239,141 L386.491662,2.84217094e-14 L392.156638,2.84217094e-14 L533.561215,141 L527.896239,141 Z M546.242605,141 L404.838028,2.84217094e-14 L410.503003,2.84217094e-14 L551.90758,141 L546.242605,141 Z M564.58897,141 L423.184393,2.84217094e-14 L428.849369,2.84217094e-14 L570.253946,141 L564.58897,141 Z M582.935335,141 L441.530758,2.84217094e-14 L447.195734,2.84217094e-14 L588.600311,141 L582.935335,141 Z M601.2817,141 L459.877123,2.84217094e-14 L465.542099,2.84217094e-14 L606.946676,141 L601.2817,141 Z M617,138.379454 L478.223488,2.84217094e-14 L483.888464,2.84217094e-14 L617,132.730686 L617,138.379454 Z M617,120.08558 L496.569854,0 L502.234829,2.84217094e-14 L617,114.436812 L617,120.08558 Z M617,101.791706 L514.916219,4.26325641e-14 L520.581195,2.84217094e-14 L617,96.1429386 L617,101.791706 Z M617,83.4978323 L533.262584,0 L538.92756,2.84217094e-14 L617,77.8490648 L617,83.4978323 Z M617,65.2039585 L551.608949,2.84217094e-14 L557.273925,2.84217094e-14 L617,59.5551909 L617,65.2039585 Z M617,46.1702107 L570.697311,3.55271368e-14 L576.362287,2.84217094e-14 L617,40.5214432 L617,46.1702107 Z M617,27.1364629 L589.785673,5.32907052e-14 L595.450649,2.84217094e-14 L617,21.4876954 L617,27.1364629 Z M617,8.10271514 L608.874035,4.08562073e-14 L614.539011,2.84217094e-14 L617,2.45394759 L617,8.10271514 Z" id="Combined-Shape" fill="#E7EBF1" fill-rule="nonzero"></path>
                        <ellipse id="Mask" fill="#FFEAB6" cx="61.5" cy="411.5" rx="60.8928571" ry="60.9583333"></ellipse>
                        <polygon id="Fill-1-Copy-2" fill="#BAF8DD" points="605.285714 416.333333 571.714286 449.666667 605.285714 449.666667"></polygon>
                    </g>
                    <g id="GUI" transform="translate(47.000000, 10.000000)">
                        <g id="background" transform="translate(0.000000, 72.000000)">
                            <g id="Path">
                                <use fill="black" fill-opacity="1" filter="url(#filter-2)" xlink:href="#path-1"></use>
                                <use fill="#FFFFFF" fill-rule="evenodd" xlink:href="#path-1"></use>
                            </g>
                        </g>
                        <path d="M8.5,72.5 L559.5,72.5 C563.918278,72.5 567.5,76.081722 567.5,80.5 L567.5,99.5 L0.5,99.5 L0.5,80.5 C0.5,76.081722 4.081722,72.5 8.5,72.5 Z" id="Path" fill="#484E6A"></path>
                        <circle id="Oval" fill="#FFFFFF" cx="15.81" cy="86" r="3.5"></circle>
                        <circle id="Oval" fill="#FFFFFF" cx="31.09" cy="86" r="3.5"></circle>
                        <circle id="Oval" fill="#FFFFFF" cx="46.38" cy="86" r="3.5"></circle>
                        <rect id="Rectangle" fill="#CCD5E2" x="25.6" y="182.02" width="68" height="7" rx="3.5"></rect>
                        <path d="M537,177 C537.542787,176.999667 538.062398,177.219963 538.439549,177.610315 C538.816701,178.000667 539.018998,178.527545 539,179.07 L539,191.92 C539.021784,192.464154 538.820727,192.99366 538.443267,193.386218 C538.065807,193.778776 537.544589,194.000436 537,194 L505.91,194 C505.365411,194.000436 504.844193,193.778776 504.466733,193.386218 C504.089273,192.99366 503.888216,192.464154 503.91,191.92 L503.91,179.09 C503.891002,178.547545 504.093299,178.020667 504.470451,177.630315 C504.847602,177.239963 505.367213,177.019667 505.91,177.02 L537,177.02 L537,177 Z M537,175.02 L505.91,175.02 C504.836894,175.019836 503.808724,175.450858 503.056534,176.216212 C502.304343,176.981566 501.891221,178.017058 501.91,179.09 L501.91,191.94 C501.888503,193.014658 502.30042,194.052748 503.052909,194.820286 C503.805397,195.587824 504.835127,196.020215 505.91,196.02 L537,196.02 C538.074873,196.020215 539.104603,195.587824 539.857091,194.820286 C540.60958,194.052748 541.021497,193.014658 541,191.94 L541,179.09 C541.018779,178.017058 540.605657,176.981566 539.853466,176.216212 C539.101276,175.450858 538.073106,175.019836 537,175.02 Z" id="Shape" fill="#E1E6EE" fill-rule="nonzero"></path>
                        <path d="M491.48,177 C492.584569,177 493.48,177.895431 493.48,179 L493.48,192 C493.48,193.104569 492.584569,194 491.48,194 L478.48,194 C477.375431,194 476.48,193.104569 476.48,192 L476.48,179 C476.48,177.895431 477.375431,177 478.48,177 L491.48,177 Z M491.48,175 L478.48,175 C476.270861,175 474.48,176.790861 474.48,179 L474.48,192 C474.48,194.209139 476.270861,196 478.48,196 L491.48,196 C493.689139,196 495.48,194.209139 495.48,192 L495.48,179 C495.48,176.790861 493.689139,175 491.48,175 Z" id="Shape" fill="#E1E6EE" fill-rule="nonzero"></path>
                        <path d="M407.59,196 L461.29,196 C463.15139,196.132757 464.775577,194.74886 464.94,192.89 L464.94,178.13 C464.780756,176.26847 463.153203,174.881706 461.29,175.02 L407.59,175.02 C405.726797,174.881706 404.099244,176.26847 403.94,178.13 L403.94,192.91 C404.114602,194.760848 405.735716,196.133242 407.59,196 Z" id="Path" fill="#79E2AA"></path>
                        <circle id="Oval" fill="#CCD5E2" cx="484.98" cy="185.55" r="1.36"></circle>
                        <circle id="Oval" fill="#CCD5E2" cx="484.98" cy="181.01" r="1.36"></circle>
                        <circle id="Oval" fill="#CCD5E2" cx="484.98" cy="190.1" r="1.36"></circle>
                        <g id="calendar" transform="translate(25.000000, 215.000000)">
                            <rect id="Rectangle" fill="#F4F6F9" opacity="0.5" x="13" y="17" width="71.8" height="68"></rect>
                            <path d="M85,16 L85,298" id="Path" stroke="#F4F6F9" stroke-width="2"></path>
                            <path d="M157,16 L157,298" id="Path" stroke="#F4F6F9" stroke-width="2"></path>
                            <path d="M228,16 L228,298" id="Path" stroke="#F4F6F9" stroke-width="2"></path>
                            <path d="M300,16 L300,298" id="Path" stroke="#F4F6F9" stroke-width="2"></path>
                            <path d="M372,16 L372,298" id="Path" stroke="#F4F6F9" stroke-width="2"></path>
                            <path d="M444,16 L444,298" id="Path" stroke="#F4F6F9" stroke-width="2"></path>
                            <path d="M515,16 L515,298" id="Path" stroke="#F4F6F9" stroke-width="2"></path>
                            <rect id="Rectangle" fill="#F4F6F9" x="13" y="84" width="501" height="2"></rect>
                            <rect id="Rectangle" fill="#F4F6F9" x="13" y="155" width="501" height="2"></rect>
                            <rect id="Rectangle" fill="#F4F6F9" x="13" y="227" width="501" height="2"></rect>
                            <rect id="Rectangle" fill="#F4F6F9" x="13" y="298" width="501" height="2"></rect>
                            <rect id="Rectangle" fill="#E7EBF1" x="103" y="60" width="43" height="3" rx="1.5"></rect>
                            <circle id="Oval" fill="#79E2AA" cx="96.5" cy="61.5" r="2.5"></circle>
                            <rect id="Rectangle" fill="#E7EBF1" x="175" y="120" width="43" height="3" rx="1.5"></rect>
                            <circle id="Oval" fill="#63C0F9" cx="168.5" cy="121.5" r="2.5"></circle>
                            <rect id="Rectangle" fill="#E7EBF1" x="246" y="190" width="43" height="3" rx="1.5"></rect>
                            <circle id="Oval" fill="#63C0F9" cx="239.5" cy="191.5" r="2.5"></circle>
                            <rect id="Rectangle" fill="#E7EBF1" x="246" y="108" width="43" height="3" rx="1.5"></rect>
                            <circle id="Oval" fill="#63C0F9" cx="239.5" cy="109.5" r="2.5"></circle>
                            <rect id="Rectangle" fill="#E7EBF1" x="102" y="263" width="43" height="3" rx="1.5"></rect>
                            <circle id="Oval" fill="#63C0F9" cx="95.5" cy="264.5" r="2.5"></circle>
                            <rect id="Rectangle" fill="#E7EBF1" x="318" y="49" width="43" height="3" rx="1.5"></rect>
                            <circle id="Oval" fill="#79E2AA" cx="311.5" cy="50.5" r="2.5"></circle>
                            <rect id="Rectangle" fill="#E7EBF1" x="30" y="120" width="43" height="3" rx="1.5"></rect>
                            <circle id="Oval" fill="#79E2AA" cx="23.5" cy="121.5" r="2.5"></circle>
                            <rect id="Rectangle" fill="#E7EBF1" x="246" y="49" width="43" height="3" rx="1.5"></rect>
                            <circle id="Oval" fill="#63C0F9" cx="239.5" cy="50.5" r="2.5"></circle>
                            <rect id="Rectangle" fill="#E7EBF1" x="246" y="64" width="43" height="3" rx="1.5"></rect>
                            <circle id="Oval" fill="#CCD5E2" cx="239.5" cy="65.5" r="2.5"></circle>
                            <rect id="Rectangle" fill="#E7EBF1" x="176" y="190" width="43" height="3" rx="1.5"></rect>
                            <circle id="Oval" fill="#FCD56B" cx="169.5" cy="191.5" r="2.5"></circle>
                            <rect id="Rectangle" fill="#E7EBF1" x="176" y="205" width="43" height="3" rx="1.5"></rect>
                            <circle id="Oval" fill="#CCD5E2" cx="169.5" cy="206.5" r="2.5"></circle>
                            <rect id="Rectangle" fill="#E7EBF1" x="30" y="179" width="43" height="3" rx="1.5"></rect>
                            <circle id="Oval" fill="#63C0F9" cx="23.5" cy="180.5" r="2.5"></circle>
                            <rect id="Rectangle" fill="#E7EBF1" x="30" y="194" width="43" height="3" rx="1.5"></rect>
                            <circle id="Oval" fill="#FCD56B" cx="23.5" cy="195.5" r="2.5"></circle>
                            <rect id="Rectangle" fill="#E7EBF1" x="318" y="119" width="43" height="3" rx="1.5"></rect>
                            <circle id="Oval" fill="#FD7E98" cx="311.5" cy="120.5" r="2.5"></circle>
                            <rect id="Rectangle" fill="#E7EBF1" x="318" y="134" width="43" height="3" rx="1.5"></rect>
                            <circle id="Oval" fill="#CCD5E2" cx="311.5" cy="135.5" r="2.5"></circle>
                            <rect id="Rectangle" fill="#E7EBF1" x="318" y="168" width="43" height="3" rx="1.5"></rect>
                            <circle id="Oval" fill="#FD7E98" cx="311.5" cy="169.5" r="2.5"></circle>
                            <rect id="Rectangle" fill="#E7EBF1" x="318" y="183" width="43" height="3" rx="1.5"></rect>
                            <circle id="Oval" fill="#79E2AA" cx="311.5" cy="184.5" r="2.5"></circle>
                            <rect id="Rectangle" fill="#E7EBF1" x="318" y="198" width="43" height="3" rx="1.5"></rect>
                            <circle id="Oval" fill="#CCD5E2" cx="311.5" cy="199.5" r="2.5"></circle>
                            <rect id="Rectangle" fill="#E7EBF1" x="246" y="251" width="43" height="3" rx="1.5"></rect>
                            <circle id="Oval" fill="#FD7E98" cx="239.5" cy="252.5" r="2.5"></circle>
                            <rect id="Rectangle" fill="#E7EBF1" x="246" y="266" width="43" height="3" rx="1.5"></rect>
                            <circle id="Oval" fill="#CCD5E2" cx="239.5" cy="267.5" r="2.5"></circle>
                            <rect id="Rectangle" fill="#F4F6F9" x="0" y="0" width="13" height="300"></rect>
                            <rect id="Rectangle" fill="#F4F6F9" x="1" y="0" width="515" height="17"></rect>
                            <rect id="Rectangle" fill="#FFFFFF" x="36.9" y="6.5" width="24" height="4" rx="2"></rect>
                            <rect id="Rectangle" fill="#FFFFFF" x="110" y="6.5" width="24" height="4" rx="2"></rect>
                            <rect id="Rectangle" fill="#FFFFFF" x="181" y="6.5" width="24" height="4" rx="2"></rect>
                            <rect id="Rectangle" fill="#FFFFFF" x="253" y="6.5" width="24" height="4" rx="2"></rect>
                            <rect id="Rectangle" fill="#FFFFFF" x="325" y="6.5" width="24" height="4" rx="2"></rect>
                            <rect id="Rectangle" fill="#FFFFFF" x="397" y="6.5" width="24" height="4" rx="2"></rect>
                            <rect id="Rectangle" fill="#FFFFFF" x="469" y="6.5" width="24" height="4" rx="2"></rect>
                            <rect id="Rectangle" fill="#79E2AA" x="85" y="16" width="287" height="11" rx="5.5"></rect>
                            <rect id="Rectangle" fill="#FD7E98" x="85" y="38" width="142" height="11" rx="5.5"></rect>
                            <rect id="Rectangle" fill="#63C0F9" x="13" y="97" width="214" height="11" rx="5.5"></rect>
                            <rect id="Rectangle" fill="#CCD5E2" x="86" y="168" width="213" height="11" rx="5.5"></rect>
                            <rect id="Rectangle" fill="#FCD56B" x="301" y="97" width="70" height="11" rx="5.5"></rect>
                            <rect id="Rectangle" fill="#79E2AA" x="13" y="229" width="143" height="11" rx="5.5"></rect>
                            <rect id="Rectangle" fill="#CCD5E2" x="13" y="240" width="214" height="11" rx="5.5"></rect>
                            <rect id="Rectangle" fill="#FCD56B" x="301" y="240" width="71" height="11" rx="5.5"></rect>
                            <path d="M90.5,27 L516,27 L516,38 L90.5,38 C87.4624339,38 85,35.5375661 85,32.5 C85,29.4624339 87.4624339,27 90.5,27 Z" id="Path" fill="#CCD5E2"></path>
                            <path d="M18.5,86 L514,86 L514,97 L18.5,97 C15.4624339,97 13,94.5375661 13,91.5 C13,88.4624339 15.4624339,86 18.5,86 Z" id="Path" fill="#79E2AA"></path>
                            <path d="M234.5,229 L514,229 L514,240 L234.5,240 C231.462434,240 229,237.537566 229,234.5 C229,231.462434 231.462434,229 234.5,229 Z" id="Path" fill="#79E2AA"></path>
                            <path d="M18.5,157 L299,157 L299,168 L18.5,168 C15.4624339,168 13,165.537566 13,162.5 C13,159.462434 15.4624339,157 18.5,157 Z" id="Path" fill="#79E2AA" transform="translate(156.000000, 162.500000) rotate(180.000000) translate(-156.000000, -162.500000) "></path>
                        </g>
                        <g id="Projects_status_update">
                            <g id="Rectangle">
                                <use fill="black" fill-opacity="1" filter="url(#filter-4)" xlink:href="#path-3"></use>
                                <use fill="#FFFFFF" fill-rule="evenodd" xlink:href="#path-3"></use>
                            </g>
                            <rect id="Rectangle" fill="#D6DDE7" x="64" y="16" width="77" height="5" rx="2.3"></rect>
                            <rect id="Rectangle" fill="#E7EBF1" x="64" y="29" width="187" height="5" rx="2.3"></rect>
                            <path d="M4,1.09 C1.53041466,2.5158059 0.00649286959,5.1483808 0,8 L0,44 C0.00649286959,46.8516192 1.53041466,49.4841941 4,50.91 L4,1.09 Z" id="Path" fill="#79E2AA"></path>
                            <path d="M511,17 C511.542787,16.9996674 512.062398,17.2199628 512.439549,17.6103147 C512.816701,18.0006665 513.018998,18.5275454 513,19.07 L513,31.94 C513.01623,32.4807508 512.812703,33.0050103 512.435857,33.3931619 C512.059011,33.7813136 511.540994,34.0002435 511,34 L479.91,34 C479.365411,34.0004359 478.844193,33.7787762 478.466733,33.3862181 C478.089273,32.99366 477.888216,32.4641536 477.91,31.92 L477.91,19.09 C477.891002,18.5475454 478.093299,18.0206665 478.470451,17.6303147 C478.847602,17.2399628 479.367213,17.0196674 479.91,17.02 L511,17.02 L511,17 Z M511,15.02 L479.91,15.02 C478.836894,15.0198357 477.808724,15.4508584 477.056534,16.2162124 C476.304343,16.9815663 475.891221,18.017058 475.91,19.09 L475.91,31.94 C475.888503,33.0146585 476.30042,34.0527478 477.052909,34.8202857 C477.805397,35.5878237 478.835127,36.020215 479.91,36.02 L511,36.02 C512.074873,36.020215 513.104603,35.5878237 513.857091,34.8202857 C514.60958,34.0527478 515.021497,33.0146585 515,31.94 L515,19.09 C515.024225,18.0136274 514.613516,16.9729365 513.860729,16.2032116 C513.107941,15.4334867 512.076645,14.9997274 511,15 L511,15.02 Z" id="Shape" fill="#E1E6EE" fill-rule="nonzero"></path>
                            <path d="M537.48,17 C538.584569,17 539.48,17.8954305 539.48,19 L539.48,32 C539.48,33.1045695 538.584569,34 537.48,34 L524.48,34 C523.375431,34 522.48,33.1045695 522.48,32 L522.48,19 C522.48,17.8954305 523.375431,17 524.48,17 L537.48,17 Z M537.48,15 L524.48,15 C522.270861,15 520.48,16.790861 520.48,19 L520.48,32 C520.48,34.209139 522.270861,36 524.48,36 L537.48,36 C539.689139,36 541.48,34.209139 541.48,32 L541.48,19 C541.48,16.790861 539.689139,15 537.48,15 Z" id="Shape" fill="#E1E6EE" fill-rule="nonzero"></path>
                            <circle id="Oval" fill="#CCD5E2" cx="530.98" cy="25.55" r="1.36"></circle>
                            <circle id="Oval" fill="#CCD5E2" cx="530.98" cy="21.01" r="1.36"></circle>
                            <circle id="Oval" fill="#CCD5E2" cx="530.98" cy="30.1" r="1.36"></circle>
                            <path d="M498.5,23.5 L499.24,23.5 C499.796173,23.5003044 500.319086,23.7649628 500.64867,24.2129608 C500.978254,24.6609589 501.075263,25.2389478 500.91,25.77 L499.91,28.88 C499.65759,29.5423344 499.028649,29.9853622 498.32,30 L492.75,30 C491.783502,30 491,29.2164983 491,28.25 L491,26.25 C491,25.2835017 491.783502,24.5 492.75,24.5 L493.69,24.5 L494.69,21.25 C494.882881,20.6075407 495.426026,20.1318646 496.08831,20.0253882 C496.750594,19.9189117 497.415466,20.2003727 497.8,20.75 L498.19,21.31 C498.396505,21.6027235 498.5082,21.9517709 498.51,22.31 L498.5,23.5 Z M497,24.25 L497,22.32 C497,22.2659074 496.982456,22.213274 496.95,22.17 L496.56,21.61 C496.504693,21.5339656 496.411403,21.4953915 496.318549,21.5101637 C496.225695,21.524936 496.148981,21.5905562 496.12,21.68 L495,25.36 L495,28.5 L498.32,28.5 C498.404488,28.5028771 498.484258,28.4610925 498.53,28.39 L499.53,25.32 C499.552033,25.2444582 499.537214,25.1629515 499.49,25.1 C499.442786,25.0370485 499.368689,25 499.29,25 L497.8,25 C497.593324,25.0109071 497.391139,24.9370551 497.240152,24.7955044 C497.089165,24.6539538 497.002436,24.4569489 497,24.25 Z" id="Shape" fill="#CCD5E2" fill-rule="nonzero"></path>
                            <circle id="Oval" fill="#FCD56B" cx="33.61" cy="25.39" r="15"></circle>
                            <g id="character" transform="translate(22.000000, 11.000000)">
                                <path d="M20.32,17.8 C27.13,8.5 20.79,8.19 21.05,8.2 C21.79,5.7 20.37,4.4 17.93,4.79 C17.93,3.33 16.93,2.65 14.93,2.88 C13.9684425,2.92881749 13.0264831,3.17025835 12.16,3.59 C12.49,1.74 11.63,0.85 10.16,0.85 C4.42,0.64 3.42,7.85 3.42,7.85 C0.68,7.85 -1.19,13.42 3.15,17.85 L20.32,17.8 Z" id="Path" fill="#383753"></path>
                                <path d="M15.64,8.78 C12.64,8.78 7.88,8.04 5.06,9.6 C4.24,10.06 4.15,11.15 3.77,12.02 C3.19,13.36 1.36,22.78 7.27,24.24 C8.36,24.5 15.27,24.58 17.36,23.57 C17.9891625,23.2788876 18.5484463,22.8560144 19,22.33 C20.57,20.48 20.36,16.88 20.24,14.47 C19.97,9.33 18.52,8.78 15.64,8.78 Z" id="Path" fill="#B16D60"></path>
                                <path d="M6.55,8.43 C9.72,11.92 14.32,12.11 17.69,8.43 L6.55,8.43 Z" id="Path" fill="#383753"></path>
                                <path d="M8.58,17 C8.41652034,17.0112177 8.26577588,17.0922495 8.16623663,17.2224162 C8.06669739,17.352583 8.02799269,17.5192923 8.06,17.68 C8.13807747,17.9617372 8.42619061,18.1301726 8.71,18.06 C8.90047543,18.0057038 9.05273216,17.8623091 9.11833945,17.6754277 C9.18394675,17.4885463 9.15473647,17.2814451 9.04,17.12 C8.91582608,17.0066114 8.74373983,16.9617193 8.58,17 Z" id="Path" fill="#813F31"></path>
                                <path d="M15.56,17 C15.3927589,17.0558874 15.2585684,17.182512 15.1930804,17.3462321 C15.1275923,17.5099523 15.1374374,17.6941912 15.22,17.85 C15.3032545,17.9736836 15.4323933,18.0590616 15.5788043,18.0872176 C15.7252153,18.1153735 15.8768097,18.0839827 16,18 C16.1781676,17.8315818 16.2311945,17.5693277 16.132455,17.3449198 C16.0337155,17.1205119 15.8045395,16.9824271 15.56,17 Z" id="Path" fill="#813F31"></path>
                                <path d="M12.21,19.39 L11.84,19.39 C11.7743283,19.3850521 11.7135754,19.3533351 11.6719748,19.3022798 C11.6303742,19.2512245 11.6115816,19.1853175 11.62,19.12 C11.6405908,18.9842312 11.7632141,18.8878843 11.9,18.9 C12.3029099,18.960654 12.714745,18.908742 13.09,18.75 L12.58,15.51 C12.5653855,15.4447424 12.5786612,15.3763465 12.6166278,15.321295 C12.6545943,15.2662435 12.7138084,15.2295292 12.78,15.22 C12.9171449,15.2016855 13.0446093,15.2939873 13.07,15.43 L13.61,18.84 C13.6220078,18.9344167 13.5793624,19.0274613 13.5,19.08 C13.1106974,19.3100636 12.6613302,19.4180511 12.21,19.39 Z" id="Path" fill="#813F31" opacity="0.4"></path>
                                <path d="M12.05,21.71 C11.3897488,21.711154 10.7434457,21.5200428 10.19,21.16 C10.0776237,21.0803043 10.0469203,20.9267869 10.12,20.81 C10.1960228,20.6989628 10.346298,20.6680238 10.46,20.74 C11.0872016,21.1545116 11.8523944,21.3053947 12.59,21.16 C12.7239833,21.1410433 12.8501072,21.2280253 12.88,21.36 C12.9048678,21.4920142 12.8209619,21.6200812 12.69,21.65 C12.4789826,21.6897591 12.2647303,21.7098453 12.05,21.71 Z" id="Path" fill="#813F31"></path>
                                <path d="M6.77,15.49 C6.62813353,15.4883937 6.49362878,15.4265942 6.4,15.32 C6.30332277,15.2292667 6.24848135,15.1025859 6.24848135,14.97 C6.24848135,14.8374141 6.30332277,14.7107333 6.4,14.62 C7.06366782,14.0307551 7.90445601,13.6789609 8.79,13.62 C8.96863279,13.6074957 9.14036727,13.6912407 9.2405127,13.8396891 C9.34065814,13.9881375 9.35400006,14.1787364 9.2755127,14.3396891 C9.19702534,14.5006418 9.03863279,14.6074957 8.86,14.62 C8.19071711,14.6599243 7.5553719,14.9281812 7.06,15.38 C6.97588788,15.4437284 6.87521772,15.4819136 6.77,15.49 Z" id="Path" fill="#383753"></path>
                                <path d="M17.72,15.49 C17.5979893,15.4875444 17.4809037,15.4414197 17.39,15.36 C16.888971,14.9108505 16.2514916,14.6431795 15.58,14.6 C15.3038576,14.58067 15.09567,14.3411424 15.115,14.065 C15.13433,13.7888576 15.3738576,13.58067 15.65,13.6 C16.5390356,13.6567792 17.3836761,14.0087127 18.05,14.6 C18.1440641,14.6921636 18.1970714,14.8183103 18.1970714,14.95 C18.1970714,15.0816897 18.1440641,15.2078364 18.05,15.3 C17.9709007,15.4061227 17.8514912,15.4748736 17.72,15.49 Z" id="Path" fill="#383753"></path>
                            </g>
                        </g>
                        <g id="header" transform="translate(0.000000, 98.000000)">
                            <rect id="Rectangle" fill="#4361D7" x="0.5" y="0.5" width="567" height="19"></rect>
                            <rect id="Rectangle" fill="#6A84ED" x="0.5" y="18.5" width="567" height="41"></rect>
                            <rect id="Rectangle" fill="#FFFFFF" opacity="0.5" x="19.59" y="33.71" width="95.12" height="6" rx="3"></rect>
                        </g>
                    </g>
                </g>
            </g>
        </g>
    </g>
</svg>