<?xml version="1.0" encoding="UTF-8"?>
<svg width="662px" height="466px" viewBox="0 0 662 466" version="1.1" xmlns="http://www.w3.org/2000/svg" xmlns:xlink="http://www.w3.org/1999/xlink">
    <!-- Generator: Sketch 52.6 (67491) - http://www.bohemiancoding.com/sketch -->
    <title>pfp-collaboration-01-activity-mobile</title>
    <desc>Created with Sketch.</desc>
    <defs>
        <polygon id="path-1" points="619.857143 386.666667 586.285714 420 619.857143 420"></polygon>
        <rect id="path-3" x="0.45" y="0" width="196.55" height="390" rx="20"></rect>
        <filter x="-6.6%" y="-2.8%" width="113.2%" height="106.7%" filterUnits="objectBoundingBox" id="filter-4">
            <feOffset dx="0" dy="2" in="SourceAlpha" result="shadowOffsetOuter1"></feOffset>
            <feGaussianBlur stdDeviation="4" in="shadowOffsetOuter1" result="shadowBlurOuter1"></feGaussianBlur>
            <feColorMatrix values="0 0 0 0 0.11372549   0 0 0 0 0.109803922   0 0 0 0 0.223529412  0 0 0 0.1 0" type="matrix" in="shadowBlurOuter1"></feColorMatrix>
        </filter>
    </defs>
    <g id="Page-1" stroke="none" stroke-width="1" fill="none" fill-rule="evenodd">
        <g id="Product_feature_page_collaboration" transform="translate(-108.000000, -1519.000000)">
            <g id="Section-2" transform="translate(94.000000, 1318.000000)">
                <g id="have-complete-control" transform="translate(14.000000, 201.000000)">
                    <g id="GUI-details" transform="translate(18.000000, 31.000000)">
                        <path d="M65.6174345,141 L64,139.387193 L64,133.738426 L71.2824103,141 L65.6174345,141 Z M83.6174345,141 L64,121.438693 L64,115.789926 L89.2824103,141 L83.6174345,141 Z M101.617435,141 L64,103.490194 L64,97.8414263 L107.28241,141 L101.617435,141 Z M119.617435,141 L64,85.5416942 L64,79.8929266 L125.28241,141 L119.617435,141 Z M137.818048,141 L64,67.3931549 L64,61.7443873 L143.483024,141 L137.818048,141 Z M156.164413,141 L64,49.099281 L64,43.4505134 L161.829389,141 L156.164413,141 Z M174.510779,141 L64,30.8054071 L64,25.1566396 L180.175754,141 L174.510779,141 Z M192.857144,141 L64,12.5115333 L64,6.86276574 L198.52212,141 L192.857144,141 Z M211.203509,141 L69.7989321,2.84217094e-14 L75.4639078,2.84217094e-14 L216.868485,141 L211.203509,141 Z M229.549874,141 L88.1452973,8.52651283e-14 L93.810273,2.84217094e-14 L235.21485,141 L229.549874,141 Z M247.896239,141 L106.491662,2.84217094e-14 L112.156638,2.84217094e-14 L253.561215,141 L247.896239,141 Z M266.242605,141 L124.838028,2.84217094e-14 L130.503003,2.84217094e-14 L271.90758,141 L266.242605,141 Z M284.58897,141 L143.184393,2.84217094e-14 L148.849369,2.84217094e-14 L290.253946,141 L284.58897,141 Z M302.935335,141 L161.530758,2.84217094e-14 L167.195734,2.84217094e-14 L308.600311,141 L302.935335,141 Z M321.2817,141 L179.877123,2.84217094e-14 L185.542099,2.84217094e-14 L326.946676,141 L321.2817,141 Z M337,138.379454 L198.223488,2.84217094e-14 L203.888464,2.84217094e-14 L337,132.730686 L337,138.379454 Z M337,120.08558 L216.569854,0 L222.234829,2.84217094e-14 L337,114.436812 L337,120.08558 Z M337,101.791706 L234.916219,4.26325641e-14 L240.581195,2.84217094e-14 L337,96.1429386 L337,101.791706 Z M337,83.4978323 L253.262584,0 L258.92756,2.84217094e-14 L337,77.8490648 L337,83.4978323 Z M337,65.2039585 L271.608949,2.84217094e-14 L277.273925,2.84217094e-14 L337,59.5551909 L337,65.2039585 Z M337,46.1702107 L290.697311,3.55271368e-14 L296.362287,2.84217094e-14 L337,40.5214432 L337,46.1702107 Z M337,27.1364629 L309.785673,5.32907052e-14 L315.450649,2.84217094e-14 L337,21.4876954 L337,27.1364629 Z M337,8.10271514 L328.874035,4.08562073e-14 L334.539011,2.84217094e-14 L337,2.45394759 L337,8.10271514 Z" id="Mask" fill="#E7EBF1" fill-rule="nonzero"></path>
                        <ellipse id="Oval-Copy-8" fill="#C3CFFA" cx="61.5" cy="355.5" rx="60.8928571" ry="60.9583333"></ellipse>
                        <mask id="mask-2" fill="white">
                            <use xlink:href="#path-1"></use>
                        </mask>
                        <use id="Fill-1-Copy-2" fill="#BAF8DD" transform="translate(603.071429, 403.333333) scale(-1, -1) translate(-603.071429, -403.333333) " xlink:href="#path-1"></use>
                    </g>
                    <g id="GUI" transform="translate(47.000000, 39.000000)">
                        <g id="projects-activity-page" transform="translate(0.000000, 16.000000)">
                            <path d="M523,355 L0,355 L0,7.9891977 C3.33200697e-16,3.57688565 3.58316075,-1.53956708e-16 8.00321353,-1.53956708e-16 L514.996786,-1.53956708e-16 C519.416839,-1.53956708e-16 523,3.57688565 523,7.9891977 L523,355 Z" id="Path" fill="#FFFFFF"></path>
                            <rect id="Rectangle" fill="#4361D7" x="0.21" y="26" width="522.76" height="19"></rect>
                            <rect id="Rectangle" fill="#6A84ED" x="0.21" y="45" width="522.76" height="41"></rect>
                            <path d="M8.19,0.27 L514.95,0.27 C519.368278,0.27 522.95,3.851722 522.95,8.27 L522.95,27 L0.19,27 L0.19,8.27 C0.19,3.851722 3.771722,0.27 8.19,0.27 Z" id="Path" fill="#484E6A"></path>
                            <circle id="Oval" fill="#FFFFFF" cx="15.1" cy="13.53" r="3.47"></circle>
                            <circle id="Oval" fill="#FFFFFF" cx="30.39" cy="13.53" r="3.47"></circle>
                            <circle id="Oval" fill="#FFFFFF" cx="45.67" cy="13.53" r="3.47"></circle>
                            <rect id="Rectangle" fill="#FFFFFF" opacity="0.5" x="24.5" y="62.5" width="95" height="5" rx="2.5"></rect>
                            <rect id="Rectangle" fill="#CCD5E2" x="155" y="107" width="95.12" height="7.42" rx="3.71"></rect>
                            <path d="M491,104 C492.104569,104 493,104.895431 493,106 L493,118.62 C493,119.724569 492.104569,120.62 491,120.62 L449.38,120.62 C448.275431,120.62 447.38,119.724569 447.38,118.62 L447.38,106 C447.38,104.895431 448.275431,104 449.38,104 L491,104 Z M491,102 L449.38,102 C447.170861,102 445.38,103.790861 445.38,106 L445.38,118.62 C445.38,120.829139 447.170861,122.62 449.38,122.62 L491,122.62 C493.209139,122.62 495,120.829139 495,118.62 L495,106 C495,103.790861 493.209139,102 491,102 Z" id="Shape" fill="#E1E6EE" fill-rule="nonzero"></path>
                            <path d="M435,104.38 C436.104569,104.38 437,105.275431 437,106.38 L437,119 C437,120.104569 436.104569,121 435,121 L425.44,121 C424.335431,121 423.44,120.104569 423.44,119 L423.44,106.38 C423.44,105.275431 424.335431,104.38 425.44,104.38 L435,104.38 Z M435,102.38 L425.44,102.38 C423.230861,102.38 421.44,104.170861 421.44,106.38 L421.44,119 C421.44,121.209139 423.230861,123 425.44,123 L435,123 C437.209139,123 439,121.209139 439,119 L439,106.38 C439,104.170861 437.209139,102.38 435,102.38 Z" id="Shape" fill="#E1E6EE" fill-rule="nonzero"></path>
                            <g id="sidebar" transform="translate(0.000000, 87.000000)">
                                <rect id="Rectangle" fill="#F8F9FB" x="0" y="0" width="129" height="268.43"></rect>
                                <rect id="Rectangle" fill="#6A84ED" x="23.64" y="21.06" width="83.72" height="46.94" rx="6"></rect>
                                <rect id="Rectangle" fill="#CCD5E2" x="32.07" y="241.47" width="12.64" height="6.32" rx="3.16"></rect>
                                <rect id="Rectangle" fill="#CCD5E2" x="61.55" y="241.47" width="12.64" height="6.32" rx="3.16"></rect>
                                <rect id="Rectangle" fill="#CCD5E2" x="91.56" y="241.47" width="12.64" height="6.32" rx="3.16"></rect>
                                <path d="M74.09,54.4 L50.81,54.4 L57.87,45.32 C58.0465752,45.0928441 58.3124347,44.9527476 58.5996309,44.9355158 C58.8868272,44.918284 59.1675306,45.0255868 59.37,45.23 L63.06,48.91 C63.1853771,49.0555121 63.367924,49.1391868 63.56,49.1391868 C63.752076,49.1391868 63.9346229,49.0555121 64.06,48.91 L69.45,42.61 C69.6397968,42.3734287 69.9267035,42.2357795 70.23,42.2357795 C70.5332965,42.2357795 70.8202032,42.3734287 71.01,42.61 L80.23,54.4 L74.09,54.4 Z" id="Path" fill="#FFFFFF"></path>
                                <circle id="Oval" fill="#FFFFFF" cx="59.68" cy="37.22" r="2.22"></circle>
                                <rect id="Rectangle" fill="#CCD5E2" x="23.64" y="92" width="61.6" height="6.32" rx="3.16"></rect>
                                <rect id="Rectangle" fill="#63C0F9" x="95.25" y="92" width="12.64" height="6.32" rx="3.16"></rect>
                                <rect id="Rectangle" fill="#CCD5E2" x="23.64" y="118.33" width="61.6" height="6.32" rx="3.16"></rect>
                                <rect id="Rectangle" fill="#63C0F9" x="95.25" y="118.33" width="12.64" height="6.32" rx="3.16"></rect>
                                <rect id="Rectangle" fill="#CCD5E2" x="23.64" y="144.65" width="61.6" height="6.32" rx="3.16"></rect>
                                <rect id="Rectangle" fill="#CCD5E2" x="23.64" y="171.51" width="61.6" height="6.32" rx="3.16"></rect>
                                <rect id="Rectangle" fill="#63C0F9" x="95.25" y="171.51" width="12.64" height="6.32" rx="3.16"></rect>
                                <g id="indicators" transform="translate(23.000000, 225.000000)">
                                    <path d="M3.41,0.87 L30.35,0.869999887 L30.35,6.8 L3.41,6.8 C1.75314575,6.8 0.41,5.45685425 0.41,3.8 C0.448030897,2.17054559 1.7801019,0.869556247 3.41,0.87 Z" id="Path" fill="#FD7E98"></path>
                                    <rect id="Rectangle" fill="#63C0F9" x="30.35" y="0.87" width="29.38" height="5.93"></rect>
                                    <path d="M59.72,0.87 L86.66,0.87 C88.3168542,0.87 89.66,2.21314575 89.66,3.87 C89.66,5.52685425 88.3168542,6.87 86.66,6.87 L59.72,6.87 L59.72,0.94 L59.72,0.87 Z" id="Path" fill="#FCD56B"></path>
                                </g>
                            </g>
                            <circle id="Oval" fill="#FD7E98" cx="193.61" cy="191.39" r="14.39"></circle>
                            <circle id="Oval" fill="#E5EBF0" cx="161.61" cy="192.61" r="6.61"></circle>
                            <circle id="Oval" fill="#63C0F9" cx="447.61" cy="191.39" r="3.61"></circle>
                            <rect id="Rectangle" fill="#CCD5E2" x="223" y="189.05" width="56" height="4.95" rx="2.47"></rect>
                            <rect id="Rectangle" fill="#D6DDE7" opacity="0.6" x="459.23" y="189.05" width="35" height="4.95" rx="2.47"></rect>
                            <rect id="Rectangle" fill="#D6DDE7" opacity="0.6" x="296.12" y="189.05" width="95.88" height="4.95" rx="2.47"></rect>
                            <circle id="Oval" fill="#FCD56B" cx="193.61" cy="241.39" r="14.39"></circle>
                            <circle id="Oval" fill="#E5EBF0" cx="161.61" cy="242.61" r="6.61"></circle>
                            <circle id="Oval" fill="#63C0F9" cx="447.61" cy="241.39" r="3.61"></circle>
                            <rect id="Rectangle" fill="#CCD5E2" x="223" y="239.05" width="56" height="4.95" rx="2.47"></rect>
                            <rect id="Rectangle" fill="#D6DDE7" opacity="0.6" x="459.23" y="239.05" width="35" height="4.95" rx="2.47"></rect>
                            <rect id="Rectangle" fill="#D6DDE7" opacity="0.6" x="296.12" y="239.05" width="95.88" height="4.95" rx="2.47"></rect>
                            <circle id="Oval" fill="#AA8DF7" cx="193.61" cy="329.61" r="14.39"></circle>
                            <circle id="Oval" fill="#E5EBF0" cx="161.61" cy="330.84" r="6.61"></circle>
                            <circle id="Oval" fill="#63C0F9" cx="447.61" cy="329.61" r="3.61"></circle>
                            <rect id="Rectangle" fill="#D6DDE7" opacity="0.6" x="459.23" y="327.28" width="35" height="4.95" rx="2.47"></rect>
                            <rect id="Rectangle" fill="#D6DDE7" opacity="0.6" x="296.12" y="327.28" width="95.88" height="4.95" rx="2.47"></rect>
                            <rect id="Rectangle" fill="#CCD5E2" x="223" y="327" width="56" height="4.95" rx="2.47"></rect>
                            <rect id="Rectangle" fill="#CCD5E2" x="155" y="141" width="77" height="4.95" rx="2.47"></rect>
                            <rect id="Rectangle" fill="#D6DDE7" opacity="0.6" x="243" y="141" width="45.47" height="4.95" rx="2.47"></rect>
                            <path d="M156,158 L493,158" id="Path" stroke="#E1E6EE" stroke-width="2" opacity="0.6"></path>
                            <rect id="Rectangle" fill="#CCD5E2" x="155" y="279" width="77" height="4.95" rx="2.47"></rect>
                            <rect id="Rectangle" fill="#D6DDE7" opacity="0.6" x="243" y="279" width="45.47" height="4.95" rx="2.47"></rect>
                            <path d="M156,296 L493,296" id="Path" stroke="#E1E6EE" stroke-width="2" opacity="0.6"></path>
                            <rect id="Rectangle" fill="#E5EBF0" x="160" y="192" width="3" height="50"></rect>
                            <g id="character" transform="translate(182.000000, 228.000000)">
                                <path d="M20,16.66 C26.52,7.74 20.45,7.44 20.7,7.45 C21.4,5.05 20.04,3.81 17.7,4.18 C17.7,2.78 16.78,2.13 14.78,2.35 C13.8600929,2.39724946 12.9589984,2.6284737 12.13,3.03 C12.44,1.26 11.62,0.4 10.13,0.4 C4.62,0.2 3.67,7.06 3.67,7.06 C1.04,7.06 -0.75,12.41 3.41,16.66 L20,16.66 Z" id="Path" fill="#383753"></path>
                                <path d="M15.48,8 C12.55,8 8.04,7.29 5.33,8.79 C4.54,9.23 4.45,10.27 4.09,11.1 C3.53,12.39 1.77,21.43 7.45,22.82 C8.45,23.08 15.07,23.16 17.13,22.19 C17.7319977,21.9094852 18.2672386,21.503793 18.7,21 C20.2,19.22 20.01,15.77 19.88,13.45 C19.63,8.53 18.24,8 15.48,8 Z" id="Path" fill="#B16D60"></path>
                                <path d="M6.75,7.67 C9.8,11.02 14.21,11.2 17.44,7.67 L6.75,7.67 Z" id="Path" fill="#383753"></path>
                                <path d="M8.71,15.91 C8.55416417,15.9192038 8.40958078,15.994196 8.31229408,16.1162812 C8.21500738,16.2383665 8.1741836,16.3960421 8.2,16.55 C8.27786433,16.8214985 8.55495821,16.9842361 8.83,16.92 C9.01178239,16.8639855 9.15623563,16.7250914 9.2193373,16.5456461 C9.28243897,16.3662007 9.25671321,16.1674635 9.15,16.01 C9.02831959,15.9071026 8.86420182,15.8698031 8.71,15.91 Z" id="Path" fill="#813F31"></path>
                                <path d="M15.4,15.89 C15.2434248,15.9469825 15.1182437,16.0675135 15.0553778,16.2218206 C14.992512,16.3761277 14.9978234,16.5498223 15.07,16.7 C15.1429054,16.8261356 15.2636848,16.917461 15.4049129,16.9532387 C15.5461409,16.9890165 15.6958335,16.9662107 15.82,16.89 C15.9890065,16.813232 16.1029566,16.6507001 16.1175114,16.465647 C16.1320661,16.2805938 16.0449267,16.1022459 15.89,16 C15.7563708,15.8816658 15.5713873,15.8401389 15.4,15.89 Z" id="Path" fill="#813F31"></path>
                                <path d="M12.19,18.18 L11.83,18.18 C11.7344875,18.1998072 11.636488,18.1598355 11.5820754,18.0788772 C11.5276629,17.9979189 11.5276629,17.8920811 11.5820754,17.8111228 C11.636488,17.7301645 11.7344875,17.6901928 11.83,17.71 C12.2198478,17.7642522 12.6171114,17.7124352 12.98,17.56 L12.49,14.45 C12.4784158,14.388882 12.492082,14.325678 12.5278813,14.2748053 C12.5636805,14.2239327 12.6185595,14.1897303 12.68,14.18 C12.8116643,14.1616153 12.934689,14.2494901 12.96,14.38 L13.47,17.65 C13.4871993,17.7376379 13.4521105,17.8273093 13.38,17.88 C13.0191982,18.0893285 12.6069178,18.1932648 12.19,18.18 Z" id="Path" fill="#813F31" opacity="0.4"></path>
                                <path d="M12,20.41 C11.3675752,20.4114029 10.7486521,20.2271169 10.22,19.88 C10.1254237,19.802444 10.1042994,19.6661715 10.1709567,19.5636218 C10.2376139,19.4610722 10.3707271,19.425054 10.48,19.48 C11.0705396,19.8653753 11.7854619,20.0119343 12.48,19.89 C12.5621711,19.873923 12.6466773,19.902905 12.7016859,19.9660288 C12.7566945,20.0291526 12.7738484,20.1168281 12.7466859,20.1960289 C12.7195234,20.2752296 12.6521711,20.3339231 12.57,20.35 C12.3822779,20.3876733 12.1914519,20.4077602 12,20.41 Z" id="Path" fill="#813F31"></path>
                                <path d="M7,14.44 C6.86495843,14.4432191 6.73592159,14.3842308 6.65,14.28 C6.46835454,14.0936014 6.46835454,13.7963986 6.65,13.61 C7.28313695,13.0286418 8.09301985,12.6765188 8.95,12.61 C9.07471325,12.6017845 9.19756278,12.6435805 9.29138963,12.7261482 C9.38521647,12.8087158 9.44229263,12.9252543 9.45,13.05 C9.46725346,13.3116447 9.27134775,13.5387172 9.01,13.56 C8.36779336,13.6024701 7.75850111,13.8595703 7.28,14.29 C7.20690326,14.37098 7.10791309,14.4240105 7,14.44 Z" id="Path" fill="#383753"></path>
                                <path d="M17.47,14.44 C17.3520543,14.4415725 17.2378293,14.3987381 17.15,14.32 C16.6714989,13.8895703 16.0622066,13.6324701 15.42,13.59 C15.2344438,13.5994527 15.0600974,13.5009707 14.9724057,13.3371701 C14.8847141,13.1733695 14.8994286,12.9736726 15.0101819,12.8244942 C15.1209351,12.6753159 15.3078334,12.6034519 15.49,12.64 C16.3434741,12.7087014 17.1495037,13.0606794 17.78,13.64 C17.8697807,13.7283493 17.9203411,13.849039 17.9203411,13.975 C17.9203411,14.100961 17.8697807,14.2216507 17.78,14.31 C17.6979447,14.3926539 17.5864662,14.4394029 17.47,14.44 Z" id="Path" fill="#383753"></path>
                            </g>
                            <g id="character-2" transform="translate(184.000000, 181.000000)">
                                <path d="M3.3,19.09 C7.17056504,20.3202556 11.3299186,20.3027646 15.19,19.04 C18.82,17.53 19.28,16.4 18.86,8.92 C18.4,0.64 13.7,2.07 4.72,2.19 C2.25,2.19 0.94,6.48 0.96,10.19 C1,13 0.88,18.17 3.3,19.09 Z" id="Path" fill="#F9BBA5"></path>
                                <path d="M2.85,2.28 C1.48,2.94 -0.41,9.2 0.98,12.16 C0.98,12.16 9.98,10.8 14.5,6.16 C15.81,7.26 17.25,9.61 18.85,10.16 C18.85,10.16 20.32,1.85 14.01,1.88 C14,1.87 9.9,-1.09 2.85,2.28 Z" id="Path" fill="#3F4164"></path>
                                <path d="M14,2.26 L13.92,2.26 C13.8176168,2.21917772 13.7503263,2.12022097 13.75,2.01 C13.798332,1.51621706 13.7009924,1.01909004 13.47,0.58 C13.4115848,0.458340704 13.4602723,0.312278341 13.58,0.25 C13.6393089,0.219737767 13.7085241,0.215474217 13.7710987,0.238228617 C13.8336733,0.260983017 13.8839828,0.308710117 13.91,0.37 C14.0746215,0.681930698 14.1829469,1.02044741 14.23,1.37 C14.5120749,1.17905291 14.8225784,1.03392627 15.15,0.94 C15.2796183,0.900510099 15.4171019,0.971469381 15.46,1.1 C15.4822166,1.160958 15.4788066,1.22831383 15.4505473,1.28671644 C15.422288,1.34511905 15.3715871,1.38959219 15.31,1.41 C14.8661852,1.49808457 14.4707383,1.74746548 14.2,2.11 C14.1666941,2.19351608 14.0895011,2.25141083 14,2.26 Z" id="Path" fill="#3F4164"></path>
                                <path d="M10.13,13.9 C10.0002131,13.9276142 9.87261424,13.8447869 9.845,13.715 C9.81738576,13.5852131 9.90021308,13.4576142 10.03,13.43 C10.2859596,13.2992602 10.5273127,13.1417102 10.75,12.96 C10.4889924,12.3972921 10.1847473,11.8556689 9.84,11.34 C9.79481092,11.2949676 9.76941074,11.2337964 9.76941074,11.17 C9.76941074,11.1062036 9.79481092,11.0450324 9.84,11 C9.89427303,10.9612524 9.9617772,10.9457937 10.0275038,10.9570612 C10.0932304,10.9683286 10.1517315,11.0053881 10.19,11.06 C10.5743521,11.6511868 10.9088397,12.2733337 11.19,12.92 C11.2339701,13.0163485 11.2095887,13.1301284 11.13,13.2 C10.8267326,13.4680026 10.4907221,13.6964897 10.13,13.88 L10.13,13.9 Z" id="Path" fill="#D26E63" opacity="0.4"></path>
                                <path d="M10,17.22 C9.59980581,17.230147 9.2070169,17.1109076 8.88,16.88 C8.53391877,16.6177298 8.33638115,16.2040189 8.35,15.77 C8.37365962,15.6534838 8.47610592,15.5697494 8.595,15.5697494 C8.71389408,15.5697494 8.81634038,15.6534838 8.84,15.77 C8.82696354,16.0515244 8.95431321,16.321206 9.18,16.49 C9.42221351,16.6522839 9.70850983,16.736078 10,16.73 C10.3244571,16.7691981 10.6509728,16.6754816 10.9052521,16.4701746 C11.1595314,16.2648676 11.3199477,15.9654317 11.35,15.64 C11.35,15.5019288 11.4619288,15.39 11.6,15.39 C11.7380712,15.39 11.85,15.5019288 11.85,15.64 C11.8195511,16.0969378 11.606037,16.522265 11.2578037,16.8196752 C10.9095703,17.1170853 10.4560741,17.2614208 10,17.22 Z" id="Path" fill="#60342B"></path>
                                <path d="M4.74,13.2 C4.67361401,13.1949029 4.61200374,13.1635349 4.56882794,13.1128503 C4.52565214,13.0621656 4.5044781,12.996352 4.51,12.93 C4.50991192,12.252902 5.05299004,11.7009209 5.73,11.69 C6.37000019,11.6891995 6.89800047,12.1907998 6.93,12.83 C6.93553121,12.8937011 6.91541442,12.9569759 6.87411237,13.0057874 C6.83281032,13.0545989 6.77373796,13.0849113 6.71,13.09 C6.57532031,13.1017314 6.45571279,13.0042734 6.44,12.87 C6.42410022,12.4879577 6.11234061,12.18498 5.73,12.18 C5.41,12.18 5.05,12.39 5,12.98 C4.98441499,13.1101573 4.87094159,13.2061732 4.74,13.2 Z" id="Path" fill="#C1564D"></path>
                                <path d="M13.33,13.2 C13.2631454,13.198116 13.2004219,13.1672247 13.1581748,13.115376 C13.1159278,13.0635274 13.0983419,12.9958573 13.11,12.93 C13.1044193,12.2545356 13.6446014,11.7009605 14.32,11.69 C14.9600002,11.6891995 15.4880005,12.1907998 15.52,12.83 C15.5255312,12.8937011 15.5054144,12.9569759 15.4641124,13.0057874 C15.4228103,13.0545989 15.363738,13.0849113 15.3,13.09 C15.1653203,13.1017314 15.0457128,13.0042734 15.03,12.87 C15.0191707,12.4857099 14.7044426,12.1798474 14.32,12.18 C14,12.18 13.64,12.39 13.59,12.98 C13.5849113,13.043738 13.5545989,13.1028103 13.5057874,13.1441124 C13.4569759,13.1854144 13.3937011,13.2055312 13.33,13.2 Z" id="Path" fill="#C1564D"></path>
                                <path d="M15.6,10.34 L15.53,10.34 L12.35,9.72 C12.2536238,9.70314474 12.1682591,9.64778902 12.1135532,9.56667343 C12.0588473,9.48555783 12.0395129,9.38567002 12.06,9.29 C12.0768553,9.1936238 12.132211,9.10825906 12.2133266,9.05355319 C12.2944422,8.99884733 12.39433,8.97951294 12.49,9 L15.67,9.61 C15.7663762,9.62685526 15.8517409,9.68221098 15.9064468,9.76332657 C15.9611527,9.84444217 15.9804871,9.94432998 15.96,10.04 C15.9266888,10.2129321 15.7761041,10.3384193 15.6,10.34 Z" id="Path" fill="#3F4164"></path>
                                <g id="Group" opacity="0.2" transform="translate(2.000000, 3.000000)" fill="#FFFFFF">
                                    <path d="M2.81,1.93 C2.17748022,1.92813273 1.54589155,1.88134838 0.92,1.79 C0.78745166,1.77067003 0.695670034,1.64754834 0.715,1.515 C0.734329966,1.38245166 0.85745166,1.29067003 0.99,1.31 C3.56471485,1.67006828 6.18839525,1.25946578 8.53,0.13 C8.6516593,0.0715848405 8.79772166,0.120272295 8.86,0.24 C8.91698358,0.36430659 8.86352012,0.511331119 8.74,0.57 C6.89104914,1.46433517 4.86388756,1.92924913 2.81,1.93 Z" id="Path"></path>
                                    <path d="M3.3,4.91 C3.18306604,4.90768004 3.08336838,4.82459865 3.06,4.71 C3.04845871,4.64622796 3.06319875,4.58049901 3.10086762,4.52776259 C3.1385365,4.47502616 3.19593198,4.43976539 3.26,4.43 C5.05503089,4.0899522 6.76888934,3.41119638 8.31,2.43 C8.42370205,2.3580238 8.57397718,2.3889628 8.65,2.5 C8.7219762,2.61370205 8.6910372,2.76397718 8.58,2.84 C6.98995635,3.87371361 5.213393,4.58705644 3.35,4.94 L3.3,4.91 Z" id="Path"></path>
                                    <path d="M15.28,3.57 C15.2160662,3.57131394 15.1544716,3.54595144 15.11,3.5 C14.4539659,2.89030863 13.9474901,2.13743915 13.63,1.3 C13.607312,1.24033561 13.6093272,1.17409105 13.6355998,1.11591602 C13.6618724,1.057741 13.7102377,1.01242879 13.77,0.99 C13.8308278,0.964101647 13.8996448,0.964442008 13.9602134,0.990940771 C14.020782,1.01743953 14.0677373,1.06774959 14.09,1.13 C14.3872091,1.89043298 14.8520725,2.57405557 15.45,3.13 C15.4951891,3.17503245 15.5205893,3.23620365 15.5205893,3.3 C15.5205893,3.36379635 15.4951891,3.42496755 15.45,3.47 C15.4079712,3.52357827 15.3472495,3.55929692 15.28,3.57 Z" id="Path"></path>
                                </g>
                            </g>
                            <g id="character-3" transform="translate(181.000000, 316.000000)">
                                <path d="M21.32,17.71 C21.7,17.49 27.4,5.85 19.32,6.44 C19.66,3.52 17.99,0.15 15.03,0.15 C11.32,0.15 5.17,5.49 1.62,5.15 C0.39,4.84 1.2,6.71 2.03,7.76 C3.84,10.07 4.03,8.37 2.57,9.87 C2.07296055,10.4052925 1.77010193,11.0920068 1.71,11.82 C1.35,14.74 5.36,18.12 5.31,18.12 L21.32,17.71 Z" id="Path" fill="#FFD46A"></path>
                                <path d="M7.23,22.45 C10.7338746,23.2360694 14.3747767,23.1743591 17.85,22.27 C21.11,21.19 21.57,19.57 21.27,14.47 C20.85,7.42 18.27,8.63 8.74,8.9 C5.65,8.99 5.21,12.4 5.27,15.53 C5.3,17.45 5.08,21.85 7.23,22.45 Z" id="Path" fill="#F9BBA5"></path>
                                <path d="M7.76,8.62 C7.76,8.62 12.21,12.85 18.27,8.37 L7.76,8.62 Z" id="Path" fill="#FFD46A"></path>
                                <path d="M9.68,15.86 C9.50605265,15.8713623 9.34527681,15.9566007 9.23825588,16.094199 C9.13123494,16.2317974 9.0881949,16.408608 9.12,16.58 C9.20288996,16.8788362 9.50948267,17.0565711 9.81,16.98 C10.0151434,16.9256273 10.1799914,16.7730973 10.2501007,16.5727852 C10.3202099,16.3724732 10.286461,16.1504343 10.16,15.98 C10.0304993,15.8615672 9.84999845,15.816442 9.68,15.86 Z" id="Path" fill="#C1564D"></path>
                                <path d="M16.57,15.84 C16.3954393,15.9054981 16.2567247,16.041772 16.1881385,16.2151427 C16.1195523,16.3885134 16.1274937,16.582805 16.21,16.75 C16.2931225,16.889705 16.4285705,16.9904522 16.5862801,17.0298795 C16.7439897,17.0693069 16.9109131,17.0441527 17.05,16.96 C17.2404707,16.8734662 17.3682311,16.6895442 17.3828398,16.4808488 C17.3974485,16.2721533 17.2965576,16.0722258 17.12,15.96 C16.970697,15.8259671 16.7635117,15.7769961 16.57,15.83 L16.57,15.84 Z" id="Path" fill="#C1564D"></path>
                                <path d="M11.61,19 C12.49,21.28 14.19,21.25 14.78,18.95 C14.8059487,18.8632564 14.7883512,18.7693194 14.7327641,18.6978502 C14.6771769,18.626381 14.5904619,18.586202 14.5,18.59 L11.89,18.59 C11.7885889,18.5843266 11.6916004,18.632122 11.634319,18.7159984 C11.5770376,18.7998747 11.5678126,18.9076062 11.61,19 Z" id="Path" fill="#C1564D"></path>
                                <path d="M13,18 C12.9083106,18.0194369 12.8139983,17.9812924 12.761601,17.9035797 C12.7092037,17.825867 12.7092037,17.724133 12.761601,17.6464203 C12.8139983,17.5687076 12.9083106,17.5305631 13,17.55 C13.2460336,17.5422556 13.4836112,17.4584046 13.68,17.31 C13.68,17.31 13.74,17.24 13.74,17.22 C13.6702248,17.1447252 13.5892767,17.0806413 13.5,17.03 C13.0137287,16.7873348 12.7421346,16.2563076 12.83,15.72 L12.83,14.57 C12.83,14.4429745 12.9329745,14.34 13.06,14.34 C13.1870255,14.34 13.29,14.4429745 13.29,14.57 L13.29,15.74 C13.2947226,15.7563321 13.2947226,15.7736679 13.29,15.79 C13.21,16.26 13.48,16.45 13.77,16.65 C14.06,16.85 14.21,16.95 14.21,17.23 C14.1978609,17.3871174 14.126349,17.5337167 14.01,17.64 C13.7247599,17.8725946 13.3680517,17.9997381 13,18 Z" id="Path" fill="#D26E63" opacity="0.4"></path>
                                <path d="M9.57,18.8 C8.99802287,18.8012818 8.43947201,18.6267346 7.97,18.3 C7.08012698,17.7340913 6.78256224,16.574464 7.29,15.65 C7.78245231,14.6329981 8.83095237,14.0046835 9.96,14.05 C10.8841141,14.074013 11.6894336,14.6860558 11.96,15.57 C12.2394584,16.4782556 11.9798235,17.4664185 11.29,18.12 C10.8275297,18.5626815 10.2101563,18.8067594 9.57,18.8 Z M7.71,15.8 C7.31950273,16.5234993 7.54497331,17.4253817 8.23,17.88 C9.05956183,18.4887245 10.201797,18.4345309 10.97,17.75 C11.5384823,17.2245836 11.7527137,16.4182946 11.52,15.68 C11.309109,14.9783288 10.6723855,14.4907114 9.94,14.47 C8.99966261,14.4356938 8.12670528,14.9563365 7.71,15.8 Z" id="Shape" fill="#4A4F6A" fill-rule="nonzero"></path>
                                <path d="M16.83,18.8 C16.2549044,18.8014002 15.693128,18.6269355 15.22,18.3 C14.3583892,17.713389 14.0707285,16.5756266 14.55,15.65 C15.0424523,14.6329981 16.0909524,14.0046835 17.22,14.05 C18.1451968,14.0709236 18.9521203,14.6841854 19.22,15.57 C19.5094805,16.4780219 19.2484363,17.4715484 18.55,18.12 C18.0899234,18.566402 17.4709538,18.8111109 16.83,18.8 Z M14.97,15.8 C14.5744263,16.5228541 14.8007977,17.4283399 15.49,17.88 C16.3195618,18.4887245 17.461797,18.4345309 18.23,17.75 C18.7878679,17.2182443 19.0003526,16.4185293 18.78,15.68 C18.5664433,14.9801747 17.9312982,14.4937661 17.2,14.47 C16.2596626,14.4356938 15.3867053,14.9563365 14.97,15.8 Z" id="Shape" fill="#4A4F6A" fill-rule="nonzero"></path>
                                <path d="M14.55,16.42 L14.48,16.42 C13.6512792,16.1510215 12.7587208,16.1510215 11.93,16.42 C11.8521699,16.4685813 11.7529118,16.4662599 11.6774379,16.4140933 C11.601964,16.3619267 11.5647129,16.2698945 11.5826525,16.1799177 C11.6005922,16.0899408 11.6702906,16.0192323 11.76,16 C12.6876075,15.6867887 13.6923925,15.6867887 14.62,16 C14.6784853,16.0183658 14.7272192,16.059319 14.7553824,16.1137677 C14.7835455,16.1682165 14.7888075,16.2316552 14.77,16.29 C14.7319291,16.3758469 14.6435632,16.4280631 14.55,16.42 Z" id="Path" fill="#4A4F6A"></path>
                                <path d="M5.26,17.12 C5.14039202,17.120453 5.04039991,17.0291558 5.03,16.91 C5.02445865,16.8489498 5.04351782,16.7882135 5.08294625,16.7412748 C5.12237468,16.6943362 5.17890964,16.6650796 5.24,16.66 L7.24,16.47 C7.34628162,16.4925303 7.42230304,16.5863566 7.42230304,16.695 C7.42230304,16.8036434 7.34628162,16.8974697 7.24,16.92 L5.24,17.12 L5.26,17.12 Z" id="Path" fill="#4A4F6A"></path>
                                <path d="M21.35,17.14 L19.1,16.92 C19.0082281,16.9261472 18.9216183,16.8770286 18.879789,16.795113 C18.8379598,16.7131973 18.8489553,16.6142377 18.9077458,16.543502 C18.9665363,16.4727663 19.0618159,16.4438577 19.15,16.47 L21.4,16.68 C21.5270254,16.6800001 21.6299999,16.7829746 21.6299999,16.91 C21.6299999,17.0370254 21.5270254,17.1399999 21.4,17.14 L21.35,17.14 Z" id="Path" fill="#4A4F6A"></path>
                                <g id="Group" opacity="0.3" transform="translate(3.000000, 2.000000)" fill="#FFFFFF">
                                    <path d="M5.37,3.87 C5.24849736,3.87 5.15,3.77150264 5.15,3.65 C5.14417183,3.52657986 5.23689842,3.42060661 5.36,3.41 C7.71187738,3.27307652 9.96427241,2.41402353 11.81,0.95 C11.9066498,0.872680135 12.0476801,0.888350169 12.125,0.985 C12.2023199,1.08164983 12.1866498,1.22268014 12.09,1.3 C10.1769574,2.83028322 7.83569693,3.72834881 5.39,3.87 L5.37,3.87 Z" id="Path"></path>
                                    <path d="M9.15,6 C9.06052491,5.99271639 8.98113683,5.93979101 8.94,5.86 C8.91712391,5.80300533 8.91799193,5.73922893 8.94241068,5.68287796 C8.96682944,5.62652699 9.01277057,5.58228228 9.07,5.56 C10.4039203,4.99016578 11.6133437,4.16463239 12.63,3.13 C12.6715634,3.08595839 12.7294428,3.06099669 12.79,3.06099669 C12.8505572,3.06099669 12.9084366,3.08595839 12.95,3.13 C13.037621,3.22255127 13.037621,3.36744873 12.95,3.46 C11.8855015,4.53623202 10.6221103,5.39547387 9.23,5.99 L9.15,6 Z" id="Path"></path>
                                    <path d="M0.88,10.16 C0.764245097,10.1553941 0.669982009,10.0654156 0.66,9.95 C0.57309671,9.20472591 0.727303302,8.45121642 1.1,7.8 C1.13120736,7.74627546 1.18282258,7.70746181 1.24309822,7.6923929 C1.30337387,7.67732399 1.36718196,7.68728181 1.42,7.72 C1.52601223,7.7847696 1.56143146,7.92201913 1.5,8.03 C1.17831922,8.5974665 1.04196733,9.25125636 1.11,9.9 C1.11849739,9.96108994 1.10210254,10.023033 1.06449674,10.0719206 C1.02689094,10.1208081 0.971225671,10.1525432 0.91,10.16 L0.88,10.16 Z" id="Path"></path>
                                    <path d="M19.15,9.18 C19.0268959,9.17464264 18.9298835,9.07322056 18.93,8.95 C18.9449972,8.26502441 18.8190587,7.58427525 18.56,6.95 C18.5336366,6.894604 18.5316017,6.83071596 18.5543863,6.77375451 C18.5771708,6.71679305 18.6227051,6.67193271 18.68,6.65 C18.7959893,6.60119614 18.9296656,6.65466665 18.98,6.77 C19.2587961,7.44861982 19.3982286,8.17638946 19.39,8.91 C19.4023746,8.97935254 19.3822833,9.0505513 19.3354803,9.10320471 C19.2886773,9.15585813 19.2203251,9.18415831 19.15,9.18 Z" id="Path"></path>
                                </g>
                            </g>
                        </g>
                        <g id="iphone" transform="translate(371.000000, 0.000000)">
                            <g id="Rectangle">
                                <use fill="black" fill-opacity="1" filter="url(#filter-4)" xlink:href="#path-3"></use>
                                <use fill="#FFFFFF" fill-rule="evenodd" xlink:href="#path-3"></use>
                            </g>
                            <rect id="Rectangle" fill="#F5F7FA" opacity="0.300000012" x="6.87" y="7.24" width="183.71" height="375.52" rx="16"></rect>
                            <path d="M22.87,7.24 L174.58,7.24 C183.416556,7.24 190.58,14.403444 190.58,23.24 L190.58,50.76 L6.87,50.76 L6.87,23.24 C6.87,14.403444 14.033444,7.24 22.87,7.24 Z" id="Path" fill="#6A84ED"></path>
                            <path d="M41.83,2.63 L41.83,7.52 C41.8519768,15.6184196 48.4115804,22.1780232 56.51,22.2 L140.94,22.2 C149.03842,22.1780232 155.598023,15.6184196 155.62,7.52 L155.62,2.63 L41.83,2.63 Z" id="Path" fill="#FFFFFF"></path>
                            <rect id="Rectangle" fill="#E7EBF1" x="80.1" y="11.38" width="31.03" height="3.1" rx="1.5"></rect>
                            <circle id="Oval" fill="#E7EBF1" cx="131.83" cy="12.93" r="3.1"></circle>
                            <circle id="Oval" fill="#FD7E98" cx="162" cy="107" r="15"></circle>
                            <g id="character-4" transform="translate(151.000000, 95.000000)">
                                <path d="M3.67,21.08 C7.81213148,22.4125556 12.2678685,22.4125556 16.41,21.08 C20.3,19.45 20.8,18.24 20.35,10.23 C19.85,1.36 14.81,2.89 5.19,3.01 C2.55,3.01 1.14,7.61 1.19,11.56 C1.18,14.51 1.08,20.1 3.67,21.08 Z" id="Path" fill="#F9BBA5"></path>
                                <path d="M3.19,3.06 C1.72,3.77 -0.3,10.48 1.19,13.65 C1.19,13.65 10.8,12.19 15.68,7.2 C17.09,8.38 18.68,10.9 20.35,11.49 C20.35,11.49 21.92,2.59 15.15,2.62 C15.14,2.62 10.74,-0.55 3.19,3.06 Z" id="Path" fill="#3F4164"></path>
                                <path d="M15.11,3 L15,3 C14.8865767,2.96011576 14.8131919,2.85003854 14.82,2.73 C14.8638017,2.20092454 14.7562893,1.67029885 14.51,1.2 C14.4512122,1.06995394 14.503785,0.916616525 14.63,0.85 C14.6980208,0.813699084 14.7786445,0.809459811 14.8500971,0.838427087 C14.9215497,0.867394363 14.9764607,0.926580124 15,1 C15.1892535,1.34665483 15.308195,1.72726753 15.35,2.12 C15.656567,1.9141369 15.9941966,1.7588273 16.35,1.66 C16.4161983,1.63500769 16.489887,1.63923846 16.55279,1.67164301 C16.6156929,1.70404756 16.6619178,1.76159043 16.68,1.83 C16.7265439,1.96528596 16.6550432,2.11275626 16.52,2.16 C16.0456046,2.25766056 15.6227666,2.52415507 15.33,2.91 C15.2754749,2.97372753 15.193557,3.00723941 15.11,3 Z" id="Path" fill="#3F4164"></path>
                                <path d="M11,15.51 C10.8950378,15.51 10.8003701,15.4468882 10.76,15.35 C10.7035414,15.2201748 10.7613282,15.06904 10.89,15.01 C11.1684851,14.8754912 11.4274993,14.7039363 11.66,14.5 C11.3725239,13.9012047 11.0381484,13.3260789 10.66,12.78 C10.6175235,12.7234519 10.5999162,12.6520401 10.6112371,12.5822276 C10.622558,12.5124152 10.6618302,12.4502271 10.72,12.41 C10.7749222,12.367981 10.8447958,12.350588 10.9130072,12.3619566 C10.9812187,12.3733252 11.0416744,12.4124396 11.08,12.47 C11.5080459,13.1027573 11.8794834,13.7720139 12.19,14.47 C12.2371774,14.5724299 12.2129445,14.6935945 12.13,14.77 C11.8098495,15.0555481 11.4534444,15.2976346 11.07,15.49 C11.0482725,15.5013649 11.024452,15.5081708 11,15.51 Z" id="Path" fill="#D26E63" opacity="0.4"></path>
                                <path d="M10.88,19.08 C10.4506505,19.0886964 10.0299036,18.9589661 9.68,18.71 C9.31137053,18.4267106 9.09969665,17.984795 9.11,17.52 C9.13474453,17.3932164 9.24582422,17.3017204 9.375,17.3017204 C9.50417578,17.3017204 9.61525547,17.3932164 9.64,17.52 C9.62713179,17.82004 9.76151694,18.1074749 10,18.29 C10.2577676,18.4689895 10.5663471,18.5601607 10.88,18.55 C11.2283543,18.5920003 11.578894,18.4914015 11.8519619,18.2710639 C12.1250299,18.0507264 12.2974351,17.7293626 12.33,17.38 C12.3547445,17.2532164 12.4658242,17.1617204 12.595,17.1617204 C12.7241758,17.1617204 12.8352555,17.2532164 12.86,17.38 C12.8268874,17.8695605 12.5985602,18.3253157 12.2262744,18.6449549 C11.8539887,18.9645942 11.3689346,19.1213381 10.88,19.08 Z" id="Path" fill="#60342B"></path>
                                <path d="M5.21,14.77 C5.06469356,14.7542275 4.95831981,14.6256925 4.97,14.48 C4.96442324,13.7548339 5.54489542,13.1609662 6.27,13.15 C6.9523398,13.1486867 7.51768554,13.6789722 7.56,14.36 C7.57168019,14.5056925 7.46530644,14.6342275 7.32,14.65 C7.17595598,14.656607 7.05044791,14.5527383 7.03,14.41 C7.01909329,13.9997015 6.68040497,13.6743825 6.27,13.68 C5.93,13.68 5.55,13.9 5.49,14.53 C5.48489507,14.5990344 5.45247166,14.663183 5.39991373,14.7082327 C5.3473558,14.7532823 5.27900298,14.7755133 5.21,14.77 Z" id="Path" fill="#C1564D"></path>
                                <path d="M14.42,14.77 C14.3490487,14.7650243 14.2832334,14.7311993 14.2378861,14.6764046 C14.1925388,14.6216099 14.171619,14.55063 14.18,14.48 C14.1746588,14.1308412 14.3089426,13.7940007 14.5530315,13.544279 C14.7971205,13.2945572 15.1308102,13.1526248 15.48,13.15 C16.1623398,13.1486867 16.7276855,13.6789722 16.77,14.36 C16.7816802,14.5056925 16.6753064,14.6342275 16.53,14.65 C16.385956,14.656607 16.2604479,14.5527383 16.24,14.41 C16.2290933,13.9997015 15.890405,13.6743825 15.48,13.68 C15.14,13.68 14.75,13.9 14.7,14.53 C14.6843463,14.6712076 14.5619405,14.776127 14.42,14.77 Z" id="Path" fill="#C1564D"></path>
                                <path d="M16.85,11.7 L16.77,11.7 L13.37,11.04 C13.1543798,10.9947564 13.0130631,10.7871974 13.05,10.57 C13.0951046,10.3552344 13.304821,10.2169108 13.52,10.26 L16.92,10.92 C17.1341912,10.960521 17.2764978,11.1650866 17.24,11.38 C17.2021306,11.5655325 17.0393556,11.6990914 16.85,11.7 Z" id="Path" fill="#3F4164"></path>
                                <g id="Group" opacity="0.2" transform="translate(3.000000, 3.000000)" fill="#FFFFFF">
                                    <path d="M2.29,2.9 C1.62098628,2.8971964 0.952879948,2.85042896 0.29,2.76 C0.148482205,2.7345349 0.051750381,2.60262787 0.07,2.46 C0.0798276923,2.39066984 0.117204901,2.32823464 0.173671992,2.28682544 C0.230139082,2.24541624 0.300921874,2.22853411 0.37,2.24 C3.11690057,2.62936646 5.91760586,2.19795348 8.42,1 C8.55004606,0.941212185 8.70338348,0.993785015 8.77,1.12 C8.800951,1.18225328 8.8056807,1.25430916 8.78313273,1.32007408 C8.76058476,1.38583899 8.71263753,1.43983422 8.65,1.47 C6.66486788,2.41990473 4.49067986,2.90875518 2.29,2.9 Z" id="Path"></path>
                                    <path d="M2.82,6.1 C2.69067895,6.10153828 2.57988781,6.00779193 2.56,5.88 C2.54544408,5.81207606 2.55980586,5.74115826 2.59964204,5.68424943 C2.63947822,5.6273406 2.70119662,5.58957243 2.77,5.58 C4.69751329,5.21060895 6.53489232,4.47022331 8.18,3.4 C8.30248378,3.3421668 8.44886156,3.38403655 8.52223551,3.49789267 C8.59560946,3.6117488 8.57326777,3.76234886 8.47,3.85 C6.76475966,4.95689171 4.85866177,5.71797179 2.86,6.09 L2.82,6.1 Z" id="Path"></path>
                                    <path d="M15.65,4.66 C15.5832379,4.66064318 15.5187869,4.6355789 15.47,4.59 C14.7672642,3.93665856 14.2263143,3.12865747 13.89,2.23 C13.8609491,2.1653644 13.8606936,2.09143652 13.8892972,2.02660171 C13.9179008,1.96176691 13.9726758,1.91211715 14.04,1.89 C14.1751888,1.84164756 14.3245754,1.90755341 14.38,2.04 C14.6922019,2.86409685 15.1880882,3.60621623 15.83,4.21 C15.8794682,4.25885007 15.9073117,4.32547709 15.9073117,4.395 C15.9073117,4.46452291 15.8794682,4.53114993 15.83,4.58 C15.7822152,4.62838245 15.7179335,4.6569521 15.65,4.66 Z" id="Path"></path>
                                </g>
                            </g>
                            <circle id="Oval" fill="#79E3AA" cx="27" cy="101.76" r="4.5"></circle>
                            <rect id="Rectangle" fill="#CCD5E2" x="43" y="99.29" width="78" height="4.95" rx="2.47"></rect>
                            <rect id="Rectangle" fill="#D6DDE7" opacity="0.6" x="43" y="113.05" width="51.88" height="4.95" rx="2.47"></rect>
                            <circle id="Oval" fill="#FD7E98" cx="27" cy="144.76" r="4.5"></circle>
                            <rect id="Rectangle" fill="#CCD5E2" x="43" y="142.29" width="78" height="4.95" rx="2.47"></rect>
                            <rect id="Rectangle" fill="#D6DDE7" opacity="0.6" x="43" y="156.05" width="51.88" height="4.95" rx="2.47"></rect>
                            <circle id="Oval" fill="#FCD56B" cx="162" cy="150" r="15"></circle>
                            <g id="character-5" transform="translate(150.000000, 137.000000)">
                                <path d="M20.3,17.22 C27.21,7.79 20.78,7.47 21.04,7.48 C21.79,4.94 20.35,3.63 17.87,4.02 C17.87,2.54 16.87,1.85 14.78,2.08 C13.8085263,2.13434841 12.8571864,2.37897867 11.98,2.8 C12.31,0.93 11.44,0.02 9.89,0.02 C4.07,-0.19 3.06,7.02 3.06,7.02 C0.27,7.02 -1.63,12.68 2.78,17.17 L20.3,17.22 Z" id="Path" fill="#383753"></path>
                                <path d="M15.55,8.07 C12.45,8.07 7.68,7.32 4.81,8.91 C3.97,9.37 3.88,10.47 3.5,11.36 C2.91,12.72 1.05,22.28 7.06,23.76 C8.16,24.03 15.12,24.11 17.29,23.08 C17.9327039,22.7881757 18.5029696,22.3579154 18.96,21.82 C20.55,19.95 20.34,16.29 20.21,13.82 C19.94,8.61 18.48,8.05 15.55,8.05 L15.55,8.07 Z" id="Path" fill="#B16D60"></path>
                                <path d="M6.32,7.71 C9.54,11.26 14.21,11.45 17.63,7.71 L6.32,7.71 Z" id="Path" fill="#383753"></path>
                                <path d="M8.39,16.43 C8.22421878,16.4389213 8.07020822,16.5184574 7.96696267,16.6484704 C7.86371712,16.7784833 7.8211358,16.9465073 7.85,17.11 C7.92818021,17.4020545 8.22743503,17.5762476 8.52,17.5 C8.72826616,17.4495795 8.89573287,17.2951907 8.9628842,17.0917018 C9.03003553,16.8882129 8.98735091,16.6644742 8.85,16.5 C8.72479892,16.3885446 8.55207823,16.3472418 8.39,16.39 L8.39,16.43 Z" id="Path" fill="#813F31"></path>
                                <path d="M15.47,16.41 C15.3025056,16.4688842 15.1682916,16.5967489 15.1013657,16.7611954 C15.0344398,16.9256419 15.0412243,17.1108896 15.12,17.27 C15.1989842,17.4032513 15.3279885,17.4993715 15.4782648,17.5369406 C15.6285412,17.5745097 15.7876016,17.5504056 15.92,17.47 C16.1742366,17.3237088 16.279235,17.0106344 16.164613,16.740636 C16.0499911,16.4706375 15.7518333,16.3287144 15.47,16.41 Z" id="Path" fill="#813F31"></path>
                                <path d="M12.07,18.83 C11.9435197,18.8397186 11.8164803,18.8397186 11.69,18.83 C11.6243283,18.8250521 11.5635754,18.7933351 11.5219748,18.7422798 C11.4803742,18.6912245 11.4615816,18.6253175 11.47,18.56 C11.4857437,18.4202104 11.6098144,18.3182952 11.75,18.33 C12.1594831,18.3897635 12.5775052,18.3379425 12.96,18.18 L12.44,14.89 C12.428498,14.8235746 12.4443099,14.7553194 12.4838488,14.7007181 C12.5233877,14.6461168 12.583302,14.6097977 12.65,14.6 C12.7849401,14.582098 12.9094027,14.6754449 12.93,14.81 L13.48,18.27 C13.5009551,18.3659443 13.4613428,18.4649749 13.38,18.52 C12.9804578,18.7426297 12.5269463,18.8499492 12.07,18.83 Z" id="Path" fill="#813F31" opacity="0.4"></path>
                                <path d="M11.9,21.19 C11.2320953,21.1909143 10.5785401,20.9962383 10.02,20.63 C9.90413408,20.5534251 9.86890737,20.3993083 9.94,20.28 C10.0224083,20.1718828 10.1723473,20.141895 10.29,20.21 C10.9270896,20.6277856 11.7014821,20.781947 12.45,20.64 C12.5164374,20.6253245 12.5859863,20.6383616 12.6425982,20.6761028 C12.69921,20.713844 12.7379938,20.7730288 12.75,20.84 C12.7689567,20.9739833 12.6819747,21.1001072 12.55,21.13 C12.3356836,21.170263 12.1180653,21.1903509 11.9,21.19 Z" id="Path" fill="#813F31"></path>
                                <path d="M6.54,14.88 C6.32973238,14.8821316 6.14060059,14.7524772 6.0667669,14.5555874 C5.99293322,14.3586976 6.0501776,14.1366522 6.21,14 C6.88715583,13.4071625 7.74171445,13.0554923 8.64,13 C8.88368937,13.028371 9.07264627,13.2262291 9.08977782,13.4709656 C9.10690937,13.715702 8.94736029,13.9379555 8.71,14 C8.03028741,14.0415287 7.38492771,14.3130735 6.88,14.77 C6.78408636,14.8472974 6.66301413,14.8864678 6.54,14.88 Z" id="Path" fill="#383753"></path>
                                <path d="M17.65,14.88 C17.5278099,14.8784486 17.4104181,14.8322034 17.32,14.75 C16.8150723,14.2930735 16.1697126,14.0215287 15.49,13.98 C15.2526397,13.9179555 15.0930906,13.695702 15.1102222,13.4509656 C15.1273537,13.2062291 15.3163106,13.008371 15.56,12.98 C16.4582855,13.0354923 17.3128442,13.3871625 17.99,13.98 C18.0846563,14.0738833 18.1378992,14.2016812 18.1378992,14.335 C18.1378992,14.4683188 18.0846563,14.5961167 17.99,14.69 C17.9055608,14.7949886 17.7836681,14.8631051 17.65,14.88 Z" id="Path" fill="#383753"></path>
                            </g>
                            <rect id="Rectangle" fill="#79E3AA" x="23" y="71" width="55" height="4.95" rx="2.47"></rect>
                            <rect id="Rectangle" fill="#79E3AA" opacity="0.6" x="89" y="71" width="34.47" height="4.95" rx="2.47"></rect>
                            <circle id="Oval" fill="#FD7E98" cx="162" cy="305" r="15"></circle>
                            <g id="character-6" transform="translate(151.000000, 293.000000)">
                                <path d="M3.67,21.08 C7.81735964,22.39631 12.2731001,22.3788227 16.41,21.03 C20.3,19.4 20.8,18.19 20.35,10.18 C19.85,1.31 14.81,2.84 5.19,2.96 C2.55,2.96 1.14,7.56 1.19,11.51 C1.18,14.51 1.08,20.1 3.67,21.08 Z" id="Path" fill="#F9BBA5"></path>
                                <path d="M3.19,3.06 C1.72,3.77 -0.3,10.48 1.19,13.65 C1.19,13.65 10.8,12.19 15.68,7.2 C17.09,8.38 18.68,10.9 20.35,11.49 C20.35,11.49 21.92,2.59 15.15,2.62 C15.14,2.62 10.74,-0.55 3.19,3.06 Z" id="Path" fill="#3F4164"></path>
                                <path d="M15.11,3 L15,3 C14.8865767,2.96011576 14.8131919,2.85003854 14.82,2.73 C14.8638017,2.20092454 14.7562893,1.67029885 14.51,1.2 C14.4512122,1.06995394 14.503785,0.916616525 14.63,0.85 C14.6922533,0.819049001 14.7643092,0.814319301 14.8300741,0.836867272 C14.895839,0.859415243 14.9498342,0.907362466 14.98,0.97 C15.1692535,1.31665483 15.288195,1.69726753 15.33,2.09 C15.636567,1.8841369 15.9741966,1.7288273 16.33,1.63 C16.3961983,1.60500769 16.469887,1.60923846 16.53279,1.64164301 C16.5956929,1.67404756 16.6419178,1.73159043 16.66,1.8 C16.7065439,1.93528596 16.6350432,2.08275626 16.5,2.13 C16.0256046,2.22766056 15.6027666,2.49415507 15.31,2.88 C15.266021,2.94933587 15.1918747,2.99382363 15.11,3 Z" id="Path" fill="#3F4164"></path>
                                <path d="M11,15.51 C10.8950378,15.51 10.8003701,15.4468882 10.76,15.35 C10.7035414,15.2201748 10.7613282,15.06904 10.89,15.01 C11.1684851,14.8754912 11.4274993,14.7039363 11.66,14.5 C11.3725239,13.9012047 11.0381484,13.3260789 10.66,12.78 C10.6175235,12.7234519 10.5999162,12.6520401 10.6112371,12.5822276 C10.622558,12.5124152 10.6618302,12.4502271 10.72,12.41 C10.7749222,12.367981 10.8447958,12.350588 10.9130072,12.3619566 C10.9812187,12.3733252 11.0416744,12.4124396 11.08,12.47 C11.5080459,13.1027573 11.8794834,13.7720139 12.19,14.47 C12.2371774,14.5724299 12.2129445,14.6935945 12.13,14.77 C11.8098495,15.0555481 11.4534444,15.2976346 11.07,15.49 C11.0482725,15.5013649 11.024452,15.5081708 11,15.51 Z" id="Path" fill="#D26E63" opacity="0.4"></path>
                                <path d="M10.88,19.08 C10.4506505,19.0886964 10.0299036,18.9589661 9.68,18.71 C9.31137053,18.4267106 9.09969665,17.984795 9.11,17.52 C9.13474453,17.3932164 9.24582422,17.3017204 9.375,17.3017204 C9.50417578,17.3017204 9.61525547,17.3932164 9.64,17.52 C9.62713179,17.82004 9.76151694,18.1074749 10,18.29 C10.2577676,18.4689895 10.5663471,18.5601607 10.88,18.55 C11.2283543,18.5920003 11.578894,18.4914015 11.8519619,18.2710639 C12.1250299,18.0507264 12.2974351,17.7293626 12.33,17.38 C12.3547445,17.2532164 12.4658242,17.1617204 12.595,17.1617204 C12.7241758,17.1617204 12.8352555,17.2532164 12.86,17.38 C12.8268874,17.8695605 12.5985602,18.3253157 12.2262744,18.6449549 C11.8539887,18.9645942 11.3689346,19.1213381 10.88,19.08 Z" id="Path" fill="#60342B"></path>
                                <path d="M5.21,14.77 C5.06469356,14.7542275 4.95831981,14.6256925 4.97,14.48 C4.96442324,13.7548339 5.54489542,13.1609662 6.27,13.15 C6.9523398,13.1486867 7.51768554,13.6789722 7.56,14.36 C7.57168019,14.5056925 7.46530644,14.6342275 7.32,14.65 C7.17595598,14.656607 7.05044791,14.5527383 7.03,14.41 C7.01909329,13.9997015 6.68040497,13.6743825 6.27,13.68 C5.93,13.68 5.55,13.9 5.49,14.53 C5.48489507,14.5990344 5.45247166,14.663183 5.39991373,14.7082327 C5.3473558,14.7532823 5.27900298,14.7755133 5.21,14.77 Z" id="Path" fill="#C1564D"></path>
                                <path d="M14.42,14.77 C14.3490487,14.7650243 14.2832334,14.7311993 14.2378861,14.6764046 C14.1925388,14.6216099 14.171619,14.55063 14.18,14.48 C14.1746588,14.1308412 14.3089426,13.7940007 14.5530315,13.544279 C14.7971205,13.2945572 15.1308102,13.1526248 15.48,13.15 C16.1623398,13.1486867 16.7276855,13.6789722 16.77,14.36 C16.7816802,14.5056925 16.6753064,14.6342275 16.53,14.65 C16.385956,14.656607 16.2604479,14.5527383 16.24,14.41 C16.2290933,13.9997015 15.890405,13.6743825 15.48,13.68 C15.14,13.68 14.75,13.9 14.7,14.53 C14.6843463,14.6712076 14.5619405,14.776127 14.42,14.77 Z" id="Path" fill="#C1564D"></path>
                                <path d="M16.85,11.7 L16.77,11.7 L13.37,11.04 C13.1543798,10.9947564 13.0130631,10.7871974 13.05,10.57 C13.0951046,10.3552344 13.304821,10.2169108 13.52,10.26 L16.92,10.92 C17.1341912,10.960521 17.2764978,11.1650866 17.24,11.38 C17.2021306,11.5655325 17.0393556,11.6990914 16.85,11.7 Z" id="Path" fill="#3F4164"></path>
                                <g id="Group" opacity="0.2" transform="translate(3.000000, 3.000000)" fill="#FFFFFF">
                                    <path d="M2.29,2.9 C1.62098628,2.8971964 0.952879948,2.85042896 0.29,2.76 C0.148482205,2.7345349 0.051750381,2.60262787 0.07,2.46 C0.0798276923,2.39066984 0.117204901,2.32823464 0.173671992,2.28682544 C0.230139082,2.24541624 0.300921874,2.22853411 0.37,2.24 C3.129671,2.62612572 5.94185155,2.18411219 8.45,0.97 C8.58004606,0.911212185 8.73338348,0.963785015 8.8,1.09 C8.830951,1.15225328 8.8356807,1.22430916 8.81313273,1.29007408 C8.79058476,1.35583899 8.74263753,1.40983422 8.68,1.44 C6.68818674,2.40468811 4.50312624,2.90393511 2.29,2.9 Z" id="Path"></path>
                                    <path d="M2.82,6.1 C2.69067895,6.10153828 2.57988781,6.00779193 2.56,5.88 C2.54544408,5.81207606 2.55980586,5.74115826 2.59964204,5.68424943 C2.63947822,5.6273406 2.70119662,5.58957243 2.77,5.58 C4.69751329,5.21060895 6.53489232,4.47022331 8.18,3.4 C8.30248378,3.3421668 8.44886156,3.38403655 8.52223551,3.49789267 C8.59560946,3.6117488 8.57326777,3.76234886 8.47,3.85 C6.76475966,4.95689171 4.85866177,5.71797179 2.86,6.09 L2.82,6.1 Z" id="Path"></path>
                                    <path d="M15.65,4.66 C15.5832379,4.66064318 15.5187869,4.6355789 15.47,4.59 C14.7672642,3.93665856 14.2263143,3.12865747 13.89,2.23 C13.8609491,2.1653644 13.8606936,2.09143652 13.8892972,2.02660171 C13.9179008,1.96176691 13.9726758,1.91211715 14.04,1.89 C14.1751888,1.84164756 14.3245754,1.90755341 14.38,2.04 C14.6922019,2.86409685 15.1880882,3.60621623 15.83,4.21 C15.8794682,4.25885007 15.9073117,4.32547709 15.9073117,4.395 C15.9073117,4.46452291 15.8794682,4.53114993 15.83,4.58 C15.7822152,4.62838245 15.7179335,4.6569521 15.65,4.66 Z" id="Path"></path>
                                </g>
                            </g>
                            <circle id="Oval" fill="#FD7E98" cx="27" cy="299.76" r="4.5"></circle>
                            <rect id="Rectangle" fill="#CCD5E2" x="43" y="297.29" width="78" height="4.95" rx="2.47"></rect>
                            <rect id="Rectangle" fill="#D6DDE7" opacity="0.6" x="43" y="311.05" width="51.88" height="4.95" rx="2.47"></rect>
                            <circle id="Oval" fill="#A3E0FC" cx="27" cy="342.76" r="4.5"></circle>
                            <rect id="Rectangle" fill="#CCD5E2" x="43" y="340.29" width="78" height="4.95" rx="2.47"></rect>
                            <rect id="Rectangle" fill="#D6DDE7" opacity="0.6" x="43" y="354.05" width="51.88" height="4.95" rx="2.47"></rect>
                            <circle id="Oval" fill="#79E2AA" cx="162" cy="348" r="15"></circle>
                            <g id="head" transform="translate(141.000000, 335.000000)">
                                <path d="M20.83,0.36 C14.37,0.88 12.11,3.28 11.83,9.84 C11.53,16.13 13.95,16.84 20.76,16.56 C26,16.37 29.37,15.89 29.31,10.2 C29.2,3.67 26.2,-0.08 20.83,0.36 Z" id="Path" fill="#F9BBA5"></path>
                                <path d="M20.52,11.05 C20.4219107,11.0547856 20.3308025,10.9993285 20.29,10.91 C20.2399323,10.7829293 20.2967178,10.6387814 20.42,10.58 C20.6780588,10.4529127 20.9198118,10.2951018 21.14,10.11 C20.8789924,9.54729212 20.5747473,9.00566889 20.23,8.49 C20.1848109,8.44496755 20.1594107,8.38379635 20.1594107,8.32 C20.1594107,8.25620365 20.1848109,8.19503245 20.23,8.15 C20.3404569,8.06715729 20.4971573,8.08954305 20.58,8.2 C20.9632446,8.79532972 21.29767,9.42070525 21.58,10.07 C21.6223847,10.1697251 21.5984766,10.2852807 21.52,10.36 C21.2148637,10.6227883 20.8790979,10.8477514 20.52,11.03 C20.5203335,11.0366625 20.5203335,11.0433375 20.52,11.05 Z" id="Path" fill="#D26E63" opacity="0.4"></path>
                                <path d="M11.64,21.06 C13.73,24.83 19.89,25.75 24.12,25.06 C36.37,23.06 29.42,7.15 28.74,6.31 C28.33,5.81 27.49,5.83 27.23,6.96 C27.02,7.88 27.82,11.6 27.67,12.03 C27.28,13.16 24.08,13.55 22.89,13.69 C19.11,14.12 14.74,14.04 13.89,13.22 C13.04,12.4 13.2,10.42 13.32,8.44 C13.38,7.44 12.15,6.44 11.56,8.31 C11.31,9 10,18 11.64,21.06 Z" id="Path" fill="#B16D60"></path>
                                <path d="M17.1,11.28 C17.77,10.65 22.55,10.41 23.42,10.85 C24.6568187,11.5753577 25.468357,12.8522274 25.6,14.28 C25.52,14.55 17.39,15.57 16.14,14.28 C15.53,13.65 16.93,11.44 17.1,11.28 Z" id="Path" fill="#B16D60"></path>
                                <g id="Group" transform="translate(0.000000, 5.000000)" fill="#FFFFFF" opacity="0.1">
                                    <path d="M9.53,20.47 C9.35074599,20.4675248 9.1990539,20.3369011 9.17,20.16 C9.14013232,19.9585424 9.27868647,19.7708239 9.48,19.74 C14.8489665,18.9129764 20.0492037,17.2245877 24.88,14.74 C28.2430925,13.1194997 31.2616702,10.864904 33.77,8.1 C33.8309785,8.02305633 33.9200373,7.97350229 34.0175672,7.96224884 C34.115097,7.9509954 34.2131009,7.97896529 34.29,8.04 C34.4452272,8.16972932 34.471604,8.39832863 34.35,8.56 C30.77,13 21.5,18.56 9.59,20.43 L9.53,20.47 Z" id="Path"></path>
                                    <path d="M8.3,17.63 L8.18,17.63 C7.97565464,17.63 7.81,17.4643454 7.81,17.26 C7.81,17.0556546 7.97565464,16.89 8.18,16.89 L8.3,16.89 C13.6176188,16.7821973 18.8152423,15.2897762 23.38,12.56 C26.44,10.79 30.21,7.85 31.76,5.3 C31.8080391,5.21534858 31.8883081,5.15375646 31.9825087,5.12926431 C32.0767093,5.10477215 32.176813,5.11946736 32.26,5.17 C32.3453156,5.21998414 32.4070748,5.30203759 32.4314984,5.39785334 C32.4559221,5.49366908 32.4409778,5.59527439 32.39,5.68 C31.31,7.46 28.39,10.5 23.75,13.2 C19.074132,15.9980124 13.7480843,17.5251574 8.3,17.63 Z" id="Path"></path>
                                    <path d="M5.74,12.44 L3.47,12.44 C3.26798068,12.4293528 3.10971962,12.2622995 3.11,12.06 C3.11261662,11.9618579 3.15413124,11.8687794 3.22540305,11.8012588 C3.29667485,11.7337381 3.39185988,11.6973117 3.49,11.7 C16.26,12.03 25.32,9.63 32,4.15 C32.1007184,4.05675196 32.2447804,4.02692121 32.3742466,4.07250518 C32.5037128,4.11808916 32.5973066,4.23159656 32.6173862,4.36737656 C32.6374657,4.50315656 32.5807311,4.63889496 32.47,4.72 C26.05,10 17.52,12.44 5.74,12.44 Z" id="Path"></path>
                                    <path d="M1.28,11.13 C1.07565464,11.13 0.91,10.9643454 0.91,10.76 C0.91,10.5556546 1.07565464,10.39 1.28,10.39 C21.6,9.15 24.63,6.82 31.96,1.19 L32.59,0.7 C32.6953933,0.619615242 32.8356656,0.601563345 32.9579775,0.652644284 C33.0802894,0.703725223 33.1660589,0.816178588 33.1829775,0.947644284 C33.1998961,1.07910998 33.1453933,1.20961524 33.04,1.29 L32.41,1.77 C24.95,7.51 21.87,9.88 1.33,11.13 L1.28,11.13 Z" id="Path"></path>
                                    <path d="M5.5,6 C4.58,6 3.66,5.98 2.74,5.94 C2.53565464,5.94 2.37,5.77434536 2.37,5.57 C2.37,5.36565464 2.53565464,5.2 2.74,5.2 C14.8,5.79 27.9,2.03 30.44,0.2 C30.6035952,0.084077344 30.8297568,0.119553678 30.95,0.28 C31.0670365,0.446754082 31.0317471,0.676135701 30.87,0.8 C28.6,2.49 17.31,6 5.5,6 Z" id="Path"></path>
                                    <path d="M21.1,21.53 C20.9530314,21.5307021 20.8195809,21.4443518 20.76,21.31 C20.6832732,21.119457 20.7718549,20.902432 20.96,20.82 C25.6533601,18.7741942 29.8873147,15.8053248 33.41,12.09 C33.5011027,11.9935383 33.6367468,11.9530067 33.7658365,11.9836731 C33.8949261,12.0143396 33.9978495,12.111545 34.0358365,12.2386731 C34.0738234,12.3658013 34.0411027,12.5035383 33.95,12.6 C30.3551341,16.3869178 26.0364334,19.4134089 21.25,21.5 L21.1,21.53 Z" id="Path"></path>
                                </g>
                                <path d="M28.74,6.31 C28.33,5.81 27.49,5.83 27.23,6.96 C27.02,7.88 27.82,11.6 27.67,12.03 C27.47,12.63 26.48,13.03 25.42,13.27 C25.0434424,12.2619544 24.339082,11.4096783 23.42,10.85 C22.55,10.41 17.77,10.65 17.1,11.28 C16.5293643,12.0278079 16.1484907,12.9027878 15.99,13.83 C15.2379836,13.8224582 14.5020037,13.6116846 13.86,13.22 C12.99,12.41 13.17,10.42 13.29,8.44 C13.35,7.44 12.12,6.44 11.53,8.31 C11.31,9.02 9.96,18.03 11.64,21.06 C13.73,24.83 19.89,25.75 24.12,25.06 C36.37,23.07 29.42,7.15 28.74,6.31 Z" id="Path"></path>
                                <path d="M20.42,13.9 C20.0180523,13.9117119 19.623758,13.788495 19.3,13.55 C18.950152,13.289872 18.7487178,12.8758129 18.76,12.44 C18.76,12.3019288 18.8719288,12.19 19.01,12.19 C19.1480712,12.19 19.26,12.3019288 19.26,12.44 C19.2463631,12.7193852 19.3694546,12.9879484 19.59,13.16 C19.8329451,13.3296759 20.1237579,13.4172701 20.42,13.41 C20.7471104,13.4491804 21.076162,13.3544019 21.3323118,13.1472219 C21.5884617,12.9400419 21.7499333,12.6380736 21.78,12.31 C21.7598301,12.2106698 21.8016307,12.108991 21.8858314,12.0525679 C21.9700321,11.9961449 22.0799679,11.9961449 22.1641686,12.0525679 C22.2483693,12.108991 22.2901699,12.2106698 22.27,12.31 C22.2394346,12.767691 22.026265,13.1939112 21.6783845,13.4929003 C21.3305041,13.7918894 20.8770856,13.9385747 20.42,13.9 Z" id="Path" fill="#60342B"></path>
                                <path d="M15.11,10.35 C15.046262,10.3449113 14.9871897,10.3145989 14.9458876,10.2657874 C14.9045856,10.2169759 14.8844688,10.1537011 14.89,10.09 C14.8844198,9.4090132 15.4290786,8.85096116 16.11,8.84 C16.7518557,8.83892508 17.2828687,9.33921836 17.32,9.98 C17.3258041,10.1144434 17.2241474,10.2293597 17.09,10.24 C17.0262989,10.2455312 16.9630241,10.2254144 16.9142126,10.1841124 C16.8654011,10.1428103 16.8350887,10.083738 16.83,10.02 C16.8139077,9.63411732 16.4962179,9.3296646 16.11,9.33 C15.78,9.33 15.43,9.54 15.38,10.13 C15.3750521,10.1956717 15.3433351,10.2564246 15.2922798,10.2980252 C15.2412245,10.3396258 15.1753175,10.3584184 15.11,10.35 Z" id="Path" fill="#C1564D"></path>
                                <path d="M23.74,10.35 C23.676262,10.3449113 23.6171897,10.3145989 23.5758876,10.2657874 C23.5345856,10.2169759 23.5144688,10.1537011 23.52,10.09 C23.5144198,9.4090132 24.0590786,8.85096116 24.74,8.84 C25.3818557,8.83892508 25.9128687,9.33921836 25.95,9.98 C25.9558041,10.1144434 25.8541474,10.2293597 25.72,10.24 C25.6562989,10.2455312 25.5930241,10.2254144 25.5442126,10.1841124 C25.4954011,10.1428103 25.4650887,10.083738 25.46,10.02 C25.4439077,9.63411732 25.1262179,9.3296646 24.74,9.33 C24.42,9.33 24.06,9.54 24.01,10.13 C24.0050521,10.1956717 23.9733351,10.2564246 23.9222798,10.2980252 C23.8712245,10.3396258 23.8053175,10.3584184 23.74,10.35 Z" id="Path" fill="#C1564D"></path>
                                <path d="M14,7.22 C13.8286434,7.22427379 13.6780378,7.10713612 13.64,6.94 C13.5953458,6.74195908 13.7142443,6.54379497 13.91,6.49 L17.05,5.73 C17.2488225,5.68029443 17.4502943,5.80117755 17.4999999,6.00000002 C17.5497055,6.1988225 17.4288225,6.40029433 17.23,6.45 L14.09,7.21 L14,7.22 Z" id="Path" fill="#955343"></path>
                                <path d="M26.51,6.67 L26.43,6.67 L23.24,6.05 C23.1428438,6.03075655 23.0574588,5.97336408 23.0029538,5.89066682 C22.9484488,5.80796956 22.9293746,5.70687221 22.95,5.61 C22.9668553,5.5136238 23.022211,5.42825906 23.1033266,5.37355319 C23.1844422,5.31884733 23.28433,5.29951294 23.38,5.32 L26.58,5.94 C26.6763762,5.95685526 26.7617409,6.01221098 26.8164468,6.09332657 C26.8711527,6.17444217 26.8904871,6.27432998 26.87,6.37 C26.8366888,6.54293208 26.6861041,6.66841932 26.51,6.67 Z" id="Path" fill="#955343"></path>
                            </g>
                            <rect id="Rectangle" fill="#79E3AA" x="23" y="269" width="55" height="4.95" rx="2.47"></rect>
                            <rect id="Rectangle" fill="#79E3AA" opacity="0.6" x="89" y="269" width="34.47" height="4.95" rx="2.47"></rect>
                            <circle id="Oval" fill="#79E3AA" cx="27" cy="221.76" r="4.5"></circle>
                            <rect id="Rectangle" fill="#CCD5E2" x="43" y="219.29" width="78" height="4.95" rx="2.47"></rect>
                            <rect id="Rectangle" fill="#D6DDE7" opacity="0.6" x="43" y="233.05" width="51.88" height="4.95" rx="2.47"></rect>
                            <circle id="Oval" fill="#AA8DF7" cx="162" cy="227" r="15"></circle>
                            <g id="character-7" transform="translate(149.000000, 213.000000)">
                                <path d="M21.87,18.73 C22.26,18.5 28.17,6.43 19.81,7.05 C20.16,4.05 18.42,0.53 15.36,0.53 C11.51,0.53 5.13,6.06 1.46,5.67 C0.18,5.34 1.02,7.29 1.88,8.38 C3.76,10.77 3.88,9 2.45,10.57 C1.9294012,11.1136492 1.61162719,11.8198136 1.55,12.57 C1.18,15.57 5.33,19.1 5.28,19.1 L21.87,18.73 Z" id="Path" fill="#FFD46A"></path>
                                <path d="M7.26,23.64 C10.8885887,24.457744 14.6601094,24.3960282 18.26,23.46 C21.63,22.34 22.11,20.66 21.8,15.37 C21.37,8.07 18.72,9.32 8.8,9.6 C5.6,9.69 5.14,13.22 5.19,16.48 C5.26,18.46 5,23 7.26,23.64 Z" id="Path" fill="#F9BBA5"></path>
                                <path d="M7.81,9.31 C7.81,9.31 12.42,13.7 18.71,9.05 L7.81,9.31 Z" id="Path" fill="#FFD46A"></path>
                                <path d="M9.8,16.81 C9.61870441,16.8210245 9.45098797,16.9097581 9.33987595,17.0534374 C9.22876394,17.1971167 9.18506883,17.3817602 9.22,17.56 C9.30770959,17.8710687 9.6260521,18.0567684 9.94,17.98 C10.1383403,17.9166257 10.2959431,17.7646402 10.366471,17.5687296 C10.4369988,17.3728189 10.4124344,17.1552532 10.3,16.98 C10.1644721,16.8577842 9.97789284,16.8092736 9.8,16.85 L9.8,16.81 Z" id="Path" fill="#C1564D"></path>
                                <path d="M17,16.8 C16.818504,16.8632317 16.6729023,17.0013612 16.6002053,17.1792774 C16.5275084,17.3571937 16.5347174,17.557762 16.62,17.73 C16.7980491,18.0320219 17.1859549,18.1345718 17.49,17.96 C17.6672891,17.8629112 17.783777,17.6830807 17.7998962,17.4815917 C17.8160153,17.2801027 17.7295988,17.0840398 17.57,16.96 C17.4144936,16.8225088 17.1997431,16.7735306 17,16.83 L17,16.8 Z" id="Path" fill="#C1564D"></path>
                                <path d="M11.81,20.05 C12.71,22.43 14.48,22.39 15.09,20.05 C15.1150265,19.9595506 15.0962841,19.8626013 15.0393491,19.7879968 C14.9824141,19.7133923 14.8938475,19.6697298 14.8,19.67 L12.09,19.67 C11.996339,19.6686015 11.9077701,19.7125292 11.8522042,19.78794 C11.7966384,19.8633507 11.7809191,19.9609571 11.81,20.05 Z" id="Path" fill="#C1564D"></path>
                                <path d="M13.23,19 C13.1672274,19.0000594 13.1071579,18.9744594 13.0637252,18.9291383 C13.0202925,18.8838172 12.9972707,18.8227133 13,18.76 C12.9999406,18.6972274 13.0255406,18.6371579 13.0708617,18.5937252 C13.1161828,18.5502925 13.1772867,18.5272707 13.24,18.53 C13.4971013,18.5235853 13.7455998,18.4360858 13.95,18.28 C13.95,18.28 14.01,18.21 14.01,18.19 C13.936056,18.1123766 13.8519618,18.0451012 13.76,17.99 C13.2547085,17.7441964 12.9732488,17.1935143 13.07,16.64 L13.07,15.45 C13.0501928,15.3544875 13.0901645,15.256488 13.1711228,15.2020754 C13.2520811,15.1476629 13.3579189,15.1476629 13.4388772,15.2020754 C13.5198355,15.256488 13.5598072,15.3544875 13.54,15.45 L13.54,16.7 C13.45,17.2 13.73,17.39 14.03,17.6 C14.33,17.81 14.49,17.91 14.48,18.2 C14.4740589,18.3644418 14.4019347,18.5195087 14.28,18.63 C13.9822247,18.8690863 13.6118798,18.9995888 13.23,19 Z" id="Path" fill="#D26E63" opacity="0.4"></path>
                                <path d="M9.69,19.86 C9.09337373,19.8607378 8.5107403,19.679319 8.02,19.34 C7.12865445,18.7290308 6.8326742,17.5493994 7.33,16.59 C7.83498461,15.5354775 8.92206731,14.8855911 10.09,14.94 C11.0472399,14.9596872 11.8829341,15.5935229 12.16,16.51 C12.4100555,17.2949407 12.2686652,18.1521791 11.7797806,18.8152412 C11.290896,19.4783034 10.5137798,19.8668125 9.69,19.86 Z M7.76,16.79 C7.35888854,17.5418742 7.59225498,18.4753399 8.3,18.95 C9.15995373,19.5782363 10.3410368,19.5241727 11.14,18.82 C11.7167745,18.2661186 11.9366206,17.4368745 11.71,16.67 C11.4929313,15.9413031 10.8301691,15.436149 10.07,15.42 C9.0979604,15.3841384 8.1947008,15.9198378 7.76,16.79 Z" id="Shape" fill="#4A4F6A" fill-rule="nonzero"></path>
                                <path d="M17.21,19.86 C16.6166877,19.8593391 16.0376539,19.6779551 15.55,19.34 C14.6511273,18.7348386 14.3498565,17.5512747 14.85,16.59 C15.3605093,15.5357531 16.4498578,14.8868632 17.62,14.94 C18.5750833,14.9658553 19.407576,15.5972628 19.69,16.51 C19.9790167,17.4545866 19.7077927,18.4813631 18.99,19.16 C18.5099643,19.6154465 17.8716828,19.866456 17.21,19.86 Z M15.29,16.79 C14.876902,17.5381168 15.1075369,18.4780626 15.82,18.95 C16.6799537,19.5782363 17.8610368,19.5241727 18.66,18.82 C19.240351,18.2682875 19.4641367,17.4387371 19.24,16.67 C19.0202143,15.9431843 18.3590755,15.4392675 17.6,15.42 C16.626654,15.3789769 15.7207981,15.916216 15.29,16.79 Z" id="Shape" fill="#4A4F6A" fill-rule="nonzero"></path>
                                <path d="M14.85,17.4 L14.78,17.4 C13.9239445,17.1096821 12.9960555,17.1096821 12.14,17.4 C12.0185065,17.4483528 11.8806642,17.3905479 11.83,17.27 C11.8033602,17.2131606 11.8011095,17.1479024 11.8237701,17.0893626 C11.8464306,17.0308229 11.8920332,16.9840885 11.95,16.96 C12.9226613,16.6293116 13.9773387,16.6293116 14.95,16.96 C15.0110645,16.9784691 15.0622628,17.0204906 15.0922846,17.0767815 C15.1223065,17.1330724 15.128681,17.199 15.11,17.26 C15.0630968,17.358334 14.9579137,17.4149711 14.85,17.4 Z" id="Path" fill="#4A4F6A"></path>
                                <path d="M5.22,18.12 C5.0948849,18.1204351 4.99042556,18.0246807 4.98,17.9 C4.97382677,17.7690584 5.06984273,17.655585 5.2,17.64 L7.31,17.44 C7.40551249,17.4201928 7.50351204,17.4601645 7.55792457,17.5411228 C7.6123371,17.6220811 7.6123371,17.7279189 7.55792457,17.8088772 C7.50351204,17.8898355 7.40551249,17.9298072 7.31,17.91 L5.2,18.12 L5.22,18.12 Z" id="Path" fill="#4A4F6A"></path>
                                <path d="M21.9,18.14 L19.57,17.91 C19.4581616,17.877697 19.3856304,17.7697936 19.3979449,17.6540367 C19.4102595,17.5382798 19.5038686,17.4480509 19.62,17.44 L21.95,17.66 C22.078758,17.6756794 22.1717603,17.790825 22.16,17.92 C22.1577394,17.9848177 22.1282175,18.0456683 22.0787065,18.0875622 C22.0291955,18.1294561 21.9642978,18.148499 21.9,18.14 Z" id="Path" fill="#4A4F6A"></path>
                                <g id="Group" opacity="0.3" transform="translate(3.000000, 3.000000)" fill="#FFFFFF">
                                    <path d="M5.45,3.46 C5.32126069,3.4601118 5.21536409,3.35862756 5.21,3.23 C5.20729186,3.16633342 5.23001488,3.10420353 5.27315973,3.05730695 C5.31630459,3.01041037 5.37632881,2.9825976 5.44,2.98 C7.87834262,2.84040184 10.2128705,1.94573246 12.12,0.42 C12.2125513,0.332379001 12.3574487,0.332379001 12.45,0.42 C12.4945991,0.463310919 12.5197658,0.522831555 12.5197658,0.585 C12.5197658,0.647168445 12.4945991,0.706689081 12.45,0.75 C10.4678963,2.3405827 8.03757706,3.27074804 5.5,3.41 L5.45,3.46 Z" id="Path"></path>
                                    <path d="M9.37,5.65 C9.25555104,5.65198712 9.15562732,5.57287296 9.13131131,5.46101928 C9.10699529,5.34916561 9.16505539,5.23570714 9.27,5.19 C10.6589165,4.60491321 11.9168878,3.74813277 12.97,2.67 C13.0638884,2.57611159 13.2161116,2.57611159 13.31,2.67 C13.4038884,2.76388841 13.4038884,2.91611159 13.31,3.01 C12.2089088,4.12497209 10.9012406,5.01486577 9.46,5.63 L9.37,5.65 Z" id="Path"></path>
                                    <path d="M0.79,10 C0.670392023,10.000453 0.57039991,9.90915584 0.56,9.79 C0.46948129,9.01653839 0.630797461,8.23450565 1.02,7.56 C1.08526364,7.44902937 1.2264591,7.40931815 1.34,7.47 C1.39607728,7.50146555 1.43718265,7.5541179 1.45410161,7.61615411 C1.47102058,7.67819032 1.46233792,7.74442121 1.43,7.8 C1.0941866,8.38783865 0.954097364,9.06727144 1.03,9.74 C1.04176026,9.86917498 0.948758046,9.98432058 0.82,10 L0.79,10 Z" id="Path"></path>
                                    <path d="M19.73,9 C19.5974517,9 19.49,8.89254834 19.49,8.76 C19.4969677,8.07378447 19.3642777,7.39332267 19.1,6.76 C19.0704143,6.64397944 19.1308671,6.52390064 19.2416859,6.47856565 C19.3525048,6.43323066 19.4797856,6.47650937 19.54,6.58 C19.8330715,7.28297974 19.9793982,8.03843378 19.97,8.8 C19.9502798,8.9167368 19.8483792,9.00165394 19.73,9 Z" id="Path"></path>
                                </g>
                            </g>
                            <rect id="Rectangle" fill="#79E3AA" x="23" y="191" width="55" height="4.95" rx="2.47"></rect>
                            <rect id="Rectangle" fill="#79E3AA" opacity="0.6" x="89" y="191" width="34.47" height="4.95" rx="2.47"></rect>
                            <rect id="Rectangle" fill="#D6DDE7" opacity="0.6" x="20" y="35.53" width="12.36" height="2" rx="1"></rect>
                            <rect id="Rectangle" fill="#D6DDE7" opacity="0.6" x="20" y="31.53" width="12.36" height="2" rx="1"></rect>
                            <rect id="Rectangle" fill="#D6DDE7" opacity="0.6" x="20" y="39.53" width="12.36" height="2" rx="1"></rect>
                            <rect id="Rectangle" fill="#FFFFFF" opacity="0.5" x="47" y="35" width="51" height="3" rx="1.5"></rect>
                            <g id="Group" opacity="0.6" transform="translate(177.000000, 31.000000)" fill="#D6DDE7">
                                <circle id="Oval" cx="1.98" cy="6.55" r="1.36"></circle>
                                <circle id="Oval" cx="1.98" cy="2.01" r="1.36"></circle>
                                <circle id="Oval" cx="1.98" cy="11.1" r="1.36"></circle>
                            </g>
                            <path d="M156.94,36.94 L159.39,36.94 C160.036173,36.94 160.56,37.4638268 160.56,38.11 C160.56,38.7561732 160.036173,39.28 159.39,39.28 L156.94,39.28 L156.94,41.72 C156.980993,42.1619847 156.768343,42.5891038 156.390953,42.8227879 C156.013564,43.0564719 155.536436,43.0564719 155.159047,42.8227879 C154.781657,42.5891038 154.569007,42.1619847 154.61,41.72 L154.61,39.28 L152.16,39.28 C151.513827,39.28 150.99,38.7561732 150.99,38.11 C150.99,37.4638268 151.513827,36.94 152.16,36.94 L154.61,36.94 L154.61,34.5 C154.569007,34.0580153 154.781657,33.6308962 155.159047,33.3972121 C155.536436,33.1635281 156.013564,33.1635281 156.390953,33.3972121 C156.768343,33.6308962 156.980993,34.0580153 156.94,34.5 L156.94,36.94 Z" id="Path" fill="#D6DDE7" opacity="0.6"></path>
                            <g id="Group" opacity="0.6" transform="translate(127.000000, 33.000000)" fill="#D6DDE7">
                                <path d="M4.75,9 C2.40933433,8.99983801 0.509397324,7.10711904 0.500326045,4.76647094 C0.491254766,2.42582284 2.37646429,0.518434373 4.7170584,0.500129967 C7.05765251,0.48182556 8.97246275,2.35949631 9,4.7 C9.01336338,5.83580826 8.57150317,6.92970192 7.77302055,7.73757845 C6.97453794,8.54545498 5.88588686,9.00007861 4.75,9 Z M4.75,2.15 C3.31405965,2.15 2.15,3.31405965 2.15,4.75 C2.15,6.18594035 3.31405965,7.35 4.75,7.35 C6.18594035,7.35 7.35,6.18594035 7.35,4.75 C7.36069402,4.05261105 7.09181493,3.37995371 6.60334767,2.88209285 C6.11488041,2.38423199 5.44746613,2.10259031 4.75,2.1 L4.75,2.15 Z" id="Shape" fill-rule="nonzero"></path>
                                <path d="M7.55,11.44 C7.23845133,11.4398156 6.95461977,11.2609629 6.82,10.98 L5.57,8.49 C5.47302059,8.29509485 5.45752586,8.06962529 5.52693094,7.86328586 C5.59633602,7.65694644 5.74494365,7.48667494 5.94,7.39 C6.34615236,7.18576134 6.84102927,7.34626196 7.05,7.75 L8.29,10.24 C8.49277136,10.6488013 8.32749788,11.1446218 7.92,11.35 C7.80557081,11.4089757 7.67873285,11.4398282 7.55,11.44 Z" id="Path"></path>
                            </g>
                        </g>
                    </g>
                </g>
            </g>
        </g>
    </g>
</svg>